<svg width="725" height="552" viewBox="0 0 725 552" fill="none" xmlns="http://www.w3.org/2000/svg">
<g filter="url(#filter0_d_286_2103)">
<path d="M513.678 148.138C521.633 318.227 492.864 386.906 376.032 435.275C375.257 435.596 374.344 435.602 373.564 435.295C246.042 385.136 236.285 304.899 237.674 148.169C237.689 146.523 238.949 145.108 240.584 144.916C297.742 138.194 327.199 130.72 373.591 113.071C374.364 112.776 375.243 112.787 376.009 113.097C428.607 134.381 461.86 140.55 510.696 144.996C512.32 145.144 513.602 146.509 513.678 148.138Z" stroke="#C10000" stroke-width="8.15733" stroke-linejoin="round"/>
<path d="M497.528 167.982C504.477 313.6 479.065 372.479 376.171 413.949C375.413 414.254 374.525 414.26 373.762 413.968C261.47 370.963 252.768 302.203 253.971 168.019C253.986 166.37 255.249 164.955 256.888 164.767C307.049 159.014 333.013 152.601 373.789 137.519C374.545 137.239 375.399 137.249 376.149 137.544C422.373 155.727 451.669 161.036 494.541 164.846C496.166 164.991 497.451 166.353 497.528 167.982Z" fill="url(#paint0_linear_286_2103)"/>
<path d="M376.176 49.6801C309.372 75.8572 267.429 86.9279 186.096 96.8112C182.967 97.1914 180.574 99.9079 180.548 103.059C178.634 330.929 192.804 424.878 373.602 497.973C375.21 498.623 377.08 498.584 378.649 497.844C437.908 469.858 478.051 445.075 508.84 409.314" stroke="url(#paint1_linear_286_2103)" stroke-width="44.16" stroke-linecap="round" stroke-linejoin="round"/>
<path d="M312.689 280.048H289.241C288.934 280.048 288.665 279.933 288.434 279.702C288.203 279.471 288.088 279.202 288.088 278.895V251.065C288.088 250.758 288.203 250.489 288.434 250.258C288.665 250.027 288.934 249.912 289.241 249.912H311.651C311.959 249.912 312.228 250.027 312.458 250.258C312.689 250.489 312.804 250.758 312.804 251.065V256.677C312.804 257.01 312.689 257.292 312.458 257.523C312.228 257.754 311.959 257.869 311.651 257.869H298.736V260.944H309.768C310.075 260.944 310.344 261.059 310.575 261.29C310.805 261.521 310.921 261.79 310.921 262.097V267.632C310.921 267.965 310.805 268.247 310.575 268.478C310.344 268.709 310.075 268.824 309.768 268.824L298.736 268.862V272.091H312.689C313.022 272.091 313.291 272.207 313.496 272.437C313.727 272.668 313.842 272.95 313.842 273.283V278.895C313.842 279.202 313.727 279.471 313.496 279.702C313.291 279.933 313.022 280.048 312.689 280.048ZM343.127 249.912H352.083C352.647 249.912 353.032 250.143 353.237 250.604C353.442 251.04 353.365 251.462 353.006 251.872L342.205 264.288L353.352 278.165C353.659 278.575 353.711 278.997 353.506 279.433C353.326 279.843 352.968 280.048 352.429 280.048H342.704C342.576 280.048 342.397 279.997 342.166 279.894C341.961 279.792 341.82 279.689 341.743 279.587L334.594 270.631L326.752 279.625C326.701 279.728 326.573 279.83 326.368 279.933C326.163 280.01 325.996 280.048 325.868 280.048H316.797C316.515 280.048 316.271 279.984 316.066 279.856C315.887 279.728 315.746 279.574 315.644 279.395C315.567 279.19 315.541 278.985 315.567 278.78C315.592 278.549 315.695 278.331 315.874 278.126L327.906 264.288L316.643 251.872C316.464 251.667 316.348 251.45 316.297 251.219C316.271 250.988 316.297 250.783 316.374 250.604C316.476 250.399 316.617 250.232 316.797 250.104C317.002 249.976 317.245 249.912 317.527 249.912H327.636C327.765 249.912 327.918 249.963 328.098 250.066C328.303 250.143 328.431 250.22 328.482 250.296L335.478 257.907L342.243 250.296C342.294 250.22 342.423 250.143 342.628 250.066C342.833 249.963 342.999 249.912 343.127 249.912ZM369.847 269.324L365.888 269.285V278.895C365.888 279.202 365.773 279.471 365.542 279.702C365.311 279.933 365.03 280.048 364.696 280.048H356.547C356.24 280.048 355.958 279.933 355.702 279.702C355.471 279.471 355.356 279.202 355.356 278.895V251.065C355.356 250.758 355.471 250.489 355.702 250.258C355.932 250.027 356.202 249.912 356.509 249.912H367.848C370.283 249.912 372.423 250.091 374.268 250.45C376.113 250.783 377.65 251.334 378.88 252.103C380.11 252.872 381.033 253.871 381.648 255.101C382.289 256.306 382.609 257.766 382.609 259.483C382.609 262.892 381.533 265.403 379.38 267.017C377.227 268.606 374.05 269.375 369.847 269.324ZM368.079 256.793L365.85 256.946V262.405L367.81 262.482C370.911 262.61 372.461 261.674 372.461 259.676C372.461 258.702 372.077 257.959 371.308 257.446C370.539 256.908 369.463 256.69 368.079 256.793ZM408.898 280.048H385.451C385.143 280.048 384.874 279.933 384.643 279.702C384.413 279.471 384.298 279.202 384.298 278.895V251.065C384.298 250.758 384.413 250.489 384.643 250.258C384.874 250.027 385.143 249.912 385.451 249.912H407.86C408.168 249.912 408.437 250.027 408.668 250.258C408.898 250.489 409.014 250.758 409.014 251.065V256.677C409.014 257.01 408.898 257.292 408.668 257.523C408.437 257.754 408.168 257.869 407.86 257.869H394.945V260.944H405.977C406.284 260.944 406.554 261.059 406.784 261.29C407.015 261.521 407.13 261.79 407.13 262.097V267.632C407.13 267.965 407.015 268.247 406.784 268.478C406.554 268.709 406.284 268.824 405.977 268.824L394.945 268.862V272.091H408.898C409.231 272.091 409.5 272.207 409.705 272.437C409.936 272.668 410.051 272.95 410.051 273.283V278.895C410.051 279.202 409.936 279.471 409.705 279.702C409.5 279.933 409.231 280.048 408.898 280.048ZM426.344 269.401H422.616V278.895C422.616 279.202 422.5 279.471 422.27 279.702C422.039 279.933 421.757 280.048 421.424 280.048H412.891C412.583 280.048 412.314 279.933 412.084 279.702C411.853 279.471 411.738 279.202 411.738 278.895V251.065C411.738 250.758 411.853 250.489 412.084 250.258C412.314 250.027 412.583 249.912 412.891 249.912H432.187C435.493 249.912 438.145 250.642 440.144 252.103C442.296 253.692 443.373 255.78 443.373 258.369C443.373 261.29 442.489 263.404 440.72 264.711C440.285 265.044 439.772 265.364 439.183 265.672C438.619 265.954 437.991 266.21 437.299 266.441C438.119 266.876 438.811 267.35 439.375 267.863C439.964 268.375 440.451 268.888 440.836 269.401L446.102 278.28C446.358 278.715 446.371 279.126 446.14 279.51C445.935 279.869 445.589 280.048 445.102 280.048H435.339C435.134 280.048 434.929 279.984 434.724 279.856C434.545 279.728 434.404 279.574 434.301 279.395L429.381 270.246L429.419 270.323C429.317 270.195 429.202 270.067 429.073 269.939C428.971 269.811 428.856 269.708 428.728 269.631C428.523 269.477 427.728 269.401 426.344 269.401ZM428.382 256.793H422.385V262.52H426.998C428.868 262.52 430.291 262.302 431.264 261.867C432.238 261.431 432.725 260.649 432.725 259.522C432.725 258.574 432.354 257.882 431.61 257.446C430.867 257.01 429.791 256.793 428.382 256.793ZM463.721 280.048H455.303C454.996 280.048 454.726 279.933 454.496 279.702C454.265 279.471 454.15 279.202 454.15 278.895V257.485H446.193C445.86 257.485 445.578 257.369 445.347 257.139C445.142 256.908 445.04 256.626 445.04 256.293V251.065C445.04 250.758 445.142 250.489 445.347 250.258C445.578 250.027 445.86 249.912 446.193 249.912H472.793C473.126 249.912 473.408 250.027 473.638 250.258C473.869 250.489 473.984 250.758 473.984 251.065V256.293C473.984 256.626 473.869 256.908 473.638 257.139C473.408 257.369 473.126 257.485 472.793 257.485H464.874V278.895C464.874 279.202 464.759 279.471 464.528 279.702C464.323 279.933 464.054 280.048 463.721 280.048Z" fill="white"/>
<path d="M330.372 303.833H328.747L333.446 291.037H335.046L339.744 303.833H338.12L334.296 293.061H334.196L330.372 303.833ZM330.972 298.834H337.52V300.209H330.972V298.834ZM345.686 303.833H341.737V291.037H345.861C347.103 291.037 348.165 291.293 349.048 291.805C349.931 292.313 350.608 293.044 351.079 293.998C351.549 294.948 351.785 296.085 351.785 297.41C351.785 298.743 351.547 299.89 351.072 300.853C350.597 301.811 349.906 302.548 348.998 303.064C348.09 303.577 346.986 303.833 345.686 303.833ZM343.287 302.458H345.586C346.644 302.458 347.521 302.254 348.217 301.846C348.912 301.438 349.431 300.857 349.773 300.103C350.114 299.349 350.285 298.451 350.285 297.41C350.285 296.377 350.116 295.487 349.779 294.742C349.441 293.992 348.937 293.417 348.267 293.017C347.596 292.613 346.761 292.411 345.761 292.411H343.287V302.458ZM354.384 303.833V291.037H358.858C359.749 291.037 360.484 291.191 361.063 291.499C361.642 291.803 362.073 292.213 362.357 292.73C362.64 293.242 362.781 293.811 362.781 294.436C362.781 294.986 362.684 295.44 362.488 295.798C362.296 296.156 362.042 296.439 361.725 296.648C361.413 296.856 361.074 297.01 360.707 297.11V297.235C361.099 297.26 361.492 297.397 361.888 297.647C362.284 297.897 362.615 298.255 362.881 298.722C363.148 299.188 363.281 299.759 363.281 300.434C363.281 301.075 363.136 301.652 362.844 302.165C362.552 302.677 362.092 303.083 361.463 303.383C360.834 303.683 360.016 303.833 359.008 303.833H354.384ZM355.933 302.458H359.008C360.02 302.458 360.738 302.263 361.163 301.871C361.592 301.475 361.807 300.996 361.807 300.434C361.807 300.001 361.696 299.601 361.476 299.234C361.255 298.864 360.94 298.568 360.532 298.347C360.124 298.122 359.641 298.01 359.082 298.01H355.933V302.458ZM355.933 296.66H358.808C359.274 296.66 359.695 296.568 360.07 296.385C360.449 296.202 360.749 295.944 360.969 295.61C361.194 295.277 361.307 294.886 361.307 294.436C361.307 293.873 361.111 293.396 360.72 293.005C360.328 292.609 359.707 292.411 358.858 292.411H355.933V296.66ZM365.827 303.833V291.037H367.377V302.458H373.325V303.833H365.827ZM386.023 297.435C386.023 298.784 385.78 299.951 385.292 300.934C384.805 301.917 384.136 302.675 383.287 303.208C382.437 303.741 381.466 304.008 380.375 304.008C379.284 304.008 378.313 303.741 377.463 303.208C376.613 302.675 375.945 301.917 375.458 300.934C374.97 299.951 374.726 298.784 374.726 297.435C374.726 296.085 374.97 294.919 375.458 293.936C375.945 292.953 376.613 292.195 377.463 291.661C378.313 291.128 379.284 290.862 380.375 290.862C381.466 290.862 382.437 291.128 383.287 291.661C384.136 292.195 384.805 292.953 385.292 293.936C385.78 294.919 386.023 296.085 386.023 297.435ZM384.524 297.435C384.524 296.327 384.338 295.392 383.968 294.629C383.601 293.867 383.103 293.29 382.474 292.899C381.849 292.507 381.15 292.311 380.375 292.311C379.6 292.311 378.898 292.507 378.269 292.899C377.644 293.29 377.147 293.867 376.776 294.629C376.409 295.392 376.226 296.327 376.226 297.435C376.226 298.543 376.409 299.478 376.776 300.24C377.147 301.003 377.644 301.579 378.269 301.971C378.898 302.363 379.6 302.558 380.375 302.558C381.15 302.558 381.849 302.363 382.474 301.971C383.103 301.579 383.601 301.003 383.968 300.24C384.338 299.478 384.524 298.543 384.524 297.435ZM398.926 295.036H397.376C397.285 294.59 397.124 294.198 396.895 293.861C396.67 293.523 396.395 293.24 396.07 293.011C395.75 292.778 395.394 292.603 395.002 292.486C394.61 292.37 394.202 292.311 393.777 292.311C393.003 292.311 392.301 292.507 391.672 292.899C391.047 293.29 390.549 293.867 390.178 294.629C389.812 295.392 389.628 296.327 389.628 297.435C389.628 298.543 389.812 299.478 390.178 300.24C390.549 301.003 391.047 301.579 391.672 301.971C392.301 302.363 393.003 302.558 393.777 302.558C394.202 302.558 394.61 302.5 395.002 302.383C395.394 302.267 395.75 302.094 396.07 301.865C396.395 301.632 396.67 301.346 396.895 301.009C397.124 300.667 397.285 300.276 397.376 299.834H398.926C398.809 300.488 398.597 301.073 398.289 301.59C397.98 302.106 397.597 302.546 397.139 302.908C396.681 303.267 396.166 303.539 395.596 303.727C395.029 303.914 394.423 304.008 393.777 304.008C392.686 304.008 391.715 303.741 390.866 303.208C390.016 302.675 389.347 301.917 388.86 300.934C388.373 299.951 388.129 298.784 388.129 297.435C388.129 296.085 388.373 294.919 388.86 293.936C389.347 292.953 390.016 292.195 390.866 291.661C391.715 291.128 392.686 290.862 393.777 290.862C394.423 290.862 395.029 290.955 395.596 291.143C396.166 291.33 396.681 291.605 397.139 291.968C397.597 292.326 397.98 292.763 398.289 293.28C398.597 293.792 398.809 294.377 398.926 295.036ZM401.43 303.833V291.037H402.979V297.385H403.129L408.878 291.037H410.902L405.529 296.81L410.902 303.833H409.028L404.579 297.885L402.979 299.684V303.833H401.43ZM412.908 303.833V291.037H420.631V292.411H414.457V296.735H420.231V298.11H414.457V302.458H420.731V303.833H412.908ZM423.424 303.833V291.037H427.747C428.747 291.037 429.568 291.207 430.209 291.549C430.851 291.886 431.325 292.351 431.634 292.942C431.942 293.534 432.096 294.207 432.096 294.961C432.096 295.714 431.942 296.383 431.634 296.966C431.325 297.549 430.853 298.008 430.215 298.341C429.578 298.67 428.764 298.834 427.772 298.834H424.273V297.435H427.722C428.405 297.435 428.955 297.335 429.372 297.135C429.793 296.935 430.097 296.652 430.284 296.285C430.476 295.914 430.572 295.473 430.572 294.961C430.572 294.448 430.476 294 430.284 293.617C430.093 293.234 429.786 292.938 429.366 292.73C428.945 292.517 428.389 292.411 427.697 292.411H424.973V303.833H423.424ZM429.447 298.085L432.596 303.833H430.796L427.697 298.085H429.447Z" fill="white"/>
</g>
<defs>
<filter id="filter0_d_286_2103" x="83" y="-4" width="560" height="560" filterUnits="userSpaceOnUse" color-interpolation-filters="sRGB">
<feFlood flood-opacity="0" result="BackgroundImageFix"/>
<feColorMatrix in="SourceAlpha" type="matrix" values="0 0 0 0 0 0 0 0 0 0 0 0 0 0 0 0 0 0 127 0" result="hardAlpha"/>
<feOffset/>
<feGaussianBlur stdDeviation="2"/>
<feComposite in2="hardAlpha" operator="out"/>
<feColorMatrix type="matrix" values="0 0 0 0 0 0 0 0 0 0 0 0 0 0 0 0 0 0 1 0"/>
<feBlend mode="normal" in2="BackgroundImageFix" result="effect1_dropShadow_286_2103"/>
<feBlend mode="normal" in="SourceGraphic" in2="effect1_dropShadow_286_2103" result="shape"/>
</filter>
<linearGradient id="paint0_linear_286_2103" x1="376.237" y1="137.08" x2="376.237" y2="414.429" gradientUnits="userSpaceOnUse">
<stop stop-color="#790000" stop-opacity="0.99"/>
<stop offset="1" stop-color="#FF7979"/>
</linearGradient>
<linearGradient id="paint1_linear_286_2103" x1="278.288" y1="49.6801" x2="278.288" y2="522.805" gradientUnits="userSpaceOnUse">
<stop stop-color="#C10000"/>
<stop offset="1" stop-color="#FF4141"/>
</linearGradient>
</defs>
</svg>



