<svg width="100" height="100" viewBox="0 0 100 100" fill="none" xmlns="http://www.w3.org/2000/svg">
<path d="M80.3765 26.8365C81.8175 57.6497 76.6058 70.0916 55.4405 78.8541C55.3002 78.9122 55.1348 78.9134 54.9934 78.8578C31.8917 69.771 30.1241 55.2353 30.3757 26.8422C30.3784 26.544 30.6067 26.2877 30.9029 26.2529C41.2576 25.0352 46.594 23.6811 54.9984 20.4838C55.1384 20.4305 55.2976 20.4323 55.4365 20.4885C64.965 24.3445 70.9892 25.462 79.8362 26.2674C80.1304 26.2942 80.3627 26.5415 80.3765 26.8365Z" stroke="#C10000" stroke-width="1.47778" stroke-linejoin="round"/>
<path d="M77.4508 30.4316C78.7096 56.8115 74.1061 67.4781 55.4658 74.9907C55.3285 75.046 55.1675 75.0471 55.0293 74.9942C34.6867 67.2035 33.1102 54.7469 33.3282 30.4383C33.3309 30.1394 33.5597 29.8832 33.8566 29.8492C42.9437 28.8069 47.6473 27.6451 55.0342 24.9128C55.1712 24.8622 55.3259 24.8639 55.4617 24.9174C63.8356 28.2115 69.1429 29.1732 76.9096 29.8634C77.2041 29.8896 77.4367 30.1364 77.4508 30.4316Z" fill="url(#paint0_linear_15_41)"/>
<path d="M55.4667 9C43.3644 13.7422 35.7662 15.7478 21.0318 17.5383C20.4651 17.6071 20.0316 18.0992 20.0268 18.6701C19.6801 59.9509 22.2471 76.9707 55.0003 90.2125C55.2916 90.3303 55.6305 90.3232 55.9146 90.1891C66.65 85.1192 73.9224 80.6296 79.5 74.1511" stroke="url(#paint1_linear_15_41)" stroke-width="8" stroke-linecap="round" stroke-linejoin="round"/>
<path d="M43.9654 50.4H39.7176C39.6619 50.4 39.6132 50.3791 39.5714 50.3373C39.5296 50.2955 39.5087 50.2468 39.5087 50.1911V45.1495C39.5087 45.0938 39.5296 45.045 39.5714 45.0033C39.6132 44.9615 39.6619 44.9406 39.7176 44.9406H43.7774C43.8331 44.9406 43.8818 44.9615 43.9236 45.0033C43.9654 45.045 43.9863 45.0938 43.9863 45.1495V46.1662C43.9863 46.2265 43.9654 46.2776 43.9236 46.3194C43.8818 46.3611 43.8331 46.382 43.7774 46.382H41.4376V46.9391H43.4362C43.4919 46.9391 43.5406 46.96 43.5824 47.0018C43.6242 47.0436 43.6451 47.0923 43.6451 47.148V48.1508C43.6451 48.2111 43.6242 48.2622 43.5824 48.304C43.5406 48.3458 43.4919 48.3666 43.4362 48.3666L41.4376 48.3736V48.9585H43.9654C44.0257 48.9585 44.0745 48.9794 44.1116 49.0212C44.1534 49.063 44.1743 49.1141 44.1743 49.1744V50.1911C44.1743 50.2468 44.1534 50.2955 44.1116 50.3373C44.0745 50.3791 44.0257 50.4 43.9654 50.4ZM49.4796 44.9406H51.1021C51.2042 44.9406 51.2738 44.9824 51.311 45.0659C51.3481 45.1448 51.3342 45.2214 51.2692 45.2957L49.3125 47.5449L51.3319 50.0588C51.3876 50.1331 51.3969 50.2097 51.3597 50.2886C51.3272 50.3629 51.2622 50.4 51.1648 50.4H49.403C49.3798 50.4 49.3473 50.3907 49.3055 50.3721C49.2684 50.3536 49.2428 50.335 49.2289 50.3164L47.9337 48.6939L46.5131 50.3234C46.5038 50.342 46.4806 50.3605 46.4435 50.3791C46.4063 50.393 46.3762 50.4 46.353 50.4H44.7096C44.6585 50.4 44.6144 50.3884 44.5773 50.3652C44.5448 50.342 44.5192 50.3141 44.5007 50.2816C44.4867 50.2445 44.4821 50.2073 44.4867 50.1702C44.4914 50.1284 44.5099 50.089 44.5424 50.0518L46.722 47.5449L44.6817 45.2957C44.6492 45.2586 44.6283 45.2191 44.619 45.1773C44.6144 45.1356 44.619 45.0984 44.633 45.0659C44.6515 45.0288 44.6771 44.9986 44.7096 44.9754C44.7467 44.9522 44.7908 44.9406 44.8419 44.9406H46.6733C46.6965 44.9406 46.7243 44.9499 46.7568 44.9684C46.794 44.9824 46.8172 44.9963 46.8265 45.0102L48.0938 46.389L49.3194 45.0102C49.3287 44.9963 49.3519 44.9824 49.3891 44.9684C49.4262 44.9499 49.4564 44.9406 49.4796 44.9406ZM54.3202 48.4572L53.6029 48.4502V50.1911C53.6029 50.2468 53.582 50.2955 53.5402 50.3373C53.4985 50.3791 53.4474 50.4 53.387 50.4H51.9108C51.8551 50.4 51.804 50.3791 51.7576 50.3373C51.7158 50.2955 51.6949 50.2468 51.6949 50.1911V45.1495C51.6949 45.0938 51.7158 45.045 51.7576 45.0033C51.7994 44.9615 51.8481 44.9406 51.9038 44.9406H53.9581C54.3991 44.9406 54.7867 44.9731 55.121 45.0381C55.4552 45.0984 55.7338 45.1982 55.9566 45.3375C56.1794 45.4768 56.3465 45.6578 56.458 45.8807C56.574 46.0989 56.632 46.3635 56.632 46.6745C56.632 47.2919 56.4371 47.7469 56.0471 48.0394C55.6572 48.3272 55.0815 48.4665 54.3202 48.4572ZM53.9998 46.1871L53.5959 46.2149V47.2037L53.9511 47.2177C54.5128 47.2409 54.7937 47.0714 54.7937 46.7093C54.7937 46.5329 54.724 46.3983 54.5848 46.3054C54.4455 46.2079 54.2505 46.1685 53.9998 46.1871ZM61.3946 50.4H57.1469C57.0912 50.4 57.0424 50.3791 57.0006 50.3373C56.9588 50.2955 56.938 50.2468 56.938 50.1911V45.1495C56.938 45.0938 56.9588 45.045 57.0006 45.0033C57.0424 44.9615 57.0912 44.9406 57.1469 44.9406H61.2066C61.2623 44.9406 61.3111 44.9615 61.3528 45.0033C61.3946 45.045 61.4155 45.0938 61.4155 45.1495V46.1662C61.4155 46.2265 61.3946 46.2776 61.3528 46.3194C61.3111 46.3611 61.2623 46.382 61.2066 46.382H58.8669V46.9391H60.8654C60.9211 46.9391 60.9698 46.96 61.0116 47.0018C61.0534 47.0436 61.0743 47.0923 61.0743 47.148V48.1508C61.0743 48.2111 61.0534 48.2622 61.0116 48.304C60.9698 48.3458 60.9211 48.3666 60.8654 48.3666L58.8669 48.3736V48.9585H61.3946C61.455 48.9585 61.5037 48.9794 61.5408 49.0212C61.5826 49.063 61.6035 49.1141 61.6035 49.1744V50.1911C61.6035 50.2468 61.5826 50.2955 61.5408 50.3373C61.5037 50.3791 61.455 50.4 61.3946 50.4ZM64.5551 48.4711H63.8797V50.1911C63.8797 50.2468 63.8588 50.2955 63.817 50.3373C63.7752 50.3791 63.7241 50.4 63.6638 50.4H62.1179C62.0622 50.4 62.0134 50.3791 61.9717 50.3373C61.9299 50.2955 61.909 50.2468 61.909 50.1911V45.1495C61.909 45.0938 61.9299 45.045 61.9717 45.0033C62.0134 44.9615 62.0622 44.9406 62.1179 44.9406H65.6136C66.2125 44.9406 66.6929 45.0729 67.055 45.3375C67.445 45.6253 67.64 46.0037 67.64 46.4726C67.64 47.0018 67.4798 47.3848 67.1595 47.6215C67.0806 47.6819 66.9877 47.7399 66.8809 47.7956C66.7788 47.8467 66.6651 47.8931 66.5397 47.9349C66.6883 48.0138 66.8136 48.0997 66.9158 48.1926C67.0225 48.2854 67.1107 48.3782 67.1804 48.4711L68.1344 50.0797C68.1808 50.1586 68.1831 50.2329 68.1413 50.3025C68.1042 50.3675 68.0415 50.4 67.9533 50.4H66.1846C66.1475 50.4 66.1103 50.3884 66.0732 50.3652C66.0407 50.342 66.0152 50.3141 65.9966 50.2816L65.1052 48.6243L65.1122 48.6382C65.0936 48.615 65.0728 48.5918 65.0495 48.5686C65.031 48.5454 65.0101 48.5268 64.9869 48.5129C64.9497 48.485 64.8058 48.4711 64.5551 48.4711ZM64.9242 46.1871H63.8379V47.2246H64.6735C65.0124 47.2246 65.2701 47.1852 65.4465 47.1062C65.6229 47.0273 65.7111 46.8857 65.7111 46.6815C65.7111 46.5097 65.6438 46.3844 65.5091 46.3054C65.3745 46.2265 65.1795 46.1871 64.9242 46.1871ZM71.3263 50.4H69.8013C69.7456 50.4 69.6968 50.3791 69.655 50.3373C69.6133 50.2955 69.5924 50.2468 69.5924 50.1911V46.3124H68.1509C68.0906 46.3124 68.0395 46.2915 67.9977 46.2497C67.9606 46.2079 67.942 46.1569 67.942 46.0965V45.1495C67.942 45.0938 67.9606 45.045 67.9977 45.0033C68.0395 44.9615 68.0906 44.9406 68.1509 44.9406H72.9697C73.03 44.9406 73.0811 44.9615 73.1229 45.0033C73.1647 45.045 73.1856 45.0938 73.1856 45.1495V46.0965C73.1856 46.1569 73.1647 46.2079 73.1229 46.2497C73.0811 46.2915 73.03 46.3124 72.9697 46.3124H71.5352V50.1911C71.5352 50.2468 71.5143 50.2955 71.4725 50.3373C71.4354 50.3791 71.3866 50.4 71.3263 50.4Z" fill="white"/>
<path d="M47.1688 54.9625H46.8745L47.7257 52.6443H48.0155L48.8667 54.9625H48.5724L47.8797 53.0111H47.8616L47.1688 54.9625ZM47.2775 54.057H48.4638V54.306H47.2775V54.057ZM49.9432 54.9625H49.2278V52.6443H49.9749C50.1997 52.6443 50.3922 52.6907 50.5522 52.7835C50.7121 52.8756 50.8348 53.008 50.92 53.1808C51.0053 53.3529 51.0479 53.5589 51.0479 53.7989C51.0479 54.0404 51.0049 54.2482 50.9189 54.4226C50.8329 54.5961 50.7076 54.7297 50.5431 54.8233C50.3786 54.9161 50.1786 54.9625 49.9432 54.9625ZM49.5085 54.7135H49.9251C50.1167 54.7135 50.2756 54.6765 50.4016 54.6025C50.5276 54.5286 50.6216 54.4233 50.6835 54.2867C50.7453 54.1501 50.7763 53.9875 50.7763 53.7989C50.7763 53.6117 50.7457 53.4506 50.6846 53.3155C50.6235 53.1797 50.5322 53.0756 50.4107 53.0031C50.2892 52.9299 50.1379 52.8933 49.9568 52.8933H49.5085V54.7135ZM51.5188 54.9625V52.6443H52.3293C52.4908 52.6443 52.624 52.6722 52.7288 52.7281C52.8337 52.7832 52.9118 52.8575 52.9632 52.9511C53.0145 53.0439 53.0401 53.1469 53.0401 53.2601C53.0401 53.3597 53.0224 53.4419 52.9869 53.5068C52.9522 53.5717 52.9062 53.623 52.8488 53.6608C52.7922 53.6985 52.7307 53.7264 52.6643 53.7445V53.7672C52.7353 53.7717 52.8066 53.7966 52.8783 53.8419C52.9499 53.8872 53.0099 53.9521 53.0582 54.0366C53.1065 54.1211 53.1307 54.2245 53.1307 54.3467C53.1307 54.4629 53.1043 54.5675 53.0514 54.6603C52.9986 54.7531 52.9152 54.8267 52.8013 54.881C52.6873 54.9353 52.5391 54.9625 52.3564 54.9625H51.5188ZM51.7995 54.7135H52.3564C52.5398 54.7135 52.67 54.678 52.747 54.6071C52.8247 54.5354 52.8635 54.4486 52.8635 54.3467C52.8635 54.2682 52.8435 54.1958 52.8036 54.1294C52.7636 54.0622 52.7066 54.0087 52.6326 53.9687C52.5587 53.9279 52.4711 53.9075 52.37 53.9075H51.7995V54.7135ZM51.7995 53.663H52.3202C52.4047 53.663 52.481 53.6464 52.5489 53.6132C52.6175 53.58 52.6719 53.5333 52.7119 53.4729C52.7526 53.4125 52.773 53.3416 52.773 53.2601C52.773 53.1582 52.7375 53.0718 52.6666 53.0009C52.5957 52.9292 52.4832 52.8933 52.3293 52.8933H51.7995V53.663ZM53.5919 54.9625V52.6443H53.8727V54.7135H54.9502V54.9625H53.5919ZM57.2506 53.8034C57.2506 54.0479 57.2065 54.2592 57.1182 54.4373C57.0299 54.6154 56.9088 54.7527 56.7548 54.8493C56.6009 54.9459 56.425 54.9942 56.2273 54.9942C56.0296 54.9942 55.8538 54.9459 55.6999 54.8493C55.5459 54.7527 55.4248 54.6154 55.3365 54.4373C55.2482 54.2592 55.2041 54.0479 55.2041 53.8034C55.2041 53.5589 55.2482 53.3476 55.3365 53.1695C55.4248 52.9914 55.5459 52.8541 55.6999 52.7575C55.8538 52.6609 56.0296 52.6126 56.2273 52.6126C56.425 52.6126 56.6009 52.6609 56.7548 52.7575C56.9088 52.8541 57.0299 52.9914 57.1182 53.1695C57.2065 53.3476 57.2506 53.5589 57.2506 53.8034ZM56.9789 53.8034C56.9789 53.6027 56.9454 53.4333 56.8782 53.2952C56.8118 53.1571 56.7216 53.0526 56.6077 52.9816C56.4945 52.9107 56.3677 52.8752 56.2273 52.8752C56.087 52.8752 55.9598 52.9107 55.8459 52.9816C55.7327 53.0526 55.6425 53.1571 55.5754 53.2952C55.5089 53.4333 55.4757 53.6027 55.4757 53.8034C55.4757 54.0041 55.5089 54.1735 55.5754 54.3116C55.6425 54.4497 55.7327 54.5542 55.8459 54.6252C55.9598 54.6961 56.087 54.7316 56.2273 54.7316C56.3677 54.7316 56.4945 54.6961 56.6077 54.6252C56.7216 54.5542 56.8118 54.4497 56.8782 54.3116C56.9454 54.1735 56.9789 54.0041 56.9789 53.8034ZM59.588 53.3687H59.3073C59.2907 53.288 59.2617 53.2171 59.2201 53.1559C59.1794 53.0948 59.1296 53.0435 59.0707 53.002C59.0126 52.9597 58.9481 52.928 58.8772 52.9069C58.8062 52.8858 58.7323 52.8752 58.6553 52.8752C58.515 52.8752 58.3878 52.9107 58.2739 52.9816C58.1607 53.0526 58.0705 53.1571 58.0033 53.2952C57.9369 53.4333 57.9037 53.6027 57.9037 53.8034C57.9037 54.0041 57.9369 54.1735 58.0033 54.3116C58.0705 54.4497 58.1607 54.5542 58.2739 54.6252C58.3878 54.6961 58.515 54.7316 58.6553 54.7316C58.7323 54.7316 58.8062 54.721 58.8772 54.6999C58.9481 54.6788 59.0126 54.6474 59.0707 54.6059C59.1296 54.5637 59.1794 54.512 59.2201 54.4509C59.2617 54.389 59.2907 54.3181 59.3073 54.2381H59.588C59.5669 54.3565 59.5284 54.4626 59.4726 54.5561C59.4167 54.6497 59.3473 54.7293 59.2643 54.795C59.1813 54.8599 59.0881 54.9093 58.9847 54.9433C58.8821 54.9772 58.7723 54.9942 58.6553 54.9942C58.4576 54.9942 58.2818 54.9459 58.1278 54.8493C57.9739 54.7527 57.8528 54.6154 57.7645 54.4373C57.6762 54.2592 57.6321 54.0479 57.6321 53.8034C57.6321 53.5589 57.6762 53.3476 57.7645 53.1695C57.8528 52.9914 57.9739 52.8541 58.1278 52.7575C58.2818 52.6609 58.4576 52.6126 58.6553 52.6126C58.7723 52.6126 58.8821 52.6296 58.9847 52.6636C59.0881 52.6975 59.1813 52.7473 59.2643 52.813C59.3473 52.8779 59.4167 52.9571 59.4726 53.0507C59.5284 53.1435 59.5669 53.2495 59.588 53.3687ZM60.0416 54.9625V52.6443H60.3224V53.7943H60.3495L61.3909 52.6443H61.7576L60.7842 53.6902L61.7576 54.9625H61.4181L60.6121 53.8849L60.3224 54.2109V54.9625H60.0416ZM62.121 54.9625V52.6443H63.52V52.8933H62.4017V53.6766H63.4476V53.9257H62.4017V54.7135H63.5382V54.9625H62.121ZM64.026 54.9625V52.6443H64.8093C64.9904 52.6443 65.1391 52.6753 65.2553 52.7371C65.3715 52.7983 65.4575 52.8824 65.5134 52.9895C65.5692 53.0967 65.5971 53.2186 65.5971 53.3552C65.5971 53.4917 65.5692 53.6129 65.5134 53.7185C65.4575 53.8242 65.3719 53.9072 65.2564 53.9675C65.141 54.0271 64.9934 54.057 64.8138 54.057H64.18V53.8034H64.8048C64.9285 53.8034 65.0281 53.7853 65.1036 53.7491C65.1798 53.7128 65.2349 53.6615 65.2689 53.5951C65.3036 53.528 65.3209 53.448 65.3209 53.3552C65.3209 53.2623 65.3036 53.1812 65.2689 53.1118C65.2342 53.0424 65.1787 52.9888 65.1025 52.9511C65.0263 52.9126 64.9255 52.8933 64.8003 52.8933H64.3067V54.9625H64.026ZM65.1172 53.9211L65.6877 54.9625H65.3617L64.8003 53.9211H65.1172Z" fill="white"/>
<defs>
<linearGradient id="paint0_linear_15_41" x1="55.4777" y1="24.8333" x2="55.4777" y2="75.0778" gradientUnits="userSpaceOnUse">
<stop stop-color="#790000" stop-opacity="0.99"/>
<stop offset="1" stop-color="#FF7979"/>
</linearGradient>
<linearGradient id="paint1_linear_15_41" x1="37.7333" y1="9" x2="37.7333" y2="94.7111" gradientUnits="userSpaceOnUse">
<stop stop-color="#C10000"/>
<stop offset="1" stop-color="#FF4141"/>
</linearGradient>
</defs>
</svg>
