<svg width="440" height="440" viewBox="0 0 440 440" fill="none" xmlns="http://www.w3.org/2000/svg">
<g clip-path="url(#clip0_276_1303)">
<circle cx="220" cy="220" r="217.197" stroke="url(#paint0_linear_276_1303)" stroke-width="5.6051"/>
<path fill-rule="evenodd" clip-rule="evenodd" d="M219.179 78.6309C216.018 78.6309 213.455 81.1935 213.455 84.3547V105.222C202.415 107.49 191.82 111.677 182.166 117.626L164.963 100.423C162.727 98.1875 159.103 98.1875 156.868 100.423L136.226 121.064C133.991 123.3 133.991 126.924 136.226 129.159L152.814 145.747C146.652 154.85 142.042 165.001 139.255 175.796C138.85 177.363 138.486 178.937 138.161 180.516H119.013C115.852 180.516 113.289 183.079 113.289 186.24V215.432C113.289 218.593 115.852 221.156 119.013 221.156H138.53C139.865 227.106 141.767 232.949 144.229 238.601L144.197 238.614C146.072 242.778 147.291 245.021 149.635 248.917L163.417 231.188L163.48 231.16C156.4 215.392 154.896 197.685 159.217 180.95C163.538 164.215 173.425 149.448 187.254 139.079C201.082 128.71 218.027 123.357 235.303 123.898C252.578 124.44 269.155 130.845 282.307 142.06C295.458 153.275 304.401 168.632 307.665 185.605C310.928 202.578 308.318 220.157 300.263 235.449C292.209 250.742 279.19 262.837 263.347 269.747C247.504 276.657 229.782 277.969 213.094 273.468L213.034 273.691L199.432 289.843C202.325 291.626 204.554 292.612 208.304 293.563L208.313 293.53C210.019 293.979 211.734 294.38 213.455 294.733V313.31C213.455 316.471 216.018 319.034 219.179 319.034H248.371C251.532 319.034 254.095 316.471 254.095 313.31V294.365C260.06 293.026 265.919 291.117 271.589 288.645C276.931 286.315 282.02 283.521 286.805 280.311L300.537 294.043C302.772 296.278 306.396 296.278 308.632 294.043L329.273 273.401C331.509 271.166 331.509 267.542 329.273 265.306L315.049 251.082C316.27 249.121 317.422 247.112 318.505 245.057C322.506 237.46 325.45 229.42 327.304 221.156H347.396C350.558 221.156 353.12 218.593 353.12 215.432V186.24C353.12 183.079 350.558 180.516 347.396 180.516H327.673C325.282 168.875 320.784 157.854 314.476 147.963L329.845 132.594C332.081 130.358 332.081 126.734 329.845 124.499L309.204 103.857C306.968 101.622 303.344 101.622 301.109 103.857L285.913 119.053C276.188 112.684 265.406 108.129 254.095 105.591V84.3547C254.095 81.1935 251.532 78.6309 248.371 78.6309H219.179Z" fill="url(#paint1_linear_276_1303)"/>
<path fill-rule="evenodd" clip-rule="evenodd" d="M225.09 190.55C224.324 189.99 224.158 188.916 224.718 188.15L255.001 146.773C255.451 146.158 255.185 145.283 254.462 145.041C247.544 142.734 240.061 141.739 232.333 142.332C201.287 144.711 178.047 171.809 180.427 202.856C180.97 209.943 182.802 216.624 185.674 222.686C185.38 222.998 185.093 223.321 184.814 223.655L97.5943 327.861C89.8242 337.144 91.051 350.969 100.334 358.739C109.617 366.509 123.442 365.282 131.212 355.999L218.349 251.892C225.398 254.313 233.047 255.368 240.951 254.762C271.998 252.382 295.237 225.285 292.858 194.238C291.961 182.537 287.553 171.944 280.745 163.415C280.283 162.835 279.399 162.865 278.96 163.464L248.275 205.391C247.715 206.156 246.64 206.323 245.875 205.763L225.09 190.55ZM123.021 341.929C123.021 346.355 119.433 349.943 115.008 349.943C110.582 349.943 106.994 346.355 106.994 341.929C106.994 337.504 110.582 333.916 115.008 333.916C119.433 333.916 123.021 337.504 123.021 341.929Z" fill="url(#paint2_linear_276_1303)"/>
</g>
<defs>
<linearGradient id="paint0_linear_276_1303" x1="220" y1="0" x2="220" y2="440" gradientUnits="userSpaceOnUse">
<stop stop-color="#142C38"/>
<stop offset="1" stop-color="#336781"/>
</linearGradient>
<linearGradient id="paint1_linear_276_1303" x1="233.205" y1="78.6309" x2="233.205" y2="319.034" gradientUnits="userSpaceOnUse">
<stop stop-color="#142C38"/>
<stop offset="1" stop-color="#336781"/>
</linearGradient>
<linearGradient id="paint2_linear_276_1303" x1="192.755" y1="142.164" x2="192.755" y2="363.85" gradientUnits="userSpaceOnUse">
<stop stop-color="#142C38"/>
<stop offset="1" stop-color="#336781"/>
</linearGradient>
<clipPath id="clip0_276_1303">
<rect width="440" height="440" fill="white"/>
</clipPath>
</defs>
</svg>
