<svg width="440" height="440" viewBox="0 0 440 440" fill="none" xmlns="http://www.w3.org/2000/svg">
<g clip-path="url(#clip0_274_989)">
<circle cx="220" cy="220" r="217.197" stroke="url(#paint0_linear_274_989)" stroke-width="5.6051"/>
<path d="M221.7 275.486C284.018 240.403 304.403 173.018 300.833 106.295C268.309 102.532 248.833 96.1169 221.7 81.2739C193.15 97.0181 175.593 102.297 141.972 106.295C144.829 198.977 161.161 236.837 221.7 275.486Z" stroke="url(#paint1_linear_274_989)" stroke-width="11.2102"/>
<path d="M221.679 252.18C270.318 224.465 286.228 171.231 283.442 118.52C258.057 115.547 242.856 110.479 221.679 98.7529C199.396 111.191 185.693 115.361 159.452 118.52C161.682 191.739 174.43 221.648 221.679 252.18Z" fill="url(#paint2_linear_274_989)" stroke="url(#paint3_linear_274_989)" stroke-width="2.80255"/>
<path d="M176.906 264.641C173.261 259.789 166.351 258.792 161.504 262.439C156.656 266.086 155.659 273.001 159.303 277.853L172.402 295.331C174.052 297.533 173.811 300.595 171.886 302.522L167.486 306.926C165.182 309.231 161.435 309.059 159.372 306.548L128.499 269.458V218.399C128.499 212.309 123.583 207.389 117.498 207.389C111.412 207.389 106.496 212.309 106.496 218.399V293.542C106.496 297.292 107.768 300.939 110.106 303.864L145.895 350.072C147.614 352.308 148.783 354.854 149.471 357.538C150.089 359.912 152.255 361.529 154.731 361.529H200.009C203.034 361.529 205.51 359.052 205.51 356.024V317.489C205.51 307.958 202.415 298.703 196.708 291.065L176.906 264.641ZM325.304 207.389C319.218 207.389 314.302 212.309 314.302 218.399V269.458L283.429 306.548C281.366 309.025 277.585 309.197 275.315 306.926L270.915 302.522C268.99 300.595 268.749 297.533 270.399 295.331L283.498 277.853C287.142 273.001 286.145 266.086 281.298 262.439C276.45 258.792 269.54 259.789 265.895 264.641L246.093 291.065C240.386 298.703 237.292 307.958 237.292 317.489V356.024C237.292 359.052 239.767 361.529 242.792 361.529H288.07C290.511 361.529 292.712 359.912 293.33 357.538C294.018 354.854 295.187 352.308 296.906 350.072L332.695 303.864C335.033 300.939 336.305 297.292 336.305 293.542V218.399C336.305 212.309 331.389 207.389 325.304 207.389Z" fill="url(#paint4_linear_274_989)"/>
</g>
<defs>
<linearGradient id="paint0_linear_274_989" x1="220" y1="0" x2="220" y2="440" gradientUnits="userSpaceOnUse">
<stop stop-color="#142C38"/>
<stop offset="1" stop-color="#336781"/>
</linearGradient>
<linearGradient id="paint1_linear_274_989" x1="221.598" y1="81.2739" x2="221.598" y2="275.486" gradientUnits="userSpaceOnUse">
<stop stop-color="#142C38"/>
<stop offset="1" stop-color="#336781"/>
</linearGradient>
<linearGradient id="paint2_linear_274_989" x1="221.6" y1="98.7529" x2="221.6" y2="252.18" gradientUnits="userSpaceOnUse">
<stop stop-color="#142C38"/>
<stop offset="1" stop-color="#336781"/>
</linearGradient>
<linearGradient id="paint3_linear_274_989" x1="221.6" y1="98.7529" x2="221.6" y2="252.18" gradientUnits="userSpaceOnUse">
<stop stop-color="#142C38"/>
<stop offset="1" stop-color="#336781"/>
</linearGradient>
<linearGradient id="paint4_linear_274_989" x1="221.401" y1="207.389" x2="221.401" y2="361.529" gradientUnits="userSpaceOnUse">
<stop stop-color="#142C38"/>
<stop offset="1" stop-color="#336781"/>
</linearGradient>
<clipPath id="clip0_274_989">
<rect width="440" height="440" fill="white"/>
</clipPath>
</defs>
</svg>
