<svg width="440" height="440" viewBox="0 0 440 440" fill="none" xmlns="http://www.w3.org/2000/svg">
<g clip-path="url(#clip0_276_1238)">
<circle cx="220" cy="220" r="217.197" stroke="url(#paint0_linear_276_1238)" stroke-width="5.6051"/>
<path d="M80.1572 268.888H108.038V324.653H80.1572V268.888ZM316.482 315.603L272.337 334.399L199.812 352.533L126.625 324.653V268.891H149.911L159.205 268.888C159.205 268.888 163.612 268.883 166.053 268.891H224.208C227.905 268.891 231.451 270.36 234.065 272.974C236.68 275.588 238.148 279.134 238.148 282.831C238.148 286.529 236.68 290.074 234.065 292.689C231.451 295.303 227.905 296.772 224.208 296.772H191.68C189.216 296.772 186.852 297.751 185.109 299.494C183.366 301.237 182.387 303.601 182.387 306.065C182.387 308.53 183.366 310.894 185.109 312.637C186.852 314.38 189.216 315.359 191.68 315.359H228.855C229.554 315.357 230.252 315.279 230.934 315.127L308.768 297.225L309.128 297.132C311.504 296.472 314.04 296.715 316.248 297.812C318.456 298.91 320.181 300.786 321.089 303.078C321.997 305.371 322.026 307.918 321.169 310.23C320.312 312.543 318.63 314.456 316.447 315.603H316.482Z" fill="url(#paint1_linear_276_1238)"/>
<path fill-rule="evenodd" clip-rule="evenodd" d="M350.262 181.125C350.262 182.304 350.64 183.455 351.375 184.375L362.782 198.665C363.445 199.492 363.904 200.463 364.123 201.5C364.342 202.536 364.314 203.61 364.042 204.634C361.972 212.404 358.882 219.866 354.852 226.825C354.325 227.737 353.591 228.513 352.711 229.092C351.83 229.67 350.826 230.034 349.78 230.156L331.45 232.314C330.304 232.449 329.255 232.978 328.439 233.794C327.617 234.617 327.07 235.694 326.941 236.85L324.909 255.112C324.788 256.158 324.424 257.161 323.848 258.041C323.271 258.922 322.497 259.656 321.586 260.184C314.63 264.221 307.167 267.314 299.395 269.382C298.371 269.656 297.298 269.685 296.262 269.467C295.225 269.25 294.254 268.792 293.426 268.131L279.096 256.66C278.174 255.923 277.021 255.543 275.84 255.543C274.662 255.543 273.511 255.921 272.59 256.656L258.3 268.063C257.474 268.726 256.503 269.186 255.466 269.404C254.43 269.623 253.356 269.595 252.332 269.323C244.562 267.253 237.099 264.163 230.141 260.134C229.229 259.606 228.453 258.873 227.874 257.992C227.296 257.111 226.931 256.108 226.81 255.061L224.675 236.733C224.541 235.586 224.017 234.536 223.2 233.72C222.378 232.898 221.299 232.351 220.143 232.223L201.879 230.19C200.833 230.069 199.83 229.706 198.95 229.129C198.069 228.552 197.335 227.778 196.807 226.868C192.773 219.91 189.68 212.447 187.609 204.676C187.336 203.653 187.306 202.58 187.524 201.543C187.741 200.506 188.199 199.535 188.86 198.708L200.308 184.377C201.046 183.453 201.448 182.306 201.448 181.123C201.448 179.941 201.046 178.795 200.309 177.871L188.902 163.582C188.24 162.755 187.78 161.784 187.562 160.748C187.343 159.711 187.371 158.637 187.643 157.613C189.713 149.843 192.803 142.381 196.832 135.422C197.36 134.51 198.093 133.734 198.974 133.156C199.855 132.577 200.858 132.213 201.905 132.091L220.23 129.987C221.379 129.855 222.43 129.331 223.248 128.514C224.069 127.693 224.614 126.615 224.743 125.46L226.776 107.161C226.897 106.115 227.26 105.112 227.837 104.231C228.414 103.351 229.188 102.617 230.098 102.088C237.056 98.0548 244.518 94.9619 252.29 92.8904C253.313 92.617 254.386 92.5878 255.423 92.8051C256.46 93.0225 257.431 93.4802 258.258 94.1416L272.589 105.589C273.513 106.327 274.66 106.729 275.843 106.729C277.025 106.729 278.171 106.328 279.095 105.591L293.384 94.1839C294.211 93.5225 295.183 93.0647 296.219 92.8474C297.256 92.6301 298.329 92.6593 299.353 92.9327C307.124 94.9959 314.586 98.0832 321.544 102.114C322.456 102.641 323.232 103.375 323.81 104.255C324.388 105.136 324.753 106.139 324.875 107.186L327.033 125.516C327.168 126.662 327.697 127.711 328.513 128.526C329.336 129.349 330.412 129.896 331.568 130.025L349.831 132.057C350.876 132.178 351.879 132.541 352.76 133.118C353.641 133.695 354.374 134.469 354.903 135.38C358.936 142.338 362.029 149.8 364.101 157.571C364.374 158.594 364.403 159.668 364.186 160.704C363.969 161.741 363.511 162.712 362.85 163.54L351.379 177.87C350.641 178.792 350.262 179.945 350.262 181.125ZM277.411 236.013C306.859 236.013 330.731 212.14 330.731 182.692C330.731 153.244 306.859 129.371 277.411 129.371C247.962 129.371 224.09 153.244 224.09 182.692C224.09 212.14 247.962 236.013 277.411 236.013Z" fill="url(#paint2_linear_276_1238)"/>
</g>
<defs>
<linearGradient id="paint0_linear_276_1238" x1="220" y1="0" x2="220" y2="440" gradientUnits="userSpaceOnUse">
<stop stop-color="#142C38"/>
<stop offset="1" stop-color="#336781"/>
</linearGradient>
<linearGradient id="paint1_linear_276_1238" x1="200.974" y1="268.888" x2="200.974" y2="352.533" gradientUnits="userSpaceOnUse">
<stop stop-color="#142C38"/>
<stop offset="1" stop-color="#336781"/>
</linearGradient>
<linearGradient id="paint2_linear_276_1238" x1="275.855" y1="92.6613" x2="275.855" y2="269.611" gradientUnits="userSpaceOnUse">
<stop stop-color="#142C38"/>
<stop offset="1" stop-color="#336781"/>
</linearGradient>
<clipPath id="clip0_276_1238">
<rect width="440" height="440" fill="white"/>
</clipPath>
</defs>
</svg>
