<svg width="440" height="440" viewBox="0 0 440 440" fill="none"  xmlns="http://www.w3.org/2000/svg">
<circle cx="220" cy="220" r="217.197" stroke="url(#paint0_linear_64_483)" stroke-width="5.6051"/>
<path fill-rule="evenodd" clip-rule="evenodd" d="M204.586 81.2735C168.987 81.2735 140.127 110.133 140.127 145.732V182.303C125.965 183.709 114.905 195.658 114.905 210.19V333.502C114.905 348.98 127.452 361.528 142.93 361.528H297.07C312.548 361.528 325.096 348.981 325.096 333.502V210.19C325.096 195.658 314.035 183.709 299.873 182.303V145.732C299.873 110.133 271.014 81.2735 235.414 81.2735H204.586ZM277.452 182.165V145.732C277.452 122.515 258.631 103.694 235.414 103.694H204.586C181.369 103.694 162.548 122.515 162.548 145.732V182.165H277.452ZM241.019 330.001C241.019 293.566 292.866 293.566 292.866 330.001H241.019ZM285.86 280.254C285.86 291.089 277.077 299.872 266.242 299.872C255.407 299.872 246.624 291.089 246.624 280.254C246.624 269.42 255.407 260.637 266.242 260.637C277.077 260.637 285.86 269.42 285.86 280.254ZM148.535 330.7C148.535 253.63 232.612 253.629 232.612 330.7L148.535 330.7ZM218.599 241.018C218.599 256.496 206.051 269.043 190.573 269.043C175.095 269.043 162.548 256.496 162.548 241.018C162.548 225.54 175.095 212.992 190.573 212.992C206.051 212.992 218.599 225.54 218.599 241.018Z" fill="url(#paint1_linear_64_483)"/>
<defs>
<linearGradient id="paint0_linear_64_483" x1="220" y1="0" x2="220" y2="440" gradientUnits="userSpaceOnUse">
<stop stop-color="#F92B46"/>
<stop offset="1" stop-color="#903330"/>
</linearGradient>
<linearGradient id="paint1_linear_64_483" x1="220" y1="81.2735" x2="220" y2="361.528" gradientUnits="userSpaceOnUse">
<stop stop-color="#F92B46"/>
<stop offset="1" stop-color="#903330"/>
</linearGradient>
</defs>
</svg>
