<svg width="440" height="440" viewBox="0 0 440 440" fill="none" xmlns="http://www.w3.org/2000/svg">
<g clip-path="url(#clip0_64_413)">
<circle cx="220" cy="220" r="217.197" stroke="url(#paint0_linear_64_413)" strokeWidth="5.6051"/>
<path d="M119.07 325.638C137.68 314.007 210.956 258.178 210.956 258.178C200.488 248.873 196.999 241.894 196.999 225.611C196.999 225.611 107.439 298.887 100.46 305.866C93.4812 312.844 100.46 337.27 119.07 325.638Z" fill="url(#paint1_linear_64_413)"/>
<circle cx="357.508" cy="146.518" r="27.9148" fill="url(#paint2_linear_64_413)"/>
<path d="M343.551 208.164C343.551 208.164 367.977 209.327 381.934 209.327C395.891 209.327 394.728 231.427 381.934 231.427C369.14 231.427 344.714 232.59 337.736 232.59C330.757 232.59 324.941 231.427 322.615 226.774C320.289 222.122 308.658 200.023 308.658 200.023L265.623 231.427C265.623 231.427 295.863 273.299 301.679 280.277C307.495 287.256 302.842 303.54 293.537 305.866C284.232 308.192 226.077 319.823 210.956 323.313C195.835 326.802 184.204 301.214 205.141 295.398C226.077 289.582 256.318 280.277 256.318 280.277C256.318 280.277 227.24 246.547 219.098 236.079C210.956 225.611 210.956 212.817 217.935 205.838C224.914 198.859 276.091 150.009 276.091 150.009L264.459 133.725C264.459 133.725 227.24 133.726 215.609 131.399C203.977 129.072 202.814 110.462 215.609 110.463C228.403 110.463 276.091 109.3 276.091 109.3L329.594 173.271L343.551 208.164Z" fill="url(#paint3_linear_64_413)"/>
<path d="M137.679 161.639C145.821 160.476 195.835 159.312 207.466 159.313C219.097 159.314 217.934 179.086 207.466 179.086C196.998 179.086 144.658 176.759 137.679 175.597C130.701 174.434 129.537 162.803 137.679 161.639Z" fill="url(#paint4_linear_64_413)"/>
<path d="M95.6699 202.349C103.812 201.185 153.826 200.022 165.457 200.022C177.088 200.023 175.925 219.795 165.457 219.795C154.989 219.795 102.648 217.469 95.6699 216.306C88.6913 215.144 87.5278 203.512 95.6699 202.349Z" fill="url(#paint5_linear_64_413)"/>
<path d="M56.1243 244.22C64.2664 243.056 114.28 241.893 125.911 241.894C137.542 241.894 136.379 261.667 125.911 261.667C115.443 261.667 63.1028 259.34 56.1243 258.177C49.1458 257.015 47.9822 245.383 56.1243 244.22Z" fill="url(#paint6_linear_64_413)"/>
</g>
<defs>
<linearGradient id="paint0_linear_64_413" x1="220" y1="0" x2="220" y2="440" gradientUnits="userSpaceOnUse">
<stop stopColor="#F92B46"/>
<stop offset="1" stopColor="#903330"/>
</linearGradient>
<linearGradient id="paint1_linear_64_413" x1="154.381" y1="225.611" x2="154.381" y2="328.731" gradientUnits="userSpaceOnUse">
<stop stopColor="#F92B46"/>
<stop offset="1" stopColor="#903330"/>
</linearGradient>
<linearGradient id="paint2_linear_64_413" x1="357.508" y1="118.604" x2="357.508" y2="174.433" gradientUnits="userSpaceOnUse">
<stop stopColor="#F92B46"/>
<stop offset="1" stopColor="#903330"/>
</linearGradient>
<linearGradient id="paint3_linear_64_413" x1="292.876" y1="109.3" x2="292.876" y2="323.638" gradientUnits="userSpaceOnUse">
<stop stopColor="#F92B46"/>
<stop offset="1" stopColor="#903330"/>
</linearGradient>
<linearGradient id="paint4_linear_64_413" x1="173.88" y1="159.313" x2="173.88" y2="179.086" gradientUnits="userSpaceOnUse">
<stop stopColor="#F92B46"/>
<stop offset="1" stopColor="#903330"/>
</linearGradient>
<linearGradient id="paint5_linear_64_413" x1="131.871" y1="200.022" x2="131.871" y2="219.795" gradientUnits="userSpaceOnUse">
<stop stopColor="#F92B46"/>
<stop offset="1" stopColor="#903330"/>
</linearGradient>
<linearGradient id="paint6_linear_64_413" x1="92.325" y1="241.894" x2="92.325" y2="261.667" gradientUnits="userSpaceOnUse">
<stop stopColor="#F92B46"/>
<stop offset="1" stopColor="#903330"/>
</linearGradient>
<clipPath id="clip0_64_413">
<rect width="440" height="440" fill="white"/>
</clipPath>
</defs>
</svg>
