<svg width="440" height="440" viewBox="0 0 440 440" fill="none" xmlns="http://www.w3.org/2000/svg">
<g clip-path="url(#clip0_64_361)">
<circle cx="220" cy="220" r="217.197" stroke="url(#paint0_linear_64_361)" stroke-width="5.6051"/>
<path fill-rule="evenodd" clip-rule="evenodd" d="M335.243 117.38C340.395 213.664 310.979 310.904 221.051 361.529C133.692 305.758 110.123 251.125 106 117.38C154.517 111.611 179.852 103.993 221.051 81.274C260.205 102.693 288.31 111.951 335.243 117.38ZM215.113 263.085L277.813 200.39C278.543 199.663 279.122 198.798 279.517 197.847C279.911 196.895 280.113 195.875 280.112 194.845C280.111 193.814 279.906 192.795 279.509 191.844C279.112 190.893 278.53 190.031 277.799 189.306L266.08 177.802C264.616 176.344 262.634 175.525 260.567 175.525C258.501 175.525 256.519 176.344 255.055 177.802L209.776 222.416L209.723 222.362L191.832 205.141C190.364 203.688 188.381 202.876 186.316 202.881C184.25 202.886 182.272 203.709 180.811 205.17L169.093 216.889C167.63 218.353 166.809 220.339 166.809 222.409C166.809 224.479 167.63 226.464 169.093 227.929L204.063 263.085C204.789 263.811 205.65 264.386 206.598 264.779C207.546 265.172 208.562 265.374 209.588 265.374C210.614 265.374 211.63 265.172 212.578 264.779C213.526 264.386 214.388 263.811 215.113 263.085Z" fill="url(#paint1_linear_64_361)"/>
</g>
<defs>
<linearGradient id="paint0_linear_64_361" x1="220" y1="0" x2="220" y2="440" gradientUnits="userSpaceOnUse">
<stop stop-color="#F92B46"/>
<stop offset="1" stop-color="#903330"/>
</linearGradient>
<linearGradient id="paint1_linear_64_361" x1="220.904" y1="81.274" x2="220.904" y2="361.529" gradientUnits="userSpaceOnUse">
<stop stop-color="#F92B46"/>
<stop offset="1" stop-color="#903330"/>
</linearGradient>
<clipPath id="clip0_64_361">
<rect width="440" height="440" fill="white"/>
</clipPath>
</defs>
</svg>
