<svg width="440" height="440" viewBox="0 0 440 440" fill="none" xmlns="http://www.w3.org/2000/svg">
<g clip-path="url(#clip0_336_3982)">
<circle cx="220" cy="220" r="217.197" stroke="url(#paint0_linear_336_3982)" stroke-width="5.6051"/>
<path fill-rule="evenodd" clip-rule="evenodd" d="M335.74 117.38C340.891 213.664 311.475 310.904 221.547 361.529C134.188 305.758 110.619 251.124 106.496 117.38C155.013 111.611 180.348 103.993 221.547 81.2739C260.701 102.693 288.806 111.951 335.74 117.38ZM229.753 147.488C229.495 147.241 229.192 147.043 228.834 146.794C227.063 145.462 222.536 145.367 219.977 146.603C218.993 147.079 218.009 147.935 217.714 148.506C217.32 149.172 217.123 155.64 216.927 176.566L216.73 203.771L215.647 204.627C214.27 205.673 213.482 205.673 212.203 204.342L211.022 203.295V181.417V181.417C211.022 160.491 211.022 159.445 210.136 158.113C208.955 156.211 207.086 155.354 204.035 155.354C200.984 155.354 199.115 156.211 197.934 158.113C197.048 159.445 197.048 160.491 197.048 183.035C197.048 205.863 197.048 206.624 196.162 207.385C195.67 207.766 194.686 208.146 194.096 208.146C194.049 208.146 194.002 208.146 193.957 208.147C191.635 208.154 191.634 208.154 191.537 189.027L191.537 189.001C191.439 171.049 191.438 170.954 190.356 169.527C187.699 165.913 181.106 165.913 178.646 169.623C177.858 170.764 177.563 177.137 176.776 215.28C176.284 235.351 176.579 241.629 178.252 249.619C180.811 261.794 184.058 268.643 190.061 274.54C194.293 278.726 198.229 281.294 203.149 283.101C209.546 285.479 212.105 285.86 220.272 285.86C228.637 285.86 232.967 285.004 239.856 282.245C249.598 278.345 260.62 268.643 265.147 260.082C267.804 254.851 283.057 218.229 283.057 216.707C283.057 214.424 281.876 212.522 279.515 211.19C275.775 209.098 271.248 209.859 269.379 212.902C268.886 213.758 265.737 220.036 262.49 226.885C259.242 233.734 256.192 239.726 255.798 240.107C254.912 241.153 252.944 241.153 251.96 240.107C251.173 239.441 251.173 235.922 251.173 198.92V158.493L250.09 156.972C247.335 152.976 240.446 152.976 237.888 156.972C237.791 157.116 237.703 157.247 237.623 157.383C236.804 158.771 236.788 160.633 236.608 181.513C236.453 201.147 236.482 204.604 235.201 205.187C234.856 205.344 234.417 205.293 233.853 205.293C233.262 205.293 232.377 205.007 231.983 204.532C231.294 203.771 231.196 201.298 231.196 176.757C231.196 152.045 231.268 148.938 229.753 147.488Z" fill="url(#paint1_linear_336_3982)"/>
</g>
<defs>
<linearGradient id="paint0_linear_336_3982" x1="220" y1="0" x2="220" y2="440" gradientUnits="userSpaceOnUse">
<stop stop-color="#006450"/>
<stop offset="1" stop-color="#1AB26B"/>
</linearGradient>
<linearGradient id="paint1_linear_336_3982" x1="221.401" y1="81.2739" x2="221.401" y2="361.529" gradientUnits="userSpaceOnUse">
<stop stop-color="#006450"/>
<stop offset="1" stop-color="#1AB26B"/>
</linearGradient>
<clipPath id="clip0_336_3982">
<rect width="440" height="440" fill="white"/>
</clipPath>
</defs>
</svg>
