<svg width="440" height="440" viewBox="0 0 440 440" fill="none" xmlns="http://www.w3.org/2000/svg">
<g clip-path="url(#clip0_336_3938)">
<circle cx="220" cy="220" r="217.197" stroke="url(#paint0_linear_336_3938)" stroke-width="5.6051"/>
<path fill-rule="evenodd" clip-rule="evenodd" d="M221.051 361.529C310.979 310.904 340.395 213.664 335.243 117.38C288.31 111.951 260.205 102.693 221.051 81.274C179.852 103.993 154.517 111.611 106 117.38C110.123 251.125 133.692 305.758 221.051 361.529ZM148 229.209H164.704V262.404H148V229.209ZM289.585 257.017L263.138 268.205L219.687 279L175.84 262.404V229.211H189.791L195.359 229.209C195.359 229.209 197.999 229.206 199.462 229.211H230.109C232.324 229.211 234.448 230.085 236.015 231.641C237.581 233.197 238.461 235.308 238.461 237.509C238.461 239.71 237.581 241.82 236.015 243.377C234.448 244.933 232.324 245.807 230.109 245.807H214.815C213.338 245.807 211.922 246.39 210.878 247.427C209.834 248.465 209.247 249.872 209.247 251.339C209.247 252.807 209.834 254.214 210.878 255.251C211.922 256.289 213.338 256.871 214.815 256.871H237.087C237.506 256.87 237.924 256.824 238.333 256.733L284.964 246.077L285.18 246.021C286.603 245.629 288.122 245.773 289.445 246.427C290.768 247.08 291.801 248.197 292.345 249.561C292.89 250.926 292.907 252.442 292.393 253.819C291.88 255.195 290.872 256.334 289.564 257.017H289.585ZM225.902 210.18C224.776 209.056 224.143 207.532 224.143 205.942V172.461L216.382 180.211C215.25 181.303 213.733 181.907 212.16 181.893C210.586 181.88 209.08 181.249 207.967 180.138C206.854 179.027 206.223 177.524 206.209 175.952C206.196 174.381 206.801 172.866 207.894 171.736L225.902 153.755C227.028 152.631 228.554 152 230.146 152C231.738 152 233.264 152.631 234.39 153.755L252.398 171.736C253.492 172.866 254.097 174.381 254.083 175.952C254.069 177.524 253.438 179.027 252.325 180.138C251.212 181.249 249.707 181.88 248.133 181.893C246.559 181.907 245.043 181.303 243.91 180.211L236.149 172.461V205.942C236.149 207.532 235.516 209.056 234.391 210.18C233.265 211.304 231.738 211.936 230.146 211.936C228.554 211.936 227.027 211.304 225.902 210.18ZM274.413 177.729C275.538 178.853 276.171 180.378 276.171 181.967V215.448L283.932 207.698C285.064 206.606 286.581 206.002 288.155 206.016C289.728 206.03 291.234 206.66 292.347 207.771C293.46 208.882 294.091 210.386 294.105 211.957C294.119 213.529 293.513 215.043 292.42 216.173L274.412 234.154C273.286 235.278 271.76 235.909 270.168 235.909C268.576 235.909 267.05 235.278 265.924 234.154L247.916 216.173C246.822 215.043 246.217 213.529 246.231 211.957C246.245 210.386 246.876 208.882 247.989 207.771C249.102 206.66 250.607 206.03 252.181 206.016C253.755 206.002 255.272 206.606 256.404 207.698L264.165 215.448V181.967C264.165 180.378 264.798 178.853 265.923 177.729C267.049 176.605 268.576 175.974 270.168 175.974C271.76 175.974 273.287 176.605 274.413 177.729Z" fill="url(#paint1_linear_336_3938)"/>
<path d="M335.243 117.38L336.643 117.306L336.579 116.124L335.404 115.989L335.243 117.38ZM221.051 361.529L220.297 362.71L221.006 363.162L221.738 362.75L221.051 361.529ZM221.051 81.274L221.724 80.0447L221.048 79.6753L220.374 80.047L221.051 81.274ZM106 117.38L105.835 115.989L104.56 116.141L104.599 117.424L106 117.38ZM164.704 229.209H166.105V227.807H164.704V229.209ZM148 229.209V227.807H146.599V229.209H148ZM164.704 262.404V263.805H166.105V262.404H164.704ZM148 262.404H146.599V263.805H148V262.404ZM263.138 268.205L263.475 269.565L263.582 269.539L263.684 269.496L263.138 268.205ZM289.585 257.017L290.131 258.307L289.585 255.615V257.017ZM219.687 279L219.191 280.311L219.6 280.466L220.025 280.36L219.687 279ZM175.84 262.404H174.438V263.372L175.344 263.714L175.84 262.404ZM175.84 229.211V227.809H174.438V229.211H175.84ZM189.791 229.211V230.612H189.791L189.791 229.211ZM195.359 229.209L195.359 230.61H195.36L195.359 229.209ZM199.462 229.211L199.457 230.612H199.462V229.211ZM236.015 231.641L235.027 232.635L236.015 231.641ZM236.015 243.377L237.002 244.371L236.015 243.377ZM210.878 247.427L209.89 246.433L210.878 247.427ZM210.878 255.251L211.866 254.257H211.866L210.878 255.251ZM237.087 256.871V258.273H237.091L237.087 256.871ZM238.333 256.733L238.636 258.101L238.645 258.099L238.333 256.733ZM284.964 246.077L285.276 247.443L285.294 247.439L285.312 247.434L284.964 246.077ZM285.18 246.021L285.528 247.379L285.54 247.376L285.552 247.372L285.18 246.021ZM292.345 249.561L291.044 250.08V250.08L292.345 249.561ZM292.393 253.819L293.706 254.308L292.393 253.819ZM289.564 257.017L288.916 255.774L289.564 258.418V257.017ZM225.902 210.18L226.892 209.189L225.902 210.18ZM224.143 172.461H225.545V169.082L223.153 171.47L224.143 172.461ZM216.382 180.211L217.355 181.22L217.363 181.211L217.372 181.203L216.382 180.211ZM212.16 181.893L212.172 180.492L212.16 181.893ZM207.967 180.138L208.957 179.147V179.147L207.967 180.138ZM206.209 175.952L207.61 175.94V175.94L206.209 175.952ZM207.894 171.736L206.904 170.744L206.895 170.753L206.887 170.762L207.894 171.736ZM225.902 153.755L224.912 152.763L224.912 152.763L225.902 153.755ZM234.39 153.755L235.38 152.763L235.38 152.763L234.39 153.755ZM252.398 171.736L253.405 170.762L253.397 170.753L253.388 170.744L252.398 171.736ZM252.325 180.138L253.315 181.13L253.315 181.13L252.325 180.138ZM243.91 180.211L242.92 181.203L242.929 181.211L242.938 181.22L243.91 180.211ZM236.149 172.461L237.139 171.47L234.748 169.082V172.461H236.149ZM234.391 210.18L235.381 211.172H235.381L234.391 210.18ZM276.171 215.448H274.769V218.827L277.161 216.44L276.171 215.448ZM283.932 207.698L282.959 206.69L282.951 206.698L282.942 206.707L283.932 207.698ZM288.155 206.016L288.142 207.417L288.155 206.016ZM292.347 207.771L291.357 208.763L292.347 207.771ZM292.42 216.173L293.41 217.165L293.419 217.156L293.427 217.148L292.42 216.173ZM274.412 234.154L275.402 235.146L275.402 235.146L274.412 234.154ZM265.924 234.154L264.934 235.146L264.934 235.146L265.924 234.154ZM247.916 216.173L246.909 217.148L246.917 217.156L246.926 217.165L247.916 216.173ZM246.231 211.957L244.83 211.945V211.945L246.231 211.957ZM247.989 207.771L246.999 206.78L246.999 206.78L247.989 207.771ZM256.404 207.698L257.394 206.707L257.385 206.698L257.376 206.69L256.404 207.698ZM264.165 215.448L263.175 216.44L265.566 218.827V215.448H264.165ZM333.844 117.455C338.98 213.454 309.644 310.047 220.364 360.308L221.738 362.75C312.313 311.761 341.809 213.874 336.643 117.306L333.844 117.455ZM220.379 82.5034C259.69 104.008 287.968 113.322 335.082 118.772L335.404 115.989C288.652 110.58 260.72 101.378 221.724 80.0447L220.379 82.5034ZM106.165 118.772C154.844 112.983 180.355 105.316 221.728 82.5011L220.374 80.047C179.348 102.671 154.19 110.239 105.835 115.989L106.165 118.772ZM221.805 360.348C178.261 332.549 150.76 305.129 133.583 268.105C116.38 231.025 109.461 184.168 107.401 117.337L104.599 117.424C106.662 184.337 113.589 231.669 131.041 269.284C148.518 306.955 176.481 334.738 220.297 362.71L221.805 360.348ZM164.704 227.807H148V230.61H164.704V227.807ZM166.105 262.404V229.209H163.302V262.404H166.105ZM148 263.805H164.704V261.002H148V263.805ZM146.599 229.209V262.404H149.401V229.209H146.599ZM263.684 269.496L290.131 258.307L289.039 255.726L262.592 266.915L263.684 269.496ZM220.025 280.36L263.475 269.565L262.8 266.846L219.349 277.64L220.025 280.36ZM175.344 263.714L219.191 280.311L220.183 277.69L176.336 261.093L175.344 263.714ZM174.438 229.211V262.404H177.241V229.211H174.438ZM189.791 227.809H175.84V230.612H189.791V227.809ZM195.358 227.807L189.79 227.809L189.791 230.612L195.359 230.61L195.358 227.807ZM199.466 227.809C198.732 227.807 197.704 227.807 196.861 227.807C196.44 227.807 196.064 227.807 195.793 227.807C195.658 227.807 195.549 227.807 195.474 227.807C195.436 227.807 195.407 227.807 195.387 227.807C195.377 227.807 195.37 227.807 195.365 227.807C195.362 227.807 195.36 227.807 195.359 227.807C195.358 227.807 195.358 227.807 195.358 227.807C195.358 227.807 195.357 227.807 195.357 227.807C195.357 227.807 195.357 227.807 195.357 227.807C195.357 227.807 195.357 227.807 195.359 229.209C195.36 230.61 195.36 230.61 195.36 230.61C195.36 230.61 195.36 230.61 195.36 230.61C195.36 230.61 195.36 230.61 195.36 230.61C195.361 230.61 195.361 230.61 195.362 230.61C195.363 230.61 195.365 230.61 195.368 230.61C195.373 230.61 195.38 230.61 195.39 230.61C195.41 230.61 195.439 230.61 195.476 230.61C195.551 230.61 195.66 230.61 195.795 230.61C196.065 230.609 196.44 230.609 196.862 230.609C197.704 230.609 198.728 230.61 199.457 230.612L199.466 227.809ZM230.109 227.809H199.462V230.612H230.109V227.809ZM237.002 230.647C235.173 228.829 232.693 227.809 230.109 227.809V230.612C231.955 230.612 233.724 231.341 235.027 232.635L237.002 230.647ZM239.862 237.509C239.862 234.933 238.832 232.465 237.002 230.647L235.027 232.635C236.329 233.929 237.06 235.683 237.06 237.509H239.862ZM237.002 244.371C238.832 242.552 239.862 240.084 239.862 237.509H237.06C237.06 239.335 236.329 241.088 235.027 242.383L237.002 244.371ZM230.109 247.208C232.693 247.208 235.173 246.189 237.002 244.371L235.027 242.383C233.724 243.677 231.955 244.406 230.109 244.406V247.208ZM214.815 247.208H230.109V244.406H214.815V247.208ZM211.866 248.421C212.646 247.646 213.707 247.208 214.815 247.208V244.406C212.97 244.406 211.198 245.134 209.89 246.433L211.866 248.421ZM210.648 251.339C210.648 250.247 211.085 249.197 211.866 248.421L209.89 246.433C208.582 247.733 207.846 249.497 207.846 251.339H210.648ZM211.866 254.257C211.085 253.482 210.648 252.432 210.648 251.339H207.846C207.846 253.181 208.582 254.946 209.89 256.245L211.866 254.257ZM214.815 255.47C213.707 255.47 212.646 255.033 211.866 254.257L209.89 256.245C211.198 257.544 212.97 258.273 214.815 258.273V255.47ZM237.087 255.47H214.815V258.273H237.087V255.47ZM238.029 255.365C237.718 255.434 237.401 255.469 237.083 255.47L237.091 258.273C237.61 258.271 238.129 258.214 238.636 258.101L238.029 255.365ZM284.652 244.711L238.02 255.367L238.645 258.099L285.276 247.443L284.652 244.711ZM284.832 244.664L284.616 244.719L285.312 247.434L285.528 247.379L284.832 244.664ZM290.066 245.17C288.435 244.364 286.562 244.187 284.807 244.671L285.552 247.372C286.645 247.071 287.81 247.182 288.825 247.683L290.066 245.17ZM293.647 249.042C292.974 247.355 291.698 245.976 290.066 245.17L288.825 247.683C289.839 248.184 290.628 249.039 291.044 250.08L293.647 249.042ZM293.706 254.308C294.341 252.606 294.32 250.73 293.647 249.042L291.044 250.08C291.459 251.122 291.472 252.278 291.08 253.329L293.706 254.308ZM290.213 258.259C291.826 257.417 293.071 256.01 293.706 254.308L291.08 253.329C290.688 254.379 289.918 255.251 288.916 255.774L290.213 258.259ZM289.585 255.615H289.564V258.418H289.585V255.615ZM222.742 205.942C222.742 207.904 223.523 209.785 224.911 211.172L226.892 209.189C226.029 208.327 225.545 207.159 225.545 205.942H222.742ZM222.742 172.461V205.942H225.545V172.461H222.742ZM217.372 181.203L225.134 173.453L223.153 171.47L215.392 179.22L217.372 181.203ZM212.147 183.295C214.088 183.311 215.958 182.567 217.355 181.22L215.409 179.202C214.541 180.039 213.379 180.503 212.172 180.492L212.147 183.295ZM206.977 181.13C208.35 182.501 210.207 183.278 212.147 183.295L212.172 180.492C210.965 180.482 209.81 179.998 208.957 179.147L206.977 181.13ZM204.808 175.964C204.825 177.904 205.604 179.759 206.977 181.13L208.957 179.147C208.104 178.295 207.621 177.143 207.61 175.94L204.808 175.964ZM206.887 170.762C205.538 172.156 204.791 174.025 204.808 175.964L207.61 175.94C207.6 174.736 208.063 173.577 208.901 172.71L206.887 170.762ZM224.912 152.763L206.904 170.744L208.884 172.728L226.892 154.747L224.912 152.763ZM230.146 150.599C228.184 150.599 226.301 151.377 224.912 152.763L226.892 154.747C227.755 153.886 228.925 153.401 230.146 153.401V150.599ZM235.38 152.763C233.991 151.377 232.109 150.599 230.146 150.599V153.401C231.367 153.401 232.537 153.886 233.4 154.747L235.38 152.763ZM253.388 170.744L235.38 152.763L233.4 154.747L251.408 172.728L253.388 170.744ZM255.484 175.964C255.501 174.025 254.754 172.156 253.405 170.762L251.391 172.71C252.229 173.577 252.692 174.736 252.682 175.94L255.484 175.964ZM253.315 181.13C254.688 179.759 255.467 177.904 255.484 175.964L252.682 175.94C252.671 177.143 252.188 178.295 251.335 179.147L253.315 181.13ZM248.145 183.295C250.086 183.278 251.942 182.501 253.315 181.13L251.335 179.147C250.482 179.998 249.328 180.482 248.121 180.492L248.145 183.295ZM242.938 181.22C244.334 182.567 246.204 183.311 248.145 183.295L248.121 180.492C246.913 180.503 245.751 180.039 244.883 179.202L242.938 181.22ZM235.159 173.453L242.92 181.203L244.9 179.22L237.139 171.47L235.159 173.453ZM237.55 205.942V172.461H234.748V205.942H237.55ZM235.381 211.172C236.77 209.785 237.55 207.904 237.55 205.942H234.748C234.748 207.159 234.263 208.327 233.401 209.189L235.381 211.172ZM230.146 213.337C232.109 213.337 233.992 212.558 235.381 211.172L233.401 209.189C232.538 210.05 231.367 210.534 230.146 210.534V213.337ZM224.911 211.172C226.3 212.558 228.183 213.337 230.146 213.337V210.534C228.925 210.534 227.754 210.05 226.892 209.189L224.911 211.172ZM277.572 181.967C277.572 180.005 276.791 178.124 275.403 176.738L273.422 178.721C274.285 179.582 274.769 180.75 274.769 181.967H277.572ZM277.572 215.448V181.967H274.769V215.448H277.572ZM282.942 206.707L275.181 214.456L277.161 216.44L284.922 208.69L282.942 206.707ZM288.167 204.615C286.226 204.598 284.356 205.343 282.959 206.69L284.905 208.707C285.773 207.87 286.935 207.407 288.142 207.417L288.167 204.615ZM293.337 206.78C291.964 205.409 290.107 204.632 288.167 204.615L288.142 207.417C289.35 207.428 290.504 207.911 291.357 208.763L293.337 206.78ZM295.506 211.945C295.489 210.005 294.71 208.151 293.337 206.78L291.357 208.763C292.21 209.614 292.693 210.766 292.704 211.969L295.506 211.945ZM293.427 217.148C294.776 215.753 295.523 213.885 295.506 211.945L292.704 211.969C292.714 213.173 292.251 214.333 291.413 215.199L293.427 217.148ZM275.402 235.146L293.41 217.165L291.43 215.182L273.422 233.163L275.402 235.146ZM270.168 237.31C272.131 237.31 274.013 236.532 275.402 235.146L273.422 233.163C272.559 234.024 271.389 234.508 270.168 234.508V237.31ZM264.934 235.146C266.323 236.532 268.205 237.31 270.168 237.31V234.508C268.947 234.508 267.777 234.024 266.914 233.163L264.934 235.146ZM246.926 217.165L264.934 235.146L266.914 233.163L248.906 215.182L246.926 217.165ZM244.83 211.945C244.813 213.885 245.56 215.753 246.909 217.148L248.923 215.199C248.085 214.333 247.622 213.173 247.632 211.969L244.83 211.945ZM246.999 206.78C245.626 208.151 244.847 210.005 244.83 211.945L247.632 211.97C247.643 210.766 248.126 209.614 248.979 208.763L246.999 206.78ZM252.169 204.615C250.229 204.632 248.372 205.409 246.999 206.78L248.979 208.763C249.832 207.911 250.986 207.428 252.194 207.417L252.169 204.615ZM257.376 206.69C255.98 205.343 254.11 204.598 252.169 204.615L252.194 207.417C253.401 207.407 254.563 207.87 255.431 208.707L257.376 206.69ZM265.155 214.456L257.394 206.707L255.414 208.69L263.175 216.44L265.155 214.456ZM262.764 181.967V215.448H265.566V181.967H262.764ZM264.933 176.738C263.545 178.124 262.764 180.005 262.764 181.967H265.566C265.566 180.75 266.051 179.582 266.913 178.721L264.933 176.738ZM270.168 174.572C268.205 174.572 266.322 175.351 264.933 176.738L266.913 178.721C267.776 177.859 268.947 177.375 270.168 177.375V174.572ZM275.403 176.738C274.014 175.351 272.131 174.572 270.168 174.572V177.375C271.389 177.375 272.56 177.859 273.422 178.721L275.403 176.738Z" fill="url(#paint2_linear_336_3938)"/>
</g>
<defs>
<linearGradient id="paint0_linear_336_3938" x1="220" y1="0" x2="220" y2="440" gradientUnits="userSpaceOnUse">
<stop stop-color="#006450"/>
<stop offset="1" stop-color="#1AB26B"/>
</linearGradient>
<linearGradient id="paint1_linear_336_3938" x1="220.904" y1="81.274" x2="220.904" y2="361.529" gradientUnits="userSpaceOnUse">
<stop stop-color="#006450"/>
<stop offset="1" stop-color="#1AB26B"/>
</linearGradient>
<linearGradient id="paint2_linear_336_3938" x1="220.904" y1="81.274" x2="220.904" y2="361.529" gradientUnits="userSpaceOnUse">
<stop stop-color="#006450"/>
<stop offset="1" stop-color="#1AB26B"/>
</linearGradient>
<clipPath id="clip0_336_3938">
<rect width="440" height="440" fill="white"/>
</clipPath>
</defs>
</svg>
