<svg width="440" height="440" viewBox="0 0 440 440" fill="none" xmlns="http://www.w3.org/2000/svg">
<g clip-path="url(#clip0_336_3751)">
<circle cx="220" cy="220" r="217.197" stroke="url(#paint0_linear_336_3751)" stroke-width="5.6051"/>
<path fill-rule="evenodd" clip-rule="evenodd" d="M335.243 117.38C340.395 213.664 310.979 310.904 221.051 361.529C133.692 305.758 110.123 251.124 106 117.38C154.517 111.611 179.852 103.993 221.051 81.2739C260.205 102.693 288.31 111.951 335.243 117.38ZM249.684 169.475L271.524 191.315C274.995 194.782 276.963 199.476 277 204.382V235.493C277.028 240.424 275.105 245.167 271.649 248.684L249.809 270.524C246.311 274.026 241.567 275.995 236.618 276H205.507C200.575 276.028 195.833 274.105 192.315 270.648L170.476 248.809C166.974 245.311 165.004 240.566 165 235.617V204.506C165.004 199.557 166.974 194.813 170.476 191.315L192.191 169.475C195.688 165.974 200.433 164.004 205.382 164H236.493C241.442 164.004 246.187 165.974 249.684 169.475ZM177.444 204.382V235.493C177.451 237.125 178.099 238.69 179.249 239.849L186.467 246.942L248.066 185.342L240.973 178.249C239.814 177.099 238.25 176.451 236.618 176.444H205.507C203.874 176.451 202.31 177.099 201.151 178.249L179.249 200.026C178.099 201.185 177.451 202.75 177.444 204.382ZM262.751 239.849C263.9 238.69 264.548 237.125 264.555 235.493V204.506C264.548 202.874 263.9 201.31 262.751 200.151L255.658 193.058L194.058 254.657L201.027 261.751C202.186 262.9 203.75 263.548 205.382 263.555H236.493C238.125 263.548 239.69 262.9 240.849 261.751L262.751 239.849Z" fill="url(#paint1_linear_336_3751)"/>
<path d="M221.051 361.529L220.297 362.71L221.006 363.162L221.738 362.75L221.051 361.529ZM335.243 117.38L336.643 117.306L336.579 116.124L335.404 115.988L335.243 117.38ZM106 117.38L105.835 115.989L104.56 116.14L104.599 117.424L106 117.38ZM221.051 81.2739L221.724 80.0446L221.048 79.6752L220.374 80.0469L221.051 81.2739ZM271.524 191.315L270.533 192.306L270.534 192.307L271.524 191.315ZM249.684 169.475L248.693 170.466L248.693 170.466L249.684 169.475ZM277 204.382H278.401L278.401 204.371L277 204.382ZM277 235.493H275.598L275.598 235.501L277 235.493ZM271.649 248.684L272.639 249.675L272.648 249.666L271.649 248.684ZM249.809 270.524L248.818 269.533L248.817 269.534L249.809 270.524ZM236.618 276V277.401H236.619L236.618 276ZM205.507 276V274.598L205.498 274.598L205.507 276ZM192.315 270.648L191.325 271.639L191.333 271.648L192.315 270.648ZM170.476 248.809L171.466 247.818L171.466 247.817L170.476 248.809ZM165 235.617H163.599L163.599 235.619L165 235.617ZM165 204.506L163.599 204.505V204.506H165ZM170.476 191.315L171.466 192.307L171.469 192.303L170.476 191.315ZM192.191 169.475L191.2 168.485L191.197 168.487L192.191 169.475ZM205.382 164V162.599H205.381L205.382 164ZM236.493 164L236.494 162.599H236.493V164ZM177.444 235.493H176.043L176.043 235.499L177.444 235.493ZM177.444 204.382L176.043 204.376V204.382H177.444ZM179.249 239.849L178.254 240.835L178.26 240.842L178.267 240.848L179.249 239.849ZM186.467 246.942L185.484 247.941L186.475 248.915L187.457 247.933L186.467 246.942ZM248.066 185.342L249.057 186.333L250.048 185.342L249.057 184.351L248.066 185.342ZM240.973 178.249L241.964 177.258L241.96 177.254L240.973 178.249ZM236.618 176.444L236.623 175.043H236.618V176.444ZM205.507 176.444V175.043L205.501 175.043L205.507 176.444ZM201.151 178.249L200.164 177.254L200.163 177.255L201.151 178.249ZM179.249 200.026L178.261 199.033L178.254 199.04L179.249 200.026ZM264.555 235.493L265.957 235.499V235.493H264.555ZM262.751 239.849L263.742 240.839L263.746 240.835L262.751 239.849ZM264.555 204.506H265.957L265.957 204.501L264.555 204.506ZM262.751 200.151L263.746 199.164L263.742 199.16L262.751 200.151ZM255.658 193.058L256.648 192.067L255.658 191.076L254.667 192.067L255.658 193.058ZM194.058 254.657L193.067 253.667L192.085 254.649L193.058 255.639L194.058 254.657ZM201.027 261.751L200.027 262.733L200.033 262.739L200.04 262.746L201.027 261.751ZM205.382 263.555L205.376 264.956H205.382V263.555ZM236.493 263.555V264.956L236.499 264.956L236.493 263.555ZM240.849 261.751L241.835 262.746L241.84 262.742L240.849 261.751ZM221.738 362.75C312.313 311.761 341.809 213.874 336.643 117.306L333.844 117.455C338.98 213.454 309.644 310.047 220.364 360.308L221.738 362.75ZM104.599 117.424C106.662 184.337 113.589 231.669 131.041 269.284C148.518 306.955 176.481 334.738 220.297 362.71L221.805 360.348C178.261 332.549 150.76 305.129 133.583 268.105C116.38 231.025 109.461 184.168 107.401 117.337L104.599 117.424ZM220.374 80.0469C179.348 102.671 154.19 110.239 105.835 115.989L106.165 118.772C154.844 112.983 180.355 105.316 221.728 82.501L220.374 80.0469ZM335.404 115.988C288.652 110.58 260.72 101.378 221.724 80.0446L220.379 82.5033C259.69 104.008 287.968 113.322 335.082 118.772L335.404 115.988ZM272.515 190.325L250.675 168.485L248.693 170.466L270.533 192.306L272.515 190.325ZM278.401 204.371C278.361 199.097 276.246 194.051 272.514 190.324L270.534 192.307C273.745 195.513 275.564 199.855 275.598 204.393L278.401 204.371ZM278.401 235.493V204.382H275.598V235.493H278.401ZM272.648 249.666C276.364 245.885 278.432 240.786 278.401 235.485L275.598 235.501C275.625 240.062 273.846 244.448 270.649 247.702L272.648 249.666ZM250.799 271.515L272.639 249.675L270.658 247.693L248.818 269.533L250.799 271.515ZM236.619 277.401C241.939 277.396 247.04 275.279 250.8 271.514L248.817 269.534C245.582 272.773 241.194 274.594 236.616 274.598L236.619 277.401ZM205.507 277.401H236.618V274.598H205.507V277.401ZM191.333 271.648C195.115 275.364 200.213 277.432 205.515 277.401L205.498 274.598C200.937 274.625 196.551 272.846 193.298 269.649L191.333 271.648ZM169.485 249.799L191.325 271.639L193.306 269.658L171.466 247.818L169.485 249.799ZM163.599 235.619C163.603 240.939 165.721 246.04 169.485 249.8L171.466 247.817C168.227 244.582 166.405 240.194 166.401 235.616L163.599 235.619ZM163.599 204.506V235.617H166.401V204.506H163.599ZM169.485 190.324C165.721 194.084 163.603 199.185 163.599 204.505L166.401 204.508C166.405 199.93 168.227 195.542 171.466 192.307L169.485 190.324ZM191.197 168.487L169.482 190.327L171.469 192.303L193.185 170.463L191.197 168.487ZM205.381 162.599C200.06 162.603 194.959 164.721 191.2 168.485L193.183 170.466C196.417 167.227 200.806 165.405 205.383 165.401L205.381 162.599ZM236.493 162.599H205.382V165.401H236.493V162.599ZM250.676 168.485C246.916 164.721 241.815 162.603 236.494 162.599L236.492 165.401C241.069 165.405 245.458 167.227 248.693 170.466L250.676 168.485ZM178.846 235.493V204.382H176.043V235.493H178.846ZM180.244 238.862C179.353 237.964 178.851 236.752 178.846 235.487L176.043 235.499C176.052 237.499 176.846 239.415 178.254 240.835L180.244 238.862ZM187.449 245.942L180.231 238.849L178.267 240.848L185.484 247.941L187.449 245.942ZM247.076 184.351L185.476 245.951L187.457 247.933L249.057 186.333L247.076 184.351ZM239.982 179.24L247.076 186.333L249.057 184.351L241.964 177.258L239.982 179.24ZM236.612 177.846C237.876 177.851 239.088 178.353 239.986 179.244L241.96 177.254C240.54 175.845 238.623 175.051 236.623 175.043L236.612 177.846ZM205.507 177.846H236.618V175.043H205.507V177.846ZM202.138 179.244C203.036 178.353 204.248 177.851 205.512 177.846L205.501 175.043C203.501 175.051 201.584 175.845 200.164 177.254L202.138 179.244ZM180.237 201.02L202.139 179.242L200.163 177.255L178.261 199.033L180.237 201.02ZM178.846 204.388C178.851 203.123 179.353 201.911 180.244 201.013L178.254 199.04C176.846 200.46 176.052 202.376 176.043 204.376L178.846 204.388ZM263.154 235.487C263.149 236.752 262.647 237.964 261.756 238.862L263.746 240.835C265.154 239.415 265.948 237.499 265.957 235.499L263.154 235.487ZM263.154 204.506V235.493H265.957V204.506H263.154ZM261.756 201.138C262.647 202.036 263.149 203.248 263.154 204.512L265.957 204.501C265.948 202.501 265.154 200.584 263.746 199.164L261.756 201.138ZM254.667 194.048L261.76 201.142L263.742 199.16L256.648 192.067L254.667 194.048ZM195.049 255.648L256.648 194.048L254.667 192.067L193.067 253.667L195.049 255.648ZM202.026 260.769L195.057 253.675L193.058 255.639L200.027 262.733L202.026 260.769ZM205.388 262.154C204.123 262.149 202.911 261.646 202.013 260.756L200.04 262.746C201.46 264.154 203.376 264.948 205.376 264.956L205.388 262.154ZM236.493 262.154H205.382V264.956H236.493V262.154ZM239.862 260.756C238.964 261.646 237.752 262.149 236.487 262.154L236.499 264.956C238.499 264.948 240.416 264.154 241.835 262.746L239.862 260.756ZM261.76 238.858L239.858 260.76L241.84 262.742L263.742 240.839L261.76 238.858Z" fill="url(#paint2_linear_336_3751)"/>
</g>
<defs>
<linearGradient id="paint0_linear_336_3751" x1="220" y1="0" x2="220" y2="440" gradientUnits="userSpaceOnUse">
<stop stop-color="#006450"/>
<stop offset="1" stop-color="#1AB26B"/>
</linearGradient>
<linearGradient id="paint1_linear_336_3751" x1="220.904" y1="81.2739" x2="220.904" y2="361.529" gradientUnits="userSpaceOnUse">
<stop stop-color="#006450"/>
<stop offset="1" stop-color="#1AB26B"/>
</linearGradient>
<linearGradient id="paint2_linear_336_3751" x1="220.904" y1="81.2739" x2="220.904" y2="361.529" gradientUnits="userSpaceOnUse">
<stop stop-color="#006450"/>
<stop offset="1" stop-color="#1AB26B"/>
</linearGradient>
<clipPath id="clip0_336_3751">
<rect width="440" height="440" fill="white"/>
</clipPath>
</defs>
</svg>
