<svg width="440" height="440" viewBox="0 0 440 440" fill="none" xmlns="http://www.w3.org/2000/svg">
<g clip-path="url(#clip0_204_872)">
<circle cx="220" cy="220" r="217.197" stroke="url(#paint0_linear_204_872)" stroke-width="5.6051"/>
<path fill-rule="evenodd" clip-rule="evenodd" d="M335.74 117.38C340.891 213.664 311.475 310.904 221.547 361.529C134.188 305.758 110.619 251.124 106.496 117.38C155.013 111.611 180.348 103.993 221.547 81.2739C260.701 102.693 288.806 111.951 335.74 117.38ZM180.928 169.984C180.928 151.947 195.55 137.325 213.587 137.325H229.206C247.243 137.325 261.865 151.947 261.865 169.984V188.513C269.042 189.225 274.647 195.279 274.647 202.643V265.121C274.647 272.963 268.29 279.321 260.448 279.321H182.35C174.508 279.321 168.15 272.963 168.15 265.121V202.643C168.15 195.281 173.753 189.227 180.928 188.514V169.984ZM250.506 169.984V188.443H192.287V169.984C192.287 158.221 201.823 148.685 213.587 148.685H229.206C240.969 148.685 250.506 158.221 250.506 169.984ZM221.4 263.44C236.878 263.44 249.425 250.892 249.425 235.414C249.425 219.936 236.878 207.389 221.4 207.389C205.921 207.389 193.374 219.936 193.374 235.414C193.374 250.892 205.921 263.44 221.4 263.44ZM237.995 232.688C236.233 234.376 233.842 235.414 231.208 235.414C225.791 235.414 221.399 231.023 221.399 225.605C221.399 222.972 222.437 220.581 224.126 218.819C223.238 218.674 222.328 218.599 221.399 218.599C212.112 218.599 204.584 226.127 204.584 235.414C204.584 244.701 212.112 252.229 221.399 252.229C230.686 252.229 238.215 244.701 238.215 235.414C238.215 234.486 238.139 233.575 237.995 232.688Z" fill="url(#paint1_linear_204_872)"/>
</g>
<defs>
<linearGradient id="paint0_linear_204_872" x1="220" y1="0" x2="220" y2="440" gradientUnits="userSpaceOnUse">
<stop stop-color="#FFDB1E"/>
<stop offset="1" stop-color="#FFB800"/>
</linearGradient>
<linearGradient id="paint1_linear_204_872" x1="221.401" y1="81.2739" x2="221.401" y2="361.529" gradientUnits="userSpaceOnUse">
<stop stop-color="#FFDB1E"/>
<stop offset="1" stop-color="#FFB800"/>
</linearGradient>
<clipPath id="clip0_204_872">
<rect width="440" height="440" fill="white"/>
</clipPath>
</defs>
</svg>
