<svg width="440" height="440" viewBox="0 0 440 440" fill="none" xmlns="http://www.w3.org/2000/svg">
<circle cx="220" cy="220" r="217.197" stroke="url(#paint0_linear_329_1477)" stroke-width="5.6051"/>
<path fill-rule="evenodd" clip-rule="evenodd" d="M335.243 117.38C340.395 213.664 310.979 310.904 221.051 361.529C133.692 305.758 110.123 251.124 106 117.38C154.517 111.611 179.852 103.993 221.051 81.2739C260.205 102.693 288.31 111.951 335.243 117.38ZM215.113 263.085L277.813 200.39C278.543 199.662 279.122 198.798 279.517 197.847C279.911 196.895 280.113 195.875 280.112 194.844C280.111 193.814 279.906 192.795 279.509 191.844C279.112 190.893 278.53 190.031 277.799 189.306L266.08 177.802C264.616 176.344 262.634 175.525 260.567 175.525C258.501 175.525 256.519 176.344 255.055 177.802L209.776 222.416L209.723 222.362L191.832 205.14C190.364 203.688 188.381 202.875 186.316 202.881C184.25 202.886 182.272 203.709 180.811 205.17L169.093 216.889C167.63 218.353 166.809 220.339 166.809 222.409C166.809 224.478 167.63 226.464 169.093 227.929L204.063 263.085C204.789 263.81 205.65 264.386 206.598 264.779C207.546 265.172 208.562 265.374 209.588 265.374C210.614 265.374 211.63 265.172 212.578 264.779C213.526 264.386 214.388 263.81 215.113 263.085Z" fill="url(#paint1_linear_329_1477)"/>
<path d="M221.051 361.529L220.297 362.71L221.006 363.162L221.738 362.75L221.051 361.529ZM335.243 117.38L336.643 117.306L336.579 116.124L335.404 115.988L335.243 117.38ZM106 117.38L105.835 115.989L104.56 116.14L104.599 117.424L106 117.38ZM221.051 81.2739L221.724 80.0446L221.048 79.6752L220.374 80.0469L221.051 81.2739ZM277.813 200.39L276.824 199.397L276.823 199.399L277.813 200.39ZM215.113 263.085L214.122 262.094L214.122 262.094L215.113 263.085ZM279.517 197.847L278.222 197.31V197.31L279.517 197.847ZM280.112 194.844L281.513 194.843V194.843L280.112 194.844ZM279.509 191.844L278.216 192.384L279.509 191.844ZM277.799 189.306L278.785 188.31L278.78 188.306L277.799 189.306ZM266.08 177.802L265.091 178.795L265.098 178.802L266.08 177.802ZM255.055 177.802L256.038 178.8L256.043 178.795L255.055 177.802ZM209.776 222.416L208.785 223.407L209.769 224.39L210.76 223.414L209.776 222.416ZM209.723 222.362L210.713 221.371L210.704 221.362L210.694 221.353L209.723 222.362ZM191.832 205.14L190.846 206.136L190.853 206.143L190.86 206.15L191.832 205.14ZM186.316 202.881L186.312 201.48H186.312L186.316 202.881ZM180.811 205.17L181.802 206.161L181.802 206.16L180.811 205.17ZM169.093 216.889L168.102 215.898L168.101 215.898L169.093 216.889ZM169.093 227.929L170.086 226.94L170.084 226.938L169.093 227.929ZM204.063 263.085L203.07 264.073L203.072 264.076L204.063 263.085ZM206.598 264.779L206.062 266.073L206.062 266.073L206.598 264.779ZM212.578 264.779L213.115 266.073L213.115 266.073L212.578 264.779ZM221.738 362.75C312.313 311.761 341.809 213.874 336.643 117.306L333.844 117.455C338.98 213.454 309.644 310.047 220.364 360.308L221.738 362.75ZM104.599 117.424C106.662 184.337 113.589 231.669 131.041 269.284C148.518 306.955 176.481 334.738 220.297 362.71L221.805 360.348C178.261 332.549 150.76 305.129 133.583 268.105C116.38 231.025 109.461 184.168 107.401 117.337L104.599 117.424ZM220.374 80.0469C179.348 102.671 154.19 110.239 105.835 115.989L106.165 118.772C154.844 112.983 180.355 105.316 221.728 82.501L220.374 80.0469ZM335.404 115.988C288.652 110.58 260.72 101.378 221.724 80.0446L220.379 82.5033C259.69 104.008 287.968 113.322 335.082 118.772L335.404 115.988ZM276.823 199.399L214.122 262.094L216.104 264.076L278.804 201.38L276.823 199.399ZM278.222 197.31C277.898 198.091 277.423 198.8 276.824 199.397L278.802 201.382C279.663 200.525 280.346 199.505 280.811 198.383L278.222 197.31ZM278.711 194.846C278.712 195.692 278.546 196.529 278.222 197.31L280.811 198.383C281.276 197.261 281.515 196.058 281.513 194.843L278.711 194.846ZM278.216 192.384C278.541 193.164 278.71 194.001 278.711 194.846L281.513 194.843C281.512 193.628 281.27 192.425 280.802 191.304L278.216 192.384ZM276.812 190.301C277.413 190.896 277.89 191.604 278.216 192.384L280.802 191.304C280.333 190.183 279.648 189.165 278.785 188.31L276.812 190.301ZM265.098 178.802L276.817 190.305L278.78 188.306L267.062 176.802L265.098 178.802ZM260.567 176.926C262.263 176.926 263.89 177.598 265.091 178.795L267.069 176.809C265.342 175.089 263.004 174.124 260.567 174.124V176.926ZM256.043 178.795C257.245 177.598 258.872 176.926 260.567 176.926V174.124C258.13 174.124 255.793 175.089 254.066 176.809L256.043 178.795ZM210.76 223.414L256.038 178.8L254.071 176.803L208.793 221.418L210.76 223.414ZM208.732 223.353L208.785 223.407L210.767 221.425L210.713 221.371L208.732 223.353ZM190.86 206.15L208.751 223.372L210.694 221.353L192.804 204.131L190.86 206.15ZM186.319 204.282C188.014 204.278 189.642 204.944 190.846 206.136L192.818 204.145C191.087 202.431 188.747 201.473 186.312 201.48L186.319 204.282ZM181.802 206.16C183.001 204.962 184.625 204.287 186.319 204.282L186.312 201.48C183.876 201.486 181.542 202.457 179.82 204.179L181.802 206.16ZM170.084 217.879L181.802 206.161L179.821 204.179L168.102 215.898L170.084 217.879ZM168.21 222.409C168.21 220.71 168.884 219.081 170.084 217.879L168.101 215.898C166.376 217.626 165.407 219.967 165.407 222.409H168.21ZM170.084 226.938C168.884 225.736 168.21 224.107 168.21 222.409H165.407C165.407 224.85 166.376 227.191 168.101 228.919L170.084 226.938ZM205.057 262.097L170.086 226.94L168.099 228.917L203.07 264.073L205.057 262.097ZM207.134 263.484C206.357 263.162 205.65 262.69 205.054 262.094L203.072 264.076C203.928 264.931 204.944 265.61 206.062 266.073L207.134 263.484ZM209.588 263.972C208.746 263.972 207.912 263.807 207.134 263.484L206.062 266.073C207.18 266.537 208.378 266.775 209.588 266.775V263.972ZM212.042 263.484C211.264 263.807 210.43 263.972 209.588 263.972V266.775C210.798 266.775 211.997 266.537 213.115 266.073L212.042 263.484ZM214.122 262.094C213.527 262.69 212.82 263.162 212.042 263.484L213.115 266.073C214.233 265.61 215.249 264.931 216.104 264.076L214.122 262.094Z" fill="url(#paint2_linear_329_1477)"/>
<defs>
<linearGradient id="paint0_linear_329_1477" x1="220" y1="0" x2="220" y2="440" gradientUnits="userSpaceOnUse">
<stop stop-color="#D50000"/>
<stop offset="1"/>
</linearGradient>
<linearGradient id="paint1_linear_329_1477" x1="220.904" y1="81.2739" x2="220.904" y2="361.529" gradientUnits="userSpaceOnUse">
<stop stop-color="#D50000"/>
<stop offset="1"/>
</linearGradient>
<linearGradient id="paint2_linear_329_1477" x1="220.904" y1="81.2739" x2="220.904" y2="361.529" gradientUnits="userSpaceOnUse">
<stop stop-color="#D50000"/>
<stop offset="1"/>
</linearGradient>
</defs>
</svg>
