<svg width="440" height="440" viewBox="0 0 440 440" fill="none" xmlns="http://www.w3.org/2000/svg">
<g clip-path="url(#clip0_329_1687)">
<circle cx="220" cy="219" r="217.197" stroke="url(#paint0_linear_329_1687)" stroke-width="5.6051"/>
<path fill-rule="evenodd" clip-rule="evenodd" d="M204.584 80.2735C168.985 80.2735 140.126 109.133 140.126 144.732V181.303C125.964 182.71 114.904 194.659 114.904 209.19V332.502C114.904 347.98 127.452 360.528 142.93 360.528H297.07C312.548 360.528 325.095 347.981 325.095 332.502V209.19C325.095 194.658 314.034 182.709 299.871 181.303V144.732C299.871 109.133 271.012 80.2735 235.412 80.2735H204.584ZM277.451 181.165V144.732C277.451 121.515 258.629 102.694 235.412 102.694H204.584C181.367 102.694 162.546 121.515 162.546 144.732V181.165H277.451ZM241.02 329.001C241.02 292.566 292.867 292.566 292.867 329.001H241.02ZM285.861 279.254C285.861 290.089 277.077 298.872 266.243 298.872C255.408 298.872 246.625 290.089 246.625 279.254C246.625 268.42 255.408 259.637 266.243 259.637C277.077 259.637 285.861 268.42 285.861 279.254ZM148.535 329.7C148.535 252.63 232.612 252.629 232.612 329.7L148.535 329.7ZM218.6 240.018C218.6 255.496 206.052 268.043 190.574 268.043C175.096 268.043 162.549 255.496 162.549 240.018C162.549 224.54 175.096 211.992 190.574 211.992C206.052 211.992 218.6 224.54 218.6 240.018Z" fill="url(#paint1_linear_329_1687)"/>
</g>
<defs>
<linearGradient id="paint0_linear_329_1687" x1="220" y1="-1" x2="220" y2="439" gradientUnits="userSpaceOnUse">
<stop stop-color="#D50000"/>
<stop offset="1"/>
</linearGradient>
<linearGradient id="paint1_linear_329_1687" x1="220" y1="80.2735" x2="220" y2="360.528" gradientUnits="userSpaceOnUse">
<stop stop-color="#D50000"/>
<stop offset="1"/>
</linearGradient>
<clipPath id="clip0_329_1687">
<rect width="440" height="440" fill="white"/>
</clipPath>
</defs>
</svg>
