<svg width="440" height="440" viewBox="0 0 440 440" fill="none" xmlns="http://www.w3.org/2000/svg">
<g clip-path="url(#clip0_329_1633)">
<circle cx="220" cy="220" r="217.197" stroke="url(#paint0_linear_329_1633)" stroke-width="5.6051"/>
<path fill-rule="evenodd" clip-rule="evenodd" d="M335.74 117.38C340.892 213.664 311.476 310.904 221.548 361.529C134.189 305.758 110.62 251.124 106.497 117.38C155.014 111.611 180.349 103.993 221.548 81.2739C260.702 102.693 288.807 111.951 335.74 117.38ZM229.753 147.488C229.496 147.242 229.192 147.043 228.834 146.794C227.063 145.462 222.536 145.367 219.977 146.604C218.993 147.079 218.009 147.935 217.714 148.506C217.32 149.172 217.124 155.64 216.927 176.567L216.73 203.771L215.647 204.627C214.27 205.673 213.482 205.673 212.203 204.342L211.022 203.295V181.418V181.417C211.022 160.491 211.022 159.445 210.136 158.113C208.956 156.211 207.086 155.355 204.035 155.355C200.984 155.355 199.115 156.211 197.934 158.113C197.048 159.445 197.048 160.491 197.048 183.035C197.048 205.864 197.048 206.625 196.162 207.386C195.67 207.766 194.686 208.147 194.096 208.147C194.049 208.147 194.003 208.147 193.957 208.147C191.636 208.154 191.634 208.154 191.537 189.027L191.537 189.002C191.439 171.05 191.438 170.954 190.356 169.528C187.699 165.913 181.106 165.913 178.646 169.623C177.858 170.764 177.563 177.137 176.776 215.281C176.284 235.351 176.579 241.629 178.252 249.619C180.811 261.795 184.058 268.643 190.061 274.541C194.293 278.726 198.229 281.294 203.149 283.102C209.546 285.48 212.105 285.86 220.273 285.86C228.637 285.86 232.967 285.004 239.856 282.245C249.598 278.346 260.62 268.643 265.147 260.082C267.804 254.851 283.057 218.229 283.057 216.707C283.057 214.425 281.877 212.522 279.515 211.19C275.775 209.098 271.248 209.859 269.379 212.903C268.887 213.759 265.738 220.037 262.49 226.885C259.243 233.734 256.192 239.727 255.798 240.107C254.913 241.153 252.944 241.153 251.96 240.107C251.173 239.441 251.173 235.922 251.173 198.92V158.494L250.09 156.972C247.335 152.977 240.446 152.977 237.888 156.972C237.791 157.116 237.703 157.247 237.623 157.383C236.804 158.771 236.788 160.633 236.608 181.513C236.453 201.147 236.482 204.604 235.201 205.187C234.856 205.344 234.417 205.293 233.853 205.293C233.263 205.293 232.377 205.008 231.983 204.532C231.294 203.771 231.196 201.298 231.196 176.757C231.196 152.045 231.268 148.938 229.753 147.488Z" fill="url(#paint1_linear_329_1633)"/>
</g>
<defs>
<linearGradient id="paint0_linear_329_1633" x1="220" y1="0" x2="220" y2="440" gradientUnits="userSpaceOnUse">
<stop stop-color="#D50000"/>
<stop offset="1"/>
</linearGradient>
<linearGradient id="paint1_linear_329_1633" x1="221.402" y1="81.2739" x2="221.402" y2="361.529" gradientUnits="userSpaceOnUse">
<stop stop-color="#D50000"/>
<stop offset="1"/>
</linearGradient>
<clipPath id="clip0_329_1633">
<rect width="440" height="440" fill="white"/>
</clipPath>
</defs>
</svg>
