<svg width="440" height="440" viewBox="0 0 440 440" fill="none" xmlns="http://www.w3.org/2000/svg">
<circle cx="220" cy="220" r="217.197" stroke="url(#paint0_linear_329_1758)" stroke-width="5.6051"/>
<path d="M276.825 282.886C340.001 247.32 360.667 179.007 357.048 111.366C324.076 107.551 304.332 101.047 276.825 86C247.882 101.961 230.084 107.312 195.999 111.366C198.895 205.324 215.453 243.705 276.825 282.886Z" stroke="url(#paint1_linear_329_1758)" stroke-width="11.2102"/>
<path d="M276.803 259.259C326.111 231.163 342.24 177.195 339.415 123.759C313.681 120.745 298.271 115.607 276.803 103.72C254.212 116.329 240.321 120.556 213.719 123.759C215.979 197.986 228.902 228.307 276.803 259.259Z" fill="url(#paint2_linear_329_1758)" stroke="url(#paint3_linear_329_1758)" stroke-width="2.80255"/>
<path d="M128.642 325.278V269.813L151.753 269.813L161.047 269.809L161.047 269.809L161.047 269.634L161.047 269.809L161.047 269.809L161.048 269.809L161.05 269.809L161.06 269.809L161.097 269.809L161.241 269.809L161.774 269.809C162.225 269.808 162.852 269.808 163.555 269.808C164.962 269.808 166.674 269.809 167.895 269.813H167.895H219.05C222.701 269.813 226.202 271.263 228.783 273.844C231.365 276.426 232.815 279.927 232.815 283.578C232.815 287.229 231.365 290.73 228.783 293.311C226.202 295.893 222.701 297.343 219.05 297.343H193.522C191.011 297.343 188.603 298.341 186.827 300.116C185.051 301.892 184.053 304.301 184.053 306.812C184.053 309.323 185.051 311.732 186.827 313.507C188.603 315.283 191.011 316.281 193.522 316.281H230.697H230.697C231.409 316.279 232.119 316.199 232.814 316.044L232.815 316.044L310.649 298.142L310.654 298.141L311.014 298.048L311.017 298.047C313.351 297.399 315.843 297.637 318.012 298.716C320.182 299.794 321.875 301.637 322.768 303.889C323.66 306.142 323.688 308.644 322.846 310.916C322.004 313.188 320.352 315.068 318.207 316.194L318.211 316.207L274.123 334.979L201.665 353.097L128.642 325.278ZM82.1742 269.809H109.705V325.224H82.1742V269.809Z" fill="url(#paint4_linear_329_1758)" stroke="url(#paint5_linear_329_1758)" stroke-width="0.350318"/>
<defs>
<linearGradient id="paint0_linear_329_1758" x1="220" y1="0" x2="220" y2="440" gradientUnits="userSpaceOnUse">
<stop stop-color="#D50000"/>
<stop offset="1"/>
</linearGradient>
<linearGradient id="paint1_linear_329_1758" x1="276.722" y1="86" x2="276.722" y2="282.886" gradientUnits="userSpaceOnUse">
<stop stop-color="#D50000"/>
<stop offset="1"/>
</linearGradient>
<linearGradient id="paint2_linear_329_1758" x1="276.722" y1="103.72" x2="276.722" y2="259.259" gradientUnits="userSpaceOnUse">
<stop stop-color="#D50000"/>
<stop offset="1"/>
</linearGradient>
<linearGradient id="paint3_linear_329_1758" x1="276.722" y1="103.72" x2="276.722" y2="259.259" gradientUnits="userSpaceOnUse">
<stop stop-color="#D50000"/>
<stop offset="1"/>
</linearGradient>
<linearGradient id="paint4_linear_329_1758" x1="202.816" y1="269.634" x2="202.816" y2="353.28" gradientUnits="userSpaceOnUse">
<stop stop-color="#D50000"/>
<stop offset="1"/>
</linearGradient>
<linearGradient id="paint5_linear_329_1758" x1="202.816" y1="269.633" x2="202.816" y2="353.28" gradientUnits="userSpaceOnUse">
<stop stop-color="#D50000"/>
<stop offset="1"/>
</linearGradient>
</defs>
</svg>
