<svg width="1322" height="540" viewBox="0 0 1322 540" fill="none" xmlns="http://www.w3.org/2000/svg">
<g clip-path="url(#clip0_436_2447)">
<path fill-rule="evenodd" clip-rule="evenodd" d="M159.982 490.828C163.69 494.352 167.985 497.203 172.673 499.251C189.288 506.702 157.46 517.648 130.758 506.883C85.6609 507.724 98.9294 499.96 126.901 499.696C147.174 499.499 155.844 497.702 155.07 493.103C153.525 493.199 151.998 492.723 150.782 491.765C149.566 490.807 148.745 489.435 148.477 487.91C146.416 479.438 128.697 480.641 128.368 486.46C128.038 492.279 115.676 492.625 115.017 484.993C114.357 477.361 90.0947 476.751 94.4957 481.91C98.8965 487.07 83.7653 485.57 82.7104 479.652C81.6555 473.734 72.8208 472.778 67.6617 476.157C62.5026 479.536 48.4263 477.69 60.1126 474.097C71.7989 470.503 61.0521 468.838 49.7284 470.8C38.4048 472.762 20.6857 468.492 40.0035 467.141C59.3213 465.789 47.5198 460.91 27.3449 461.041C20.2408 460.827 8.40606 457.942 21.6417 457.366C34.8774 456.789 29.5205 453.673 16.9442 453.343C4.36782 453.014 -10.4996 449.832 14.1422 449.7C38.7839 449.569 24.1967 444.755 12.7082 442.876C1.2197 440.997 -9.41167 437.931 13.5488 440.436C36.5093 442.942 32.3885 439.513 17.521 435.788C2.65357 432.062 9.16438 430.15 23.2077 432.244C37.251 434.337 44.9484 432.887 29.537 429.59C14.1256 426.293 27.8887 422.436 40.4321 426.491C52.9755 430.546 67.0353 429.26 51.5745 424.43C36.1136 419.601 55.382 413.864 70.1341 422.436C84.8861 431.008 92.0068 429.029 84.0126 421.809C76.0185 414.589 98.4185 416.568 104.155 421.809C109.891 427.051 120.885 429.854 123.522 422.831C126.159 415.809 145.279 420.359 140.515 424.48C135.752 428.601 144.043 431.568 157.658 426.788C171.272 422.007 183.222 424.48 176.843 430.233C170.465 435.986 179.959 436.563 192.716 433.892C205.474 431.222 214.045 433.595 204.535 437.189C195.024 440.783 200.216 442.134 216.073 441.096C231.929 440.057 240.994 442.563 224.116 444.392C207.238 446.222 206.479 449.536 231.401 447.97C256.323 446.404 257.494 451.266 238.736 452.536C219.979 453.805 230.594 458.651 244.785 458.058C258.977 457.464 264.565 463.168 247.406 462.558C230.248 461.948 217.16 464.552 247.67 467.503C278.179 470.454 264.993 475.745 245.362 471.822C225.731 467.899 221.248 473.289 240.731 475.745C260.213 478.201 255.351 486.872 234.236 479.042C213.122 471.212 206.826 476.273 224.94 482.174C243.055 488.075 237.401 489.724 215.281 484.383C193.161 479.042 176.843 477.789 197.974 486.822C208.358 491.24 206.48 493.614 200.628 493.894C209.875 497.735 222.221 499.301 241.357 499.482C269.938 499.746 300.695 507.51 253.686 506.669C251.23 517.433 194.744 506.488 194.579 499.037C194.579 497.257 193.194 495.196 190.986 492.987C186.648 492.234 182.525 490.547 178.904 488.042C168.338 479.718 158.548 483.476 160.295 488.141C160.483 488.577 160.553 489.055 160.498 489.527C160.443 489.998 160.265 490.447 159.982 490.828Z" fill="#190839"/>
<path fill-rule="evenodd" clip-rule="evenodd" d="M187.359 394.133C180.865 414.557 170.333 459.245 178.986 485.487C187.228 510.428 143.054 547.072 128.483 511.038C82.4302 513.84 104.435 487.96 132.719 486.987C161.003 486.015 170.629 474.905 170.629 443.338C170.629 411.771 188.381 345.95 187.359 394.133Z" fill="#F9A818"/>
<path fill-rule="evenodd" clip-rule="evenodd" d="M192.502 394.133C199.095 414.557 209.545 459.245 200.875 485.487C192.634 510.428 236.824 547.072 251.379 511.038C297.431 513.84 275.444 487.96 247.159 486.987C218.875 486.015 209.249 474.905 209.249 443.338C209.249 411.771 191.579 345.95 192.502 394.133Z" fill="#F9A818"/>
<path fill-rule="evenodd" clip-rule="evenodd" d="M76.5958 357.868C69.739 357.159 61.1679 347.483 74.9475 345.588C88.7271 343.692 87.0128 333.175 74.799 332.087C62.5853 330.999 51.2947 320.383 76.0847 319.922C100.875 319.46 91.5951 303.669 82.3318 297.091C73.0684 290.514 65.8489 280.607 85.9249 288.849C106.001 297.091 105.803 285.734 95.1224 273.305C84.4416 260.876 93.128 254.414 104.814 261.387C116.501 268.36 125.83 263.563 114.127 252.519C102.424 241.474 120.489 228.6 128.5 242.183C136.511 255.766 151.988 251.431 141.966 235.26C131.945 219.089 157.658 199.918 162.751 228.666C167.844 257.414 177.141 250.92 177.355 226.507C177.569 202.094 197.662 209.001 197.431 226.705C197.2 244.409 205.112 253.623 215.562 230.117C226.012 206.611 240.105 221.875 230.759 235.507C221.413 249.139 226.309 259.195 245.313 243.205C264.318 227.216 273.466 235.491 260.609 254.744C247.753 273.997 256.62 275.926 272.361 267.025C288.102 258.123 294.036 265.986 280.422 278.184C266.807 290.383 270.532 294.751 287.509 291.372C304.486 287.992 310.783 296.317 291.844 302.399C272.905 308.482 268.439 319.576 295.141 314.35C321.843 309.125 317.458 325.609 297.333 329.631C277.207 333.653 282.317 350.088 297.168 348.11C312.019 346.131 311.294 365.187 294.712 363.176C278.13 361.165 262.225 369.868 289.355 379.957C316.486 390.045 297.415 407.469 282.185 394.38C266.955 381.292 256.406 399.325 273.136 407.567C289.866 415.809 275.246 444.821 262.9 418.727C250.555 392.633 238.605 409.447 250.077 429.211C261.549 448.975 254.033 454.481 237.929 436.612C221.825 418.744 206.876 414.639 217.886 444.739C228.896 474.839 198.667 476.635 197.464 448.777C196.261 420.919 182.234 433.497 178.723 449.124C175.212 464.75 159.916 476.174 167.399 447.788C174.882 419.403 155.861 423.458 148.922 442.975C141.983 462.492 129.291 463.597 137.219 438.03C145.147 412.463 121.478 410.732 120.176 427.727C118.874 444.722 105.342 439.959 110.929 420.161C116.517 400.364 108.869 397.084 99.82 408.458C90.7709 419.831 78.8703 413.568 94.5948 401.551C110.319 389.534 101.452 383.962 87.8864 390.605C74.3211 397.248 61.514 382.924 82.2658 378.407C103.018 373.891 96.9355 357.489 76.5958 357.868Z" fill="#9747FF"/>
<path fill-rule="evenodd" clip-rule="evenodd" d="M220.49 353.038C226.006 353.038 231.398 351.403 235.984 348.338C240.57 345.273 244.145 340.917 246.256 335.821C248.367 330.724 248.919 325.116 247.843 319.706C246.767 314.296 244.11 309.326 240.21 305.425C236.31 301.525 231.34 298.868 225.931 297.792C220.521 296.716 214.913 297.268 209.817 299.379C204.721 301.49 200.366 305.065 197.301 309.652C194.237 314.239 192.601 319.631 192.601 325.147C192.636 332.534 195.585 339.608 200.808 344.831C206.03 350.054 213.104 353.004 220.49 353.038Z" fill="white"/>
<path fill-rule="evenodd" clip-rule="evenodd" d="M217.16 310.592C218.73 309.935 220.46 309.758 222.13 310.084C223.8 310.41 225.336 311.224 226.544 312.423C227.752 313.622 228.577 315.152 228.915 316.82C229.253 318.488 229.089 320.219 228.443 321.793C227.798 323.368 226.7 324.716 225.288 325.666C223.877 326.617 222.215 327.128 220.513 327.134C218.812 327.14 217.146 326.641 215.728 325.701C214.309 324.76 213.202 323.42 212.545 321.85C211.664 319.745 211.656 317.377 212.521 315.265C213.387 313.154 215.055 311.473 217.16 310.592Z" fill="black"/>
<path fill-rule="evenodd" clip-rule="evenodd" d="M221.347 310.971C221.856 310.759 222.416 310.703 222.956 310.809C223.497 310.915 223.994 311.18 224.384 311.568C224.775 311.957 225.041 312.453 225.15 312.993C225.258 313.533 225.204 314.094 224.994 314.603C224.785 315.113 224.428 315.548 223.971 315.855C223.514 316.163 222.975 316.327 222.425 316.328C221.874 316.329 221.335 316.167 220.876 315.862C220.417 315.557 220.059 315.122 219.847 314.614C219.704 314.276 219.63 313.914 219.628 313.548C219.626 313.181 219.697 312.818 219.836 312.479C219.976 312.14 220.181 311.832 220.441 311.574C220.7 311.315 221.008 311.11 221.347 310.971Z" fill="white"/>
<path fill-rule="evenodd" clip-rule="evenodd" d="M154.823 353.038C160.338 353.038 165.73 351.403 170.317 348.338C174.903 345.273 178.478 340.917 180.588 335.821C182.699 330.724 183.251 325.116 182.175 319.706C181.099 314.296 178.443 309.326 174.543 305.425C170.643 301.525 165.673 298.868 160.263 297.792C154.853 296.716 149.246 297.268 144.15 299.379C139.054 301.49 134.698 305.065 131.634 309.652C128.569 314.239 126.934 319.631 126.934 325.147C126.968 332.534 129.918 339.608 135.14 344.831C140.363 350.054 147.437 353.004 154.823 353.038Z" fill="white"/>
<path fill-rule="evenodd" clip-rule="evenodd" d="M151.51 310.592C153.079 309.935 154.809 309.758 156.479 310.084C158.149 310.41 159.686 311.224 160.893 312.423C162.101 313.622 162.926 315.152 163.264 316.82C163.602 318.488 163.438 320.219 162.793 321.793C162.147 323.368 161.049 324.716 159.638 325.666C158.226 326.617 156.564 327.128 154.863 327.134C153.161 327.14 151.496 326.641 150.077 325.701C148.659 324.76 147.551 323.42 146.894 321.85C146.456 320.808 146.228 319.69 146.223 318.56C146.218 317.429 146.436 316.309 146.864 315.263C147.293 314.217 147.924 313.266 148.721 312.464C149.518 311.663 150.466 311.026 151.51 310.592Z" fill="black"/>
<path fill-rule="evenodd" clip-rule="evenodd" d="M155.63 310.971C156.139 310.759 156.699 310.703 157.24 310.809C157.78 310.915 158.277 311.18 158.667 311.568C159.058 311.957 159.324 312.453 159.433 312.993C159.541 313.533 159.487 314.094 159.278 314.603C159.068 315.113 158.712 315.548 158.254 315.855C157.797 316.163 157.259 316.327 156.708 316.328C156.157 316.329 155.618 316.167 155.159 315.862C154.7 315.557 154.342 315.122 154.13 314.614C153.988 314.276 153.913 313.914 153.911 313.548C153.909 313.181 153.98 312.818 154.12 312.479C154.259 312.14 154.465 311.832 154.724 311.574C154.983 311.315 155.291 311.11 155.63 310.971Z" fill="white"/>
<path fill-rule="evenodd" clip-rule="evenodd" d="M119.005 329.73C129.703 320.499 161.861 311.251 187.574 313.674C213.287 316.097 119.005 238.293 119.005 329.73Z" fill="#9747FF"/>
<path fill-rule="evenodd" clip-rule="evenodd" d="M256.307 329.73C245.61 320.499 213.452 311.251 187.739 313.674C162.026 316.097 256.307 238.293 256.307 329.73Z" fill="#9747FF"/>
<path d="M121.874 296.96C121.099 297.899 120.473 297.339 120.489 295.707C120.501 294.058 120.993 292.448 121.907 291.075C126.176 285.948 135.884 280.162 147.356 275.596C158.078 271.202 169.393 268.424 180.931 267.354C181.607 267.354 181.854 268.788 181.475 270.651C181.096 272.514 180.223 274.08 179.547 274.129C168.127 275.165 156.923 277.887 146.301 282.206C135.142 286.739 125.747 292.229 121.874 296.96Z" fill="#0F4036"/>
<path d="M259.01 318.109C259.735 319.081 260.378 318.554 260.461 316.938C260.537 315.292 260.13 313.659 259.29 312.24C255.302 306.883 245.923 300.57 234.715 295.394C224.239 290.459 213.092 287.098 201.634 285.421C200.958 285.421 200.628 286.806 200.925 288.718C201.222 290.63 201.963 292.212 202.573 292.295C213.927 293.944 224.971 297.277 235.341 302.185C246.318 307.18 255.334 313.163 259.01 318.109Z" fill="#0F4036"/>
<path d="M241.337 384.341C241.563 385.763 240.545 387.083 239.111 387.226C237.811 387.357 236.629 386.465 236.396 385.179L236.313 384.721L235.456 382.248L234.22 379.973L232.572 377.896L230.643 375.968L228.352 374.204L225.748 372.555L222.831 371.121L219.633 369.852L216.188 368.731L212.529 367.758L208.655 366.951L204.634 366.275L200.463 365.747L196.194 365.335L191.859 365.039L187.458 364.857H183.041H178.624L174.239 364.956L169.921 365.121L165.685 365.352L161.564 365.648L157.575 365.978L153.768 366.341L150.158 366.736L146.862 367.148L143.73 367.561L140.862 367.989L138.323 368.385L136.098 368.78C135.007 368.985 133.908 368.424 133.42 367.427C132.702 365.961 133.535 364.188 135.129 363.836L135.208 363.819L137.499 363.423L140.12 363.011L143.037 362.582L146.235 362.154L149.68 361.742L153.339 361.33L157.213 360.967L161.267 360.621L165.454 360.324L169.756 360.093L174.173 359.928L178.64 359.83H183.156L187.689 359.912L192.205 360.093L196.689 360.39L201.106 360.819L205.441 361.379L209.661 362.088L213.749 362.945L217.671 363.984L221.413 365.187L224.94 366.605L228.237 368.253L231.27 370.116L234.006 372.226L236.396 374.599L238.44 377.27L240.088 380.237L241.209 383.534L241.337 384.341Z" fill="#0F4036"/>
<path fill-rule="evenodd" clip-rule="evenodd" d="M419.701 485.702C424.051 491.691 429.956 496.377 436.777 499.251C453.391 506.702 421.547 517.648 394.861 506.883C349.764 507.724 363.017 499.96 391.004 499.696C418.992 499.433 424.876 496.086 414.261 486.641C413.536 485.998 412.844 485.306 412.168 484.581C407.602 484.581 403.267 485.899 402.278 488.421C400.63 490.169 389.257 491.174 389.208 487.218C389.158 483.262 377.917 482.273 375.082 485.471C372.247 488.669 359.555 490.235 362.522 483.526C365.489 476.817 347.688 477.229 339.446 478.844C331.205 480.46 319.865 481.102 331.403 476.8C342.941 472.498 330.924 471.064 316.436 472.284C301.948 473.503 296.41 470.338 305.327 468.113C314.244 465.888 310.519 462.772 297.349 464.454C284.179 466.135 273.218 459.591 288.531 459.228C303.843 458.865 301.47 454.151 283.158 454.712C264.845 455.272 248.395 445.843 279.119 448.266C309.843 450.689 304.404 447.327 278.905 444.063C253.406 440.799 263.428 436.299 281.905 438.706C300.382 441.112 311.112 440.189 288.003 434.271C264.895 428.354 282.762 426.59 295.75 430.892C308.739 435.195 319.898 435.211 305.821 428.007C291.745 420.804 301.684 419.436 320.013 425.419C338.342 431.403 341.605 429.277 334.485 423.886C327.364 418.496 336.413 417.936 347.276 423.194C358.138 428.452 363.214 428.024 361.978 423.029C360.742 418.035 370.335 417.425 374.126 423.326C377.917 429.227 388.812 431.865 387.065 424.018C385.318 416.172 401.899 419.518 403.35 425.436C404.8 431.354 422.651 432.161 422.635 427.925C422.618 423.689 442.414 426.392 438.062 430.562C433.711 434.733 440.535 440.156 454.859 434.205C469.182 428.255 484.742 435.672 468.951 438.03C453.161 440.387 470.6 445.612 481.412 442.2C492.225 438.788 520.658 446.535 491.648 446.404C462.638 446.272 478.577 451.711 500.845 451.233C523.113 450.755 527.811 453.492 506.878 455.47C485.945 457.448 479.583 460.893 512.581 461.915C545.579 462.937 543.272 471.278 513.982 467.932C484.692 464.585 495.851 469.992 511.741 472.992C527.63 475.992 537.388 481.597 508.757 475.861C480.127 470.124 481.709 475.762 501.142 480.179C520.575 484.597 519.982 488.158 494.384 482.668C468.786 477.179 463.627 483.295 481.198 485.883C498.769 488.471 491.912 491.471 471.984 487.366C452.056 483.262 447.655 484.877 458.204 488.8C463.776 490.861 464.138 492.509 461.715 492.74C471.275 497.586 484.148 499.499 505.428 499.696C534.009 499.96 564.765 507.724 517.757 506.883C515.301 517.648 458.814 506.702 458.649 499.251C458.649 496.532 455.501 493.152 450.919 489.658L450.243 489.295C439.859 483.493 432.821 485.141 437.881 489.658C442.941 494.174 426.146 495.724 424.332 489.559C423.914 488.6 423.277 487.752 422.473 487.082C421.669 486.413 420.72 485.94 419.701 485.702Z" fill="#142C38"/>
<path fill-rule="evenodd" clip-rule="evenodd" d="M451.463 394.133C444.969 414.557 434.436 459.245 443.09 485.487C451.331 510.428 407.157 547.072 392.587 511.038C346.534 513.84 368.538 487.96 396.823 486.987C425.107 486.015 434.733 474.905 434.733 443.338C434.733 411.771 452.386 345.95 451.463 394.133Z" fill="#F9A818"/>
<path fill-rule="evenodd" clip-rule="evenodd" d="M456.605 394.133C463.198 414.557 473.649 459.245 464.979 485.487C456.737 510.428 500.927 547.072 515.482 511.038C561.534 513.84 539.547 487.96 511.262 486.987C482.978 486.015 473.352 474.905 473.352 443.338C473.352 411.771 455.682 345.95 456.605 394.133Z" fill="#F9A818"/>
<path fill-rule="evenodd" clip-rule="evenodd" d="M420.788 449.239C417.113 455.091 404.652 458.503 409.053 445.217C413.454 431.931 403.234 428.931 396.888 439.415C390.543 449.898 376.021 455.355 386.521 432.821C397.02 410.287 378.79 411.721 368.802 417.145C358.813 422.568 346.649 424.727 363.033 410.32C379.417 395.913 369.016 391.1 353.143 395.204C337.27 399.309 335.325 388.611 346.731 381.259C358.137 373.907 357.94 363.341 342.874 368.978C327.809 374.616 324.216 352.725 339.94 351.522C355.665 350.318 358.599 334.527 339.66 336.389C320.722 338.252 314.936 306.718 342.957 314.795C370.978 322.872 369.329 311.696 347.473 300.734C325.617 289.773 340.715 274.805 356.506 282.816C372.296 290.828 384.048 287.762 367.599 267.981C351.149 248.2 370.994 242.299 379.136 256.722C387.279 271.146 398.438 271.162 392.471 247.046C386.504 222.93 397.976 218.38 409.564 238.392C421.151 258.403 426.821 251.332 425.766 233.265C424.711 215.199 434.387 213.353 439.348 230.958C444.309 248.563 449.848 247.145 454.183 230.381C458.518 213.616 468.852 211.655 466.017 231.353C463.182 251.052 471.094 259.937 478.165 233.694C485.236 207.451 498.109 218.628 492.851 238.458C487.593 258.288 504.587 260.958 509.334 246.7C514.081 232.441 530.893 241.557 521.778 255.552C512.663 269.547 513.537 287.663 534.47 267.766C555.403 247.87 562.722 272.712 544.261 280.558C525.8 288.404 537.322 305.877 552.041 294.471C566.76 283.064 586.407 309.009 557.546 308.581C528.685 308.152 538.508 326.301 561.304 324.719C584.1 323.136 585.715 332.301 562.573 338.879C539.431 345.456 529.163 357.011 561.024 360.456C592.885 363.901 581.182 391.776 555.65 380.567C530.119 369.357 535.212 387.49 547.706 397.545C560.2 407.6 563.678 426.343 541.508 407.106C519.339 387.869 514.559 406.809 529.031 421.579C543.503 436.348 538.92 448.299 519.471 429.821C500.021 411.342 488.005 431.898 502.691 440.585C517.377 449.272 507.125 459.294 491.829 445.53C476.533 431.766 470.286 437.288 476.418 450.327C482.549 463.366 471.77 471.394 467.913 451.975C464.056 432.557 455.155 438.063 455.138 453.179C455.122 468.294 436.562 473.52 441.705 452.849C446.848 432.178 429.244 430.777 420.788 449.239Z" fill="#1DE783"/>
<path d="M521.053 288.668C521.778 289.575 522.388 289.047 522.405 287.498C522.415 285.923 521.975 284.379 521.136 283.047C517.147 278.102 507.949 272.382 497.104 267.799C486.947 263.435 476.198 260.601 465.209 259.393C464.567 259.393 464.303 260.744 464.633 262.541C464.962 264.338 465.754 265.838 466.396 265.838C477.279 267.006 487.927 269.783 497.994 274.08C508.576 278.662 517.377 284.069 521.053 288.668Z" fill="#0F4036"/>
<path d="M381.84 289.558C381.147 290.481 380.521 289.987 380.455 288.437C380.385 286.864 380.781 285.304 381.592 283.954C385.416 278.844 394.383 272.844 405.097 267.931C415.11 263.235 425.764 260.046 436.711 258.469C437.354 258.469 437.667 259.805 437.387 261.618C437.106 263.431 436.381 264.915 435.738 265.014C424.891 266.559 414.336 269.715 404.421 274.377C393.987 279.157 385.367 284.844 381.84 289.558Z" fill="#0F4036"/>
<path fill-rule="evenodd" clip-rule="evenodd" d="M484.725 353.038C490.24 353.035 495.631 351.397 500.215 348.33C504.799 345.263 508.371 340.906 510.479 335.809C512.588 330.713 513.138 325.105 512.06 319.696C510.982 314.287 508.324 309.319 504.423 305.42C500.522 301.521 495.553 298.866 490.143 297.791C484.734 296.716 479.127 297.27 474.032 299.381C468.937 301.493 464.583 305.067 461.519 309.654C458.455 314.24 456.82 319.632 456.82 325.147C456.829 332.545 459.772 339.636 465.004 344.865C470.236 350.095 477.328 353.034 484.725 353.038Z" fill="white"/>
<path fill-rule="evenodd" clip-rule="evenodd" d="M481.396 317.202C482.965 316.547 484.694 316.371 486.363 316.697C488.032 317.024 489.567 317.837 490.774 319.036C491.981 320.234 492.806 321.764 493.144 323.431C493.482 325.098 493.319 326.828 492.674 328.402C492.03 329.976 490.934 331.324 489.524 332.275C488.114 333.226 486.453 333.738 484.753 333.747C483.052 333.755 481.387 333.258 479.968 332.32C478.549 331.383 477.44 330.045 476.78 328.477C476.342 327.434 476.113 326.314 476.108 325.183C476.103 324.051 476.321 322.929 476.749 321.882C477.178 320.835 477.809 319.882 478.606 319.079C479.404 318.276 480.352 317.638 481.396 317.202Z" fill="black"/>
<path fill-rule="evenodd" clip-rule="evenodd" d="M485.516 317.598C486.025 317.386 486.585 317.329 487.126 317.436C487.666 317.542 488.163 317.806 488.553 318.195C488.944 318.584 489.21 319.08 489.319 319.62C489.427 320.16 489.373 320.72 489.164 321.23C488.954 321.739 488.598 322.175 488.14 322.482C487.683 322.789 487.145 322.954 486.594 322.955C486.043 322.956 485.504 322.794 485.045 322.489C484.586 322.184 484.228 321.749 484.017 321.241C483.732 320.559 483.731 319.792 484.012 319.108C484.293 318.425 484.835 317.882 485.516 317.598Z" fill="white"/>
<path fill-rule="evenodd" clip-rule="evenodd" d="M419.14 353.038C424.651 353.012 430.029 351.354 434.598 348.274C439.167 345.193 442.721 340.828 444.812 335.73C446.903 330.631 447.436 325.027 446.345 319.626C445.254 314.224 442.588 309.267 438.682 305.379C434.777 301.492 429.807 298.848 424.401 297.783C418.995 296.717 413.394 297.277 408.306 299.392C403.217 301.507 398.869 305.082 395.811 309.666C392.752 314.249 391.12 319.637 391.12 325.147C391.154 332.557 394.122 339.65 399.373 344.877C404.624 350.104 411.732 353.038 419.14 353.038Z" fill="white"/>
<path fill-rule="evenodd" clip-rule="evenodd" d="M415.728 317.202C417.298 316.547 419.026 316.371 420.695 316.697C422.365 317.024 423.9 317.837 425.107 319.036C426.314 320.234 427.138 321.764 427.476 323.431C427.815 325.098 427.651 326.828 427.007 328.402C426.363 329.976 425.266 331.324 423.856 332.275C422.446 333.226 420.786 333.738 419.085 333.747C417.384 333.755 415.719 333.258 414.3 332.32C412.881 331.383 411.772 330.045 411.113 328.477C410.674 327.434 410.446 326.314 410.441 325.183C410.435 324.051 410.653 322.929 411.082 321.882C411.51 320.835 412.141 319.882 412.939 319.079C413.736 318.276 414.684 317.638 415.728 317.202Z" fill="black"/>
<path fill-rule="evenodd" clip-rule="evenodd" d="M419.849 317.598C420.357 317.386 420.917 317.329 421.458 317.436C421.999 317.542 422.495 317.806 422.886 318.195C423.276 318.584 423.542 319.08 423.651 319.62C423.76 320.16 423.706 320.72 423.496 321.23C423.286 321.739 422.93 322.175 422.473 322.482C422.015 322.789 421.477 322.954 420.926 322.955C420.375 322.956 419.836 322.794 419.377 322.489C418.919 322.184 418.561 321.749 418.349 321.241C418.069 320.558 418.07 319.793 418.351 319.111C418.632 318.429 419.17 317.885 419.849 317.598Z" fill="white"/>
<path d="M474.934 368.813C475.934 370.126 475.314 372.033 473.733 372.507L473.517 372.572C472.59 372.85 471.585 372.572 470.933 371.857L470.863 371.78L470.187 370.923L469.446 370.116L468.638 369.39L467.748 368.714L466.825 368.121L465.819 367.577L464.781 367.116L463.677 366.703L462.539 366.374L461.352 366.11L460.149 365.912L458.913 365.78H457.644H456.375H455.089L453.803 365.929L452.518 366.143L451.249 366.423L450.012 366.786L448.776 367.198L447.573 367.676L446.403 368.22L445.282 368.83L444.21 369.489L443.172 370.214L442.199 370.989L441.293 371.83L440.452 372.72L439.678 373.676L438.969 374.665L438.94 374.7C437.934 375.907 436.077 375.899 435.081 374.682L434.981 374.559C434.376 373.821 434.297 372.784 434.782 371.962L435.705 370.643L436.711 369.423L437.799 368.286L438.952 367.214L440.172 366.225L441.458 365.335L442.793 364.511L444.177 363.769L445.595 363.093L447.046 362.516L448.529 362.022L450.045 361.593L451.562 361.247L453.111 360.983L454.644 360.819L456.193 360.72H457.743H459.276L460.809 360.885L462.308 361.132L463.792 361.461L465.242 361.89L466.66 362.418L468.028 363.027L469.347 363.736L470.616 364.56L471.819 365.467L472.94 366.473L473.978 367.594L474.934 368.813Z" fill="#0F4036"/>
<path fill-rule="evenodd" clip-rule="evenodd" d="M837.011 420.128C837.011 418.266 845.632 416.452 849.093 420.425C852.554 424.398 862.823 424.513 862.527 421.183C862.23 417.853 871.543 415.348 874.823 422.271C878.103 429.194 892.772 427.563 898.294 425.37C903.816 423.178 912.914 421.76 906.849 426.854C900.783 431.947 912.189 432.574 923.331 430.348C934.474 428.123 941.957 430.925 936.303 433.744C930.65 436.563 936.534 439.464 946.193 436.876C955.852 434.288 970.769 440.074 958.127 441.475C945.484 442.876 951.534 447.459 966.566 445.645C981.598 443.832 1003.59 452.124 975.516 451.81C947.446 451.497 954.962 454.481 979.324 456.014C1003.69 457.547 999.103 462.608 981.384 461.569C963.665 460.531 955.423 462.097 980.049 466.432C1004.67 470.767 991.076 473.751 976.39 470.339C961.703 466.926 952.259 467.685 970.357 473.916C988.455 480.147 981.235 482.158 960.582 477.493C939.93 472.828 939.007 475.102 949.671 480.015C960.335 484.927 953.149 486.114 939.452 481.663C925.754 477.212 921.815 477.921 927.172 482.85C930.106 485.537 929.166 487.119 926.364 487.103C935.677 492.51 948.187 494.587 969.928 494.801C997.125 495.048 1026.37 502.433 981.648 501.625C979.323 511.878 925.606 501.46 925.425 494.372C925.425 490.449 918.568 485.059 910.31 479.998C903.931 477.41 898.92 477.756 905.118 483.592C913.359 491.306 896.415 489.114 890.119 483.279C889.773 482.965 889.394 482.669 888.998 482.372C893.092 487.631 898.458 491.761 904.591 494.372C920.398 501.46 890.102 511.878 864.719 501.625C821.863 502.433 834.423 495.032 861.043 494.801C887.663 494.57 893.267 491.356 883.163 482.372C882.064 481.388 881.044 480.319 880.114 479.174C874.444 478.383 869.449 479.553 871.691 482.141C875.334 486.378 856.247 485.042 856.378 480.493C856.51 475.943 846.027 471.064 839.039 478.004C832.05 484.943 812.501 478.597 823.842 475.135C835.182 471.674 815.996 467.685 809.716 471.839C803.436 475.993 772.811 470.19 797.436 468.328C822.061 466.465 804.029 462.13 785.536 464.141C767.042 466.152 760.811 463.728 776.783 460.316C792.755 456.904 795.194 452.997 766.415 454.267C737.637 455.536 732.412 447.014 760.07 448.349C787.728 449.684 773.602 445.052 757.614 443.107C741.625 441.162 728.505 436.266 757.614 440.041C786.722 443.816 780.558 438.261 760.333 435.195C740.109 432.129 737.538 428.502 763.91 432.244C790.283 435.986 789.376 429.491 772.267 428.107C755.158 426.722 758.405 423.244 778.86 425.997C799.315 428.749 801.557 426.788 789.277 423.606C776.998 420.425 781.81 417.474 795.59 422.568C809.37 427.661 813.886 425.519 805.727 421.348C797.568 417.178 810.425 414.458 817.265 420.524C824.105 426.59 839.764 425.733 837.011 420.128Z" fill="#430101"/>
<path fill-rule="evenodd" clip-rule="evenodd" d="M918.568 394.215C912.37 413.65 902.365 456.179 910.59 481.136C918.42 504.873 876.405 539.736 862.543 505.45C818.732 508.12 839.665 483.41 866.565 482.57C893.465 481.729 902.662 471.031 902.662 441.03C902.662 411.029 919.507 348.291 918.568 394.215Z" fill="#F9A818"/>
<path fill-rule="evenodd" clip-rule="evenodd" d="M923.512 394.215C929.694 413.65 939.715 456.179 931.474 481.136C923.644 504.873 965.675 539.736 979.537 505.45C1023.35 508.12 1002.42 483.41 975.499 482.57C948.583 481.729 939.402 471.031 939.402 441.03C939.402 411.029 922.639 348.291 923.512 394.215Z" fill="#F9A818"/>
<path fill-rule="evenodd" clip-rule="evenodd" d="M926.48 232.936C928.507 226.688 939.238 220.655 938.232 233.925C937.227 247.194 947.364 247.623 950.809 236.48C954.253 225.337 966.401 216.963 961.885 240.123C957.369 263.283 973.901 257.81 981.862 250.491C989.823 243.172 1000.55 238.392 988.752 255.437C976.95 272.481 987.664 274.558 1001.36 267.091C1015.06 259.623 1019.33 269.019 1010.51 278.498C1001.69 287.976 1004.29 297.619 1016.9 288.932C1029.51 280.245 1037.87 299.647 1023.65 304.378C1009.42 309.108 1010.34 324.373 1027.39 318.29C1044.43 312.207 1057.06 339.934 1029.4 338.944C1001.74 337.955 1005.83 347.879 1028.49 352.972C1051.16 358.066 1040.71 375.341 1024.29 371.599C1007.87 367.857 997.718 373.363 1017.48 387.869C1037.24 402.375 1020.28 412.364 1009.44 400.924C998.592 389.484 988.29 392.056 999.367 412.925C1010.44 433.794 1000.9 440.651 985.587 424.859C970.274 409.068 966.665 416.897 971.808 433.332C976.95 449.767 968.511 453.706 959.808 438.59C951.105 423.475 946.391 426.079 946.21 442.563C946.028 459.047 936.996 463.25 935.084 444.393C933.172 425.535 923.793 419.189 923.315 445.036C922.837 470.883 908.382 463.547 908.662 444.03C908.942 424.513 892.641 425.98 891.52 440.189C890.399 454.399 872.812 449.915 877.988 434.898C883.163 419.881 878.251 403.331 863.466 426.557C848.681 449.783 836.253 428.552 851.467 417.013C866.68 405.474 852.027 392.023 841.066 405.952C830.105 419.881 805.991 400.463 832.825 394.199C859.659 387.935 846.308 373.446 825.622 380.171C804.936 386.897 801.343 378.803 821.172 367.396C841 355.989 847.824 342.901 817.628 347.121C787.431 351.341 791.783 322.856 817.941 327.34C844.099 331.823 835.215 316.23 821.369 309.834C807.524 303.438 799.942 286.921 824.864 299.581C849.786 312.24 849.819 293.613 833.105 283.327C816.392 273.041 817.842 260.942 840.011 273.437C862.181 285.932 868.559 264.255 853.016 259.64C837.473 255.024 844.594 243.387 861.9 252.552C879.207 261.717 883.691 255.222 875.087 244.557C866.483 233.892 874.526 224.034 882.57 241.079C890.613 258.123 897.536 250.969 894.108 237.024C890.679 223.078 906.552 213.946 906.585 234.221C906.618 254.497 922.854 251.991 926.48 232.936Z" fill="#FF0000"/>
<path fill-rule="evenodd" clip-rule="evenodd" d="M966.533 355.115C971.782 355.118 976.914 353.565 981.28 350.65C985.646 347.736 989.051 343.593 991.062 338.743C993.073 333.894 993.6 328.558 992.578 323.408C991.556 318.259 989.03 313.529 985.32 309.816C981.609 306.102 976.88 303.573 971.732 302.548C966.584 301.522 961.248 302.047 956.398 304.055C951.547 306.063 947.402 309.465 944.485 313.83C941.568 318.194 940.012 323.326 940.012 328.576C940.025 335.608 942.822 342.348 947.793 347.322C952.763 352.296 959.501 355.098 966.533 355.115Z" fill="white"/>
<path fill-rule="evenodd" clip-rule="evenodd" d="M945.154 321.026C946.657 320.384 948.318 320.204 949.924 320.508C951.531 320.811 953.01 321.586 954.175 322.734C955.339 323.881 956.137 325.348 956.465 326.95C956.794 328.551 956.638 330.214 956.019 331.727C955.4 333.24 954.345 334.535 952.988 335.447C951.631 336.359 950.034 336.846 948.399 336.848C946.764 336.849 945.166 336.364 943.808 335.455C942.449 334.546 941.392 333.253 940.77 331.741C939.946 329.737 939.944 327.489 940.764 325.484C941.585 323.479 943.162 321.877 945.154 321.026Z" fill="black"/>
<path fill-rule="evenodd" clip-rule="evenodd" d="M949.077 321.389C949.402 321.255 949.75 321.186 950.101 321.186C950.452 321.186 950.8 321.256 951.125 321.39C951.449 321.525 951.744 321.722 951.992 321.971C952.241 322.22 952.437 322.515 952.571 322.839C952.706 323.164 952.775 323.512 952.775 323.863C952.774 324.215 952.705 324.563 952.57 324.887C952.436 325.212 952.238 325.507 951.99 325.755C951.741 326.003 951.446 326.2 951.121 326.334C950.465 326.605 949.729 326.605 949.074 326.333C948.418 326.061 947.898 325.539 947.627 324.883C947.356 324.228 947.356 323.491 947.628 322.836C947.9 322.18 948.422 321.66 949.077 321.389Z" fill="white"/>
<path fill-rule="evenodd" clip-rule="evenodd" d="M904.063 355.115C909.312 355.115 914.442 353.559 918.806 350.643C923.17 347.726 926.572 343.581 928.58 338.732C930.589 333.883 931.114 328.546 930.09 323.398C929.066 318.25 926.539 313.521 922.828 309.81C919.117 306.098 914.388 303.571 909.24 302.547C904.093 301.523 898.757 302.048 893.908 304.057C889.059 306.065 884.914 309.467 881.998 313.831C879.082 318.196 877.526 323.327 877.526 328.576C877.539 335.611 880.339 342.353 885.313 347.328C890.287 352.302 897.029 355.102 904.063 355.115Z" fill="white"/>
<path fill-rule="evenodd" clip-rule="evenodd" d="M882.668 321.026C884.172 320.384 885.832 320.204 887.438 320.508C889.045 320.811 890.524 321.586 891.689 322.734C892.854 323.881 893.651 325.348 893.979 326.95C894.308 328.551 894.152 330.214 893.533 331.727C892.914 333.24 891.859 334.535 890.502 335.447C889.145 336.359 887.548 336.846 885.913 336.848C884.279 336.849 882.68 336.364 881.322 335.455C879.963 334.546 878.906 333.253 878.284 331.741C877.46 329.737 877.458 327.489 878.278 325.484C879.099 323.479 880.676 321.877 882.668 321.026Z" fill="black"/>
<path fill-rule="evenodd" clip-rule="evenodd" d="M886.591 321.389C887.075 321.186 887.608 321.131 888.123 321.23C888.638 321.33 889.112 321.58 889.485 321.949C889.858 322.318 890.114 322.79 890.219 323.304C890.324 323.818 890.274 324.352 890.076 324.838C889.878 325.323 889.541 325.74 889.106 326.034C888.672 326.328 888.16 326.487 887.635 326.49C887.11 326.493 886.597 326.34 886.158 326.052C885.72 325.763 885.378 325.351 885.174 324.867C884.904 324.218 884.902 323.488 885.168 322.837C885.433 322.186 885.945 321.665 886.591 321.389Z" fill="white"/>
<path d="M990.878 304.13C991.57 305.053 992.197 304.559 992.262 303.009C992.337 301.442 991.947 299.888 991.142 298.542C987.351 293.449 978.434 287.448 967.769 282.52C957.803 277.814 947.193 274.614 936.287 273.025C935.644 273.025 935.347 274.344 935.611 276.14C935.875 277.937 936.617 279.437 937.259 279.553C948.052 281.113 958.552 284.275 968.412 288.932C978.796 293.729 987.384 299.432 990.878 304.13Z" fill="#0F4036"/>
<path d="M864.867 287.531C864.175 288.454 863.549 287.959 863.483 286.41C863.413 284.846 863.796 283.294 864.587 281.943C868.395 276.849 877.312 270.849 887.976 265.92C897.942 261.217 908.552 258.023 919.458 256.442C920.101 256.36 920.398 257.761 920.134 259.557C919.87 261.354 919.129 262.854 918.486 262.953C907.687 264.52 897.182 267.687 887.317 272.349C876.933 277.129 868.362 282.833 864.867 287.531Z" fill="#0F4036"/>
<path d="M978.428 364.68C979.758 365.377 980.118 367.117 979.173 368.284C978.434 369.195 977.141 369.432 976.127 368.842L975.994 368.764L974.131 367.94L972.285 367.396L970.423 367.116H968.544L966.631 367.28L964.687 367.659L962.709 368.236L960.681 369.028L958.654 369.967L956.594 371.105L954.517 372.374L952.44 373.775L950.347 375.292L948.253 376.94L946.177 378.588L944.1 380.336L942.023 382.149L939.962 383.979L937.919 385.808L935.891 387.638L933.864 389.435L931.869 391.182L929.908 392.831L927.946 394.479L926.002 395.979L924.073 397.38L922.178 398.633L920.266 399.737L918.37 400.677L916.458 401.419L916.172 401.469C914.6 401.746 913.211 400.416 913.419 398.833L913.438 398.689C913.55 397.836 914.162 397.132 914.991 396.902L916.458 396.342L918.024 395.567L919.672 394.611L921.321 393.474L923.084 392.188L924.914 390.77L926.793 389.237L928.705 387.589L930.666 385.94L932.661 384.16L934.688 382.33L936.732 380.484L938.825 378.638L940.935 376.792L943.078 374.978L945.253 373.215L947.429 371.566L949.655 369.918L951.896 368.401L954.154 367.017L956.478 365.731L958.802 364.643L961.143 363.736L963.516 363.044L965.939 362.566L968.362 362.368H970.818L973.274 362.747L975.73 363.473L978.136 364.528L978.428 364.68Z" fill="#0F4036"/>
<path fill-rule="evenodd" clip-rule="evenodd" d="M1230.09 442.81C1236.69 442.563 1249.71 444.838 1238.22 446.288C1226.73 447.739 1234.1 450.69 1245.7 450.212C1257.31 449.733 1273.33 452.107 1251.19 453.855C1229.05 455.602 1246.03 459.607 1258 460.91C1269.96 462.212 1281.98 464.668 1259.2 463.531C1236.42 462.393 1242.95 465.723 1259.38 468.657C1275.82 471.591 1271.48 474.047 1257.12 472.762C1242.77 471.476 1236.95 473.503 1253.55 475.96C1270.15 478.416 1260.85 483.361 1246.2 479.899C1231.54 476.438 1219.94 478.729 1237.82 482.8C1255.71 486.872 1242.93 494.125 1222.66 486.097C1202.38 478.07 1197.54 480.542 1210.64 487.746C1221.49 493.63 1208.4 494.174 1198.2 491.257C1208.09 497.273 1221.27 499.499 1244.73 499.779C1273.31 500.043 1304.07 507.807 1257.04 506.966C1254.6 517.73 1198.1 506.785 1197.95 499.334C1197.95 495.51 1191.74 490.367 1183.94 485.388C1177.2 483.361 1171.76 483.822 1174.05 489.18C1175.7 493.07 1170.98 494.01 1166.12 493.383C1169.16 495.773 1172.48 497.772 1176.01 499.334C1192.64 506.785 1160.8 517.73 1134.11 506.966C1089 507.807 1102.27 500.043 1130.26 499.779C1158.24 499.515 1164.13 496.169 1153.51 486.724C1152.52 485.839 1151.59 484.886 1150.73 483.872C1146.9 483.862 1143.17 485.056 1140.06 487.284C1131.62 493.185 1118.85 491.372 1119.95 484.927C1121.06 478.482 1112.01 478.482 1102.65 482.092C1093.29 485.702 1083.64 483.74 1089.28 479.355C1094.92 474.97 1089.18 473.899 1075.75 476.058C1062.31 478.218 1052.05 476.157 1065.86 473.124C1079.67 470.091 1077.64 466.531 1056.41 469.828C1035.18 473.124 1030.12 467.981 1046.1 465.509C1062.07 463.036 1048.5 458.569 1036.21 460.118C1023.91 461.668 1014.13 456.047 1030.19 455.552C1046.24 455.058 1055.89 451.497 1025.89 450.31C995.889 449.124 1003.6 442.81 1024.49 445.645C1045.37 448.481 1045.07 442.53 1025.51 441.228C1005.94 439.925 1003.29 430.497 1028.67 437.304C1054.06 444.112 1055.67 438.442 1034.52 433.414C1013.38 428.387 1017.18 426.293 1041.46 430.464C1065.74 434.634 1081.5 434.865 1055.14 426.804C1028.79 418.743 1055.14 416.238 1071.38 424.299C1087.62 432.359 1093.47 427.76 1088.11 422.98C1082.75 418.2 1090.35 413.864 1099.05 422.634C1107.76 431.403 1122.82 428.964 1118.39 422.832C1113.95 416.7 1124.87 415.546 1131.57 423.507C1138.28 431.469 1160.7 430.464 1152.61 425.42C1144.51 420.375 1159.35 420.886 1165.08 427.068C1170.82 433.249 1179.47 433.662 1181.48 429.771C1183.5 425.881 1197.64 426.92 1189.99 431.42C1182.34 435.92 1193.38 436.991 1202.01 434.173C1210.63 431.354 1230.03 434.717 1213.74 437.37C1197.46 440.024 1211.96 444.261 1230.09 442.81Z" fill="#006450"/>
<path fill-rule="evenodd" clip-rule="evenodd" d="M1190.73 394.133C1184.22 414.557 1173.69 459.245 1182.36 485.487C1190.6 510.428 1146.41 547.072 1131.84 511.038C1085.8 513.84 1107.79 487.96 1136.07 486.987C1164.36 486.015 1173.98 474.905 1173.98 443.338C1173.98 411.771 1191.65 345.95 1190.73 394.133Z" fill="#F9A818"/>
<path fill-rule="evenodd" clip-rule="evenodd" d="M1195.87 394.133C1202.37 414.557 1212.9 459.245 1204.25 485.487C1196.01 510.428 1240.18 547.072 1254.75 511.038C1300.8 513.84 1278.8 487.96 1250.51 486.987C1222.23 486.015 1212.6 474.905 1212.6 443.338C1212.6 411.771 1194.93 345.95 1195.87 394.133Z" fill="#F9A818"/>
<path fill-rule="evenodd" clip-rule="evenodd" d="M1299.91 296.614C1306.75 295.822 1317.22 303.421 1304.1 308.268C1290.98 313.114 1295.03 323.004 1307.18 321.455C1319.33 319.905 1332.66 327.768 1308.57 333.62C1284.47 339.472 1296.95 352.84 1307.43 357.258C1317.91 361.676 1327.21 369.786 1305.7 366.011C1284.19 362.236 1286.96 373.363 1300.09 383.171C1313.23 392.979 1306.14 401.188 1293.22 396.902C1280.3 392.616 1272.22 399.358 1286.05 407.584C1299.88 415.809 1285.03 432.31 1274.27 420.771C1263.5 409.232 1249.33 416.848 1262.61 430.447C1275.9 444.047 1254.98 468.361 1243.77 441.442C1232.56 414.524 1224.88 422.848 1229.98 446.717C1235.07 470.586 1213.97 468.146 1210.35 450.871C1206.72 433.596 1196.99 426.277 1191.82 451.514C1186.64 476.751 1169.65 464.915 1175.83 449.552C1182.01 434.189 1175.02 425.453 1159.94 445.201C1144.86 464.948 1134.13 458.833 1142.5 437.272C1150.88 415.711 1141.81 415.711 1128.36 427.826C1114.91 439.942 1107.44 433.546 1118.08 418.678C1128.71 403.809 1124.14 400.364 1108.32 407.419C1092.49 414.474 1084.53 407.699 1101.72 397.529C1118.92 387.358 1120.84 375.687 1095.96 386.583C1071.07 397.479 1071.73 380.435 1090.48 372.143C1109.24 363.852 1100.7 348.917 1086.63 354.011C1072.55 359.104 1069.14 340.395 1085.75 338.763C1102.37 337.131 1116.01 325.18 1087.4 321.224C1058.79 317.268 1073.56 296.119 1091.26 305.581C1108.96 315.043 1115.36 295.163 1097.24 290.745C1079.13 286.328 1087.1 254.843 1104.82 277.558C1122.54 300.273 1130.55 281.333 1115.06 264.536C1099.57 247.738 1105.71 240.733 1125.31 254.645C1144.91 268.558 1160.39 269.365 1143.11 242.365C1125.84 215.364 1154.95 207.039 1162.17 233.974C1169.39 260.909 1180.3 245.513 1180.38 229.573C1180.46 213.633 1192.87 199.094 1191.72 228.419C1190.57 257.744 1208.35 249.651 1210.82 229.111C1213.3 208.572 1225.49 204.715 1223.3 231.37C1221.11 258.024 1244.6 254.612 1242.19 237.733C1239.78 220.853 1254.03 222.584 1252.85 243.106C1251.68 263.629 1259.86 265.113 1266.22 252.123C1272.58 239.134 1285.57 242.595 1272.82 257.744C1260.06 272.893 1269.95 276.388 1281.75 266.959C1293.55 257.53 1309.23 268.723 1289.88 277.64C1270.52 286.558 1280.15 301.443 1299.91 296.614Z" fill="#1AB26B"/>
<path fill-rule="evenodd" clip-rule="evenodd" d="M1229.42 353.038C1234.93 353.038 1240.32 351.403 1244.91 348.338C1249.5 345.273 1253.07 340.917 1255.18 335.821C1257.29 330.724 1257.85 325.116 1256.77 319.706C1255.69 314.296 1253.04 309.326 1249.14 305.425C1245.24 301.525 1240.27 298.868 1234.86 297.792C1229.45 296.716 1223.84 297.268 1218.74 299.379C1213.65 301.49 1209.29 305.065 1206.23 309.652C1203.16 314.239 1201.53 319.631 1201.53 325.147C1201.56 332.534 1204.51 339.608 1209.73 344.831C1214.96 350.054 1222.03 353.004 1229.42 353.038Z" fill="white"/>
<path fill-rule="evenodd" clip-rule="evenodd" d="M1226.1 317.202C1227.67 316.547 1229.4 316.371 1231.07 316.697C1232.74 317.024 1234.27 317.837 1235.48 319.036C1236.69 320.234 1237.51 321.764 1237.85 323.431C1238.19 325.098 1238.03 326.828 1237.38 328.402C1236.74 329.976 1235.64 331.324 1234.23 332.275C1232.82 333.226 1231.16 333.738 1229.46 333.747C1227.76 333.755 1226.09 333.258 1224.68 332.32C1223.26 331.383 1222.15 330.045 1221.49 328.477C1221.05 327.434 1220.82 326.314 1220.82 325.183C1220.81 324.051 1221.03 322.929 1221.46 321.882C1221.89 320.835 1222.52 319.882 1223.31 319.079C1224.11 318.276 1225.06 317.638 1226.1 317.202Z" fill="black"/>
<path fill-rule="evenodd" clip-rule="evenodd" d="M1230.22 317.598C1230.73 317.386 1231.29 317.329 1231.83 317.436C1232.37 317.542 1232.87 317.806 1233.26 318.195C1233.65 318.584 1233.92 319.08 1234.03 319.62C1234.13 320.16 1234.08 320.72 1233.87 321.23C1233.66 321.739 1233.31 322.175 1232.85 322.482C1232.39 322.789 1231.85 322.954 1231.3 322.955C1230.75 322.956 1230.21 322.794 1229.75 322.489C1229.29 322.184 1228.94 321.749 1228.72 321.241C1228.44 320.559 1228.44 319.792 1228.72 319.108C1229 318.425 1229.54 317.882 1230.22 317.598Z" fill="white"/>
<path fill-rule="evenodd" clip-rule="evenodd" d="M1163.77 353.038C1169.28 353.038 1174.67 351.403 1179.26 348.338C1183.85 345.273 1187.42 340.917 1189.53 335.821C1191.64 330.724 1192.19 325.116 1191.12 319.706C1190.04 314.296 1187.39 309.326 1183.49 305.425C1179.59 301.525 1174.62 298.868 1169.21 297.792C1163.8 296.716 1158.19 297.268 1153.09 299.379C1148 301.49 1143.64 305.065 1140.58 309.652C1137.51 314.239 1135.88 319.631 1135.88 325.147C1135.91 332.534 1138.86 339.608 1144.08 344.831C1149.31 350.054 1156.38 353.004 1163.77 353.038Z" fill="white"/>
<path fill-rule="evenodd" clip-rule="evenodd" d="M1160.44 317.202C1162.01 316.547 1163.73 316.371 1165.4 316.697C1167.07 317.024 1168.61 317.837 1169.81 319.036C1171.02 320.234 1171.85 321.764 1172.18 323.431C1172.52 325.098 1172.36 326.828 1171.72 328.402C1171.07 329.976 1169.97 331.324 1168.56 332.275C1167.15 333.226 1165.49 333.738 1163.79 333.747C1162.09 333.755 1160.43 333.258 1159.01 332.32C1157.59 331.383 1156.48 330.045 1155.82 328.477C1155.38 327.434 1155.15 326.314 1155.15 325.183C1155.14 324.051 1155.36 322.929 1155.79 321.882C1156.22 320.835 1156.85 319.882 1157.65 319.079C1158.44 318.276 1159.39 317.638 1160.44 317.202Z" fill="black"/>
<path fill-rule="evenodd" clip-rule="evenodd" d="M1164.56 317.598C1165.24 317.311 1166.01 317.308 1166.69 317.587C1167.38 317.867 1167.92 318.407 1168.21 319.089C1168.49 319.771 1168.5 320.539 1168.22 321.224C1167.94 321.909 1167.4 322.454 1166.72 322.741C1166.38 322.882 1166.02 322.956 1165.65 322.958C1165.28 322.96 1164.92 322.889 1164.58 322.751C1164.24 322.612 1163.93 322.408 1163.67 322.151C1163.41 321.893 1163.21 321.587 1163.06 321.249C1162.92 320.911 1162.85 320.549 1162.85 320.183C1162.85 319.816 1162.92 319.453 1163.05 319.114C1163.19 318.775 1163.4 318.467 1163.65 318.207C1163.91 317.946 1164.22 317.739 1164.56 317.598Z" fill="white"/>
<path fill-rule="evenodd" clip-rule="evenodd" d="M1123.35 321.471C1135.99 319.938 1174.2 312.949 1198.82 335.384C1196.95 313.328 1168.64 255.37 1123.35 321.471Z" fill="#1AB26B"/>
<path fill-rule="evenodd" clip-rule="evenodd" d="M1268 321.471C1255.34 319.938 1217.14 312.949 1192.51 335.384C1194.37 313.328 1222.67 255.37 1268 321.471Z" fill="#1AB26B"/>
<path d="M1216.45 400.365C1217.22 401.559 1216.84 403.156 1215.61 403.876C1214.46 404.549 1212.99 404.203 1212.26 403.089L1211.5 401.93L1210.82 401.056L1210.07 400.265L1209.26 399.523L1208.38 398.864L1207.44 398.254L1206.46 397.726L1205.4 397.248L1204.31 396.853L1203.16 396.523L1201.99 396.243L1200.77 396.045L1199.53 395.913H1198.28H1196.99L1195.73 395.995L1194.44 396.127L1193.15 396.342L1191.89 396.638L1190.63 396.985L1189.4 397.397L1188.21 397.891L1187.04 398.419L1185.9 399.029L1184.83 399.704L1183.81 400.43L1182.84 401.204L1181.91 402.045L1181.07 402.935L1180.3 403.875L1179.61 404.88L1179.17 405.487C1178.43 406.498 1177.06 406.81 1175.96 406.215C1174.65 405.505 1174.26 403.809 1175.12 402.59L1175.42 402.16L1176.34 400.858L1177.35 399.638L1178.42 398.485L1179.59 397.413L1180.81 396.441L1182.09 395.534L1183.43 394.71L1184.8 393.968L1186.21 393.309L1187.68 392.732L1189.17 392.221L1190.67 391.792L1192.2 391.462L1193.73 391.199L1195.28 391.017L1196.83 390.918H1198.36H1199.91L1201.43 391.067L1202.93 391.314L1204.41 391.66L1205.86 392.089L1207.28 392.6L1208.65 393.21L1209.97 393.935L1211.25 394.743L1212.44 395.649L1213.56 396.671L1214.61 397.792L1215.57 399.012L1216.45 400.365Z" fill="#0F4036"/>
<path d="M1268.6 285.849C1269.77 286.179 1269.96 285.371 1269.04 284.036C1268.1 282.678 1266.78 281.624 1265.25 281.003C1258.84 279.173 1247.55 279.849 1235.58 282.553C1224.26 284.983 1213.36 289.083 1203.24 294.718C1202.67 295.064 1203.24 296.366 1204.66 297.751C1206.08 299.136 1207.63 299.894 1208.2 299.548C1218.22 293.959 1229.01 289.898 1240.23 287.498C1251.88 284.959 1262.66 284.151 1268.6 285.849Z" fill="#0F4036"/>
<path d="M1129.02 286.739C1127.87 287.119 1127.64 286.311 1128.49 284.943C1129.38 283.551 1130.65 282.447 1132.15 281.761C1138.48 279.651 1149.77 279.866 1161.94 282.041C1173.36 283.984 1184.42 287.617 1194.77 292.822C1195.36 293.135 1194.77 294.47 1193.47 295.921C1192.17 297.372 1190.62 298.179 1190.01 297.85C1179.76 292.698 1168.81 289.098 1157.5 287.168C1145.67 285.058 1134.87 284.794 1129.02 286.739Z" fill="#0F4036"/>
<path fill-rule="evenodd" clip-rule="evenodd" d="M692.606 540C759.724 540 814.463 522.395 814.463 500.818C814.463 479.24 759.724 461.635 692.606 461.635C625.488 461.635 570.782 479.24 570.782 500.9C570.782 522.56 625.505 540 692.606 540Z" fill="url(#paint0_linear_436_2447)"/>
<path fill-rule="evenodd" clip-rule="evenodd" d="M809.254 512.175C794.107 528.28 747.609 540 692.606 540C637.603 540 591.121 528.28 575.974 512.175C591.121 496.087 637.603 484.366 692.606 484.366C747.609 484.366 794.107 496.087 809.254 512.175Z" fill="#572600"/>
<path fill-rule="evenodd" clip-rule="evenodd" d="M643.949 515.439C638.213 438.392 636.218 359.22 643.949 274.508C647.344 359.22 645.086 438.392 643.949 515.439ZM687.925 452.799C682.32 372.582 682.32 292.07 687.925 211.853C689.177 293.102 688.914 373.396 687.925 452.799ZM722.753 538.846C729.461 458.676 729.461 378.086 722.753 297.916C719.39 378.292 719.39 458.624 722.753 538.912V538.846Z" fill="white"/>
<path fill-rule="evenodd" clip-rule="evenodd" d="M598.802 236.101C598.802 248.216 601.819 256.607 613.274 259.03C624.73 261.453 618.697 259.03 613.274 254.2C607.851 249.37 605.033 242.974 606.895 236.331C608.758 229.688 598.802 226.968 598.802 236.101Z" fill="#0B1418"/>
<path fill-rule="evenodd" clip-rule="evenodd" d="M742.911 316.724C755.01 315.933 763.185 312.372 764.833 300.767C766.481 289.163 759.625 290.02 755.174 295.822C750.724 301.625 750.576 313.955 743.834 312.488C737.093 311.02 733.796 317.317 742.911 316.724Z" fill="#0B1418"/>
</g>
<defs>
<linearGradient id="paint0_linear_436_2447" x1="692.622" y1="461.635" x2="692.622" y2="540" gradientUnits="userSpaceOnUse">
<stop stop-color="#F92B46"/>
<stop offset="1" stop-color="#903330"/>
</linearGradient>
<clipPath id="clip0_436_2447">
<rect width="1322" height="540" fill="white"/>
</clipPath>
</defs>
</svg>
