<svg width="795" height="965" viewBox="0 0 795 965" fill="none" xmlns="http://www.w3.org/2000/svg">
<g clip-path="url(#clip0_402_1933)">
<path d="M624.37 700.712C642.25 703.11 660.435 701.601 677.678 696.289C694.921 690.977 710.814 681.987 724.265 669.937C746.94 649.407 760.891 621.669 726.036 592.948C642.609 524.128 649.243 468.524 687.639 429.174C726.036 389.824 823.947 310.225 763.728 239.63C703.51 169.035 542.138 246.131 517.927 164.351C493.715 82.5712 449.773 14.9487 372.489 2.11712C308.793 -8.34062 221.143 17.7075 203.758 97.4772C186.543 176.456 284.817 172.05 191.769 299.468C136.99 374.319 228.033 534.97 310.265 502.015C392.498 469.059 493.225 519.679 496.744 612.73C499.07 674.172 573.772 694.189 624.37 700.712Z" fill="#142C38"/>
<path d="M587.531 157.657C583.314 155.336 579.621 152.166 576.684 148.346C573.747 144.526 571.63 140.138 570.466 135.459C568.162 125.857 569.527 114.073 584.246 105.176C613.662 87.4473 645.253 147.414 634.95 165.057C627.527 177.782 601.375 165.421 587.531 157.657Z" fill="#142C38"/>
<path d="M794.488 431.719C794.05 434.685 793.006 437.529 791.42 440.072C789.834 442.615 787.741 444.802 785.273 446.496C780.196 449.918 773.007 451.693 764.646 444.999C747.922 431.655 772.901 402.099 785.38 404.366C794.445 405.884 796.003 421.924 794.488 431.719Z" fill="#142C38"/>
<path d="M597.571 734.9C609.523 708.729 560.007 660.338 486.975 626.815C413.942 593.293 345.049 587.334 333.097 613.505C321.146 639.676 370.662 688.067 443.694 721.59C516.727 755.112 585.62 761.072 597.571 734.9Z" fill="#142C38"/>
<path d="M374.11 661.768L485.14 726.033C487.474 727.388 490.123 728.102 492.819 728.102C495.516 728.102 498.165 727.388 500.499 726.033L554.894 694.552C556.694 693.507 558.264 692.107 559.508 690.436C560.753 688.765 561.647 686.858 562.135 684.831C562.624 682.804 562.697 680.698 562.351 678.642C562.004 676.586 561.246 674.621 560.12 672.867C558.8 670.817 557.008 669.115 554.894 667.906L443.971 603.748C441.643 602.408 439.007 601.703 436.323 601.703C433.64 601.703 431.003 602.408 428.676 603.748L374.153 635.142C372.021 636.352 370.213 638.062 368.884 640.125C367.765 641.877 367.012 643.839 366.67 645.89C366.327 647.942 366.402 650.043 366.89 652.065C367.379 654.087 368.27 655.989 369.511 657.656C370.752 659.324 372.316 660.722 374.11 661.768Z" fill="#3A4059"/>
<path d="M368.884 640.083C370.192 642.143 371.987 643.847 374.11 645.044L485.14 709.331C487.477 710.676 490.125 711.384 492.819 711.384C495.514 711.384 498.162 710.676 500.499 709.331L554.894 677.914C557.009 676.698 558.802 674.989 560.12 672.932C558.8 670.881 557.008 669.179 554.894 667.97L443.971 603.812C441.643 602.472 439.007 601.768 436.323 601.768C433.64 601.768 431.003 602.472 428.676 603.812L374.153 635.143C372.026 636.34 370.218 638.035 368.884 640.083Z" fill="#51557C"/>
<path d="M442.797 538.713V637.58L470.763 653.941L470.955 679.048L477.29 682.769L477.312 682.748L499.24 670.579V572.096L442.797 538.713Z" fill="#252B3D"/>
<path d="M420.869 550.903V649.77L470.955 679.048L477.29 682.769H477.312V583.559L442.797 563.585L420.869 550.903Z" fill="#3A4059"/>
<path d="M257.363 30.4321V414.246C257.364 417.517 258.221 420.73 259.85 423.563C261.478 426.397 263.821 428.752 266.642 430.393L739.389 704.134C742.216 705.765 745.421 706.622 748.683 706.62C751.944 706.617 755.148 705.755 757.972 704.119C760.797 702.483 763.142 700.132 764.774 697.3C766.406 694.469 767.266 691.257 767.269 687.987V304.729C767.273 300.556 765.875 296.503 763.301 293.223C762.016 291.548 760.459 290.102 758.694 288.946L757.99 288.518L732.158 273.548L285.243 14.307C282.42 12.6629 279.214 11.7945 275.949 11.7896C272.684 11.7847 269.476 12.6434 266.648 14.2791C263.82 15.9148 261.472 18.2695 259.842 21.1056C258.212 23.9417 257.357 27.1588 257.363 30.4321Z" fill="#252B3D"/>
<path d="M757.649 704.198L724.841 720.515L732.414 699.985C732.414 699.985 747.303 704.647 757.649 704.198Z" fill="#252B3D"/>
<path d="M222.167 31.7794V51.3049L257.043 71.1938L696.598 322.052L731.027 307.381L763.024 293.18C761.745 291.5 760.186 290.053 758.417 288.903L731.838 273.719L274.748 7.97683C271.19 5.90383 267.152 4.79944 263.036 4.77318C258.92 4.74693 254.869 5.7997 251.284 7.82712L229.953 19.8461L227.691 21.1292C225.974 22.3183 224.573 23.9104 223.61 25.7666C222.647 27.6229 222.152 29.6872 222.167 31.7794Z" fill="#3A4059"/>
<path d="M222.487 31.7368V428.554C222.48 430.829 223.068 433.066 224.19 435.043C225.313 437.02 226.932 438.668 228.886 439.824L712.853 719.981C714.824 721.127 717.062 721.732 719.341 721.735C721.619 721.738 723.859 721.14 725.833 719.999C727.808 718.859 729.448 717.217 730.588 715.239C731.728 713.261 732.328 711.016 732.328 708.732V312.556C732.337 310.284 731.751 308.049 730.628 306.075C729.505 304.1 727.884 302.457 725.929 301.307L725.246 300.901L241.962 20.4664C240.201 19.4363 238.222 18.8392 236.186 18.7239C234.151 18.6087 232.117 18.9786 230.251 19.8034C229.464 20.168 228.707 20.5972 227.99 21.0866C226.277 22.2781 224.88 23.8711 223.921 25.7273C222.961 27.5834 222.469 29.6464 222.487 31.7368Z" fill="#51557C"/>
<path d="M240.896 51.0483V425.303C240.897 426.127 241.115 426.936 241.527 427.649C241.939 428.362 242.53 428.954 243.242 429.366L699.585 693.419C700.281 693.837 701.077 694.058 701.888 694.061C703.133 694.061 704.327 693.565 705.207 692.683C706.087 691.801 706.581 690.604 706.581 689.356V315.85C706.579 315.028 706.364 314.221 705.956 313.509C705.549 312.796 704.963 312.203 704.256 311.786L247.914 47.0278C247.206 46.6005 246.398 46.3705 245.573 46.3618C244.747 46.3531 243.934 46.566 243.218 46.9783C242.502 47.3906 241.909 47.9874 241.501 48.7068C241.093 49.4262 240.884 50.242 240.896 51.0697V51.0483Z" fill="white"/>
<path opacity="0.1" d="M240.896 51.0483V68.7987L706.581 338.882V315.85C706.579 315.028 706.364 314.221 705.956 313.509C705.549 312.796 704.963 312.203 704.256 311.786L247.914 47.0278C247.206 46.6005 246.398 46.3705 245.573 46.3618C244.747 46.3531 243.934 46.566 243.218 46.9783C242.502 47.3906 241.909 47.9874 241.501 48.7068C241.093 49.4262 240.884 50.242 240.896 51.0697V51.0483Z" fill="#252B3D"/>
<path d="M688.791 317.625C688.961 320.726 690.924 323.249 693.206 323.249C695.489 323.249 697.11 320.768 697.11 317.625C697.11 314.481 694.977 311.979 692.694 311.979C690.412 311.979 688.578 314.502 688.791 317.625Z" fill="#FF7A8C"/>
<path d="M675.779 310.974C675.949 314.075 677.912 316.598 680.194 316.598C682.477 316.598 684.183 314.075 684.013 310.974C683.842 307.873 681.88 305.328 679.597 305.328C677.315 305.328 675.502 307.937 675.779 310.974Z" fill="#3A4059"/>
<path d="M664.025 304.494C664.196 307.595 666.158 310.118 668.441 310.118C670.723 310.118 672.43 307.595 672.259 304.494C672.088 301.393 670.126 298.848 667.844 298.848C665.561 298.848 663.855 301.371 664.025 304.494Z" fill="#D5243A"/>
<path d="M240.896 381.205V425.367C240.897 426.188 241.115 426.995 241.527 427.704C241.939 428.414 242.53 429.002 243.242 429.409L699.585 693.569C700.281 693.986 701.077 694.208 701.888 694.21C703.133 694.21 704.327 693.715 705.207 692.832C706.087 691.95 706.581 690.753 706.581 689.506V650.754L240.896 381.205Z" fill="#51557C"/>
<path d="M434.563 530.351C435.054 539.675 440.963 547.225 447.768 547.225C454.572 547.225 459.692 539.675 459.201 530.351C458.711 521.027 452.802 513.456 445.976 513.456C439.15 513.456 434.052 520.963 434.563 530.351Z" fill="#6B749B"/>
<path opacity="0.1" d="M616.627 344.785C616.611 344.041 616.429 343.31 616.094 342.646C615.661 341.743 614.961 340.996 614.089 340.508L373.982 201.007C373.373 200.638 372.69 200.409 371.982 200.335C371.274 200.261 370.559 200.344 369.887 200.579H369.567L343.969 209.775C343.468 209.869 342.986 210.042 342.54 210.288C341.747 210.717 341.084 211.353 340.622 212.128C340.16 212.904 339.916 213.79 339.916 214.694V217.303L339.447 372.202V378.489L339.34 414.353C339.332 415.246 339.561 416.124 340.003 416.898C340.445 417.673 341.085 418.315 341.857 418.759L582.774 558.217C583.451 558.612 584.212 558.842 584.994 558.886C585.776 558.931 586.558 558.789 587.275 558.474L613.15 549.235L613.811 549C614.725 548.616 615.504 547.967 616.048 547.136C616.591 546.306 616.875 545.331 616.862 544.337L616.627 344.785Z" fill="#252B3D"/>
<path d="M342.22 188.475L341.644 370.555C341.64 371.449 341.873 372.328 342.319 373.102C342.765 373.876 343.408 374.517 344.182 374.96L554.382 496.625L566.178 503.447L563.106 524.17L588.981 514.932L589.621 514.696C590.533 514.307 591.31 513.657 591.856 512.828C592.402 511.999 592.693 511.028 592.693 510.034L592.48 310.225C592.463 309.484 592.288 308.755 591.968 308.086C591.529 307.188 590.83 306.443 589.963 305.948L349.856 166.554C349.243 166.185 348.557 165.955 347.845 165.881C347.134 165.807 346.415 165.891 345.739 166.126H345.419L318.393 175.857L342.22 188.475Z" fill="#D5243A"/>
<path d="M566.178 503.447L563.106 524.17L588.981 514.932L589.621 514.696C590.533 514.307 591.31 513.657 591.856 512.828C592.402 511.999 592.693 511.028 592.693 510.034L592.48 310.225C592.463 309.484 592.288 308.755 591.968 308.086L557.624 319.849L554.382 496.711L566.178 503.447Z" fill="#430101"/>
<path d="M315.15 380.029C315.151 380.92 315.383 381.795 315.824 382.567C316.266 383.34 316.901 383.984 317.667 384.435L558.712 523.871C559.479 524.32 560.35 524.558 561.238 524.56C562.126 524.562 562.999 524.329 563.768 523.883C564.537 523.438 565.175 522.797 565.617 522.025C566.059 521.253 566.289 520.377 566.285 519.487V493.824L566.114 320.597V319.827C566.116 318.937 565.883 318.061 565.437 317.291C564.991 316.521 564.348 315.883 563.576 315.443L563.234 315.251L323.469 176.135C322.71 175.691 321.849 175.453 320.97 175.446C320.091 175.439 319.225 175.663 318.459 176.096C317.693 176.528 317.054 177.154 316.604 177.912C316.155 178.669 315.911 179.531 315.897 180.412V183.021L315.278 337.877V344.165L315.15 380.029Z" fill="#FF4A67"/>
<path d="M470.55 348.763L566.178 505.222V493.781L475.648 345.64C475.46 345.274 475.198 344.95 474.88 344.69C474.561 344.429 474.192 344.238 473.796 344.127C473.401 344.016 472.986 343.988 472.579 344.045C472.172 344.102 471.781 344.243 471.431 344.458C471.08 344.674 470.778 344.959 470.543 345.297C470.308 345.635 470.145 346.018 470.064 346.422C469.983 346.826 469.987 347.243 470.074 347.645C470.161 348.048 470.33 348.428 470.571 348.763H470.55Z" fill="#D5243A"/>
<path d="M315.278 344.165L399.495 316.876C399.868 316.76 400.214 316.57 400.513 316.318C400.812 316.066 401.058 315.756 401.237 315.408C401.416 315.06 401.523 314.679 401.554 314.289C401.584 313.898 401.537 313.505 401.415 313.133C401.296 312.758 401.104 312.41 400.851 312.11C400.598 311.809 400.288 311.561 399.94 311.38C399.591 311.199 399.21 311.089 398.819 311.056C398.428 311.023 398.034 311.068 397.66 311.187L315.278 337.877V344.165Z" fill="#D5243A"/>
<path d="M315.748 182.978L427.076 365.144L565.986 320.469V319.699C565.989 318.808 565.755 317.933 565.309 317.162C564.863 316.392 564.22 315.754 563.448 315.315L563.106 315.122L429.7 358.023L318.435 175.921C317.631 176.351 316.958 176.992 316.488 177.775C316.019 178.559 315.77 179.455 315.769 180.369L315.748 182.978Z" fill="#D5243A"/>
<path d="M75.1437 602.162C106.778 592.46 128.863 572.93 124.472 558.541C120.081 544.152 90.8775 540.353 59.2436 550.055C27.6097 559.757 5.5247 579.287 9.91541 593.676C14.3061 608.065 43.5098 611.865 75.1437 602.162Z" fill="#142C38"/>
<path d="M108.747 210.823C108.737 211.015 108.737 211.208 108.747 211.4C108.747 211.7 108.854 212.021 108.918 212.341C112.353 229.258 136.99 257.466 136.99 257.466L149.64 250.066C137.63 233.899 124.341 200.387 124.341 200.387L116 205.947L108.747 210.823Z" fill="#D5243A"/>
<path d="M98.9777 190.634C100.613 197.853 103.761 204.64 108.214 210.545L108.833 211.4L109.323 212.042C110.433 213.496 111.457 214.801 112.523 215.934C114.251 213.796 116.171 211.657 117.941 209.518C119.371 207.807 120.501 205.861 121.76 204.022C122.57 202.803 123.466 201.52 124.426 200.322C116.32 182.508 104.78 144.355 104.78 144.355C104.78 144.355 95.5647 173.205 98.9777 190.634Z" fill="#D5243A"/>
<path d="M108.214 210.545L108.833 211.4C108.833 211.7 108.939 212.021 109.003 212.341L109.323 212.042C111.32 210.19 113.651 208.738 116.192 207.765C116.358 207.706 116.503 207.6 116.61 207.459C116.716 207.319 116.778 207.15 116.789 206.973C116.821 206.847 116.821 206.715 116.789 206.589C116.738 206.444 116.65 206.314 116.534 206.213C116.418 206.112 116.278 206.042 116.128 206.011C115.961 205.959 115.783 205.959 115.616 206.011C112.887 207.044 110.377 208.582 108.214 210.545Z" fill="#430101"/>
<path d="M24.6804 555.18C23.6829 555.525 22.8011 556.142 22.1341 556.962C21.4672 557.782 21.0414 558.772 20.9047 559.821C20.5306 562.505 20.395 565.218 20.4994 567.926C20.7554 575.86 20.8407 579.09 20.8407 579.09C21.9197 580.584 23.303 581.832 24.899 582.75C26.495 583.668 28.2673 584.235 30.0986 584.415L32.2317 584.693C32.2317 584.693 47.761 594.06 55.0136 594.787C64.4848 595.728 74.2119 591.365 66.3193 582.127C58.9386 573.401 48.0596 569.915 44.8386 562.879C44.4759 562.066 42.0442 560.334 41.4256 559.693C36.0714 554.282 32.0397 552.742 24.6804 555.18Z" fill="#FF4A67"/>
<path d="M40.5297 571.947C40.7048 571.947 40.8762 571.896 41.0237 571.801C41.1711 571.707 41.2884 571.572 41.3617 571.412C42.0355 569.858 43.2587 568.609 44.796 567.905C45.5798 567.766 46.3842 567.799 47.1539 568.002C47.9236 568.205 48.6402 568.573 49.2543 569.081C49.3407 569.166 49.4439 569.233 49.5573 569.276C49.6707 569.319 49.7918 569.338 49.9129 569.332C50.034 569.325 50.1525 569.294 50.2608 569.239C50.3692 569.185 50.4649 569.108 50.5421 569.014C50.6193 568.92 50.6763 568.812 50.7093 568.695C50.7422 568.578 50.7506 568.455 50.7338 568.335C50.717 568.214 50.6754 568.099 50.6117 567.995C50.5479 567.892 50.4634 567.803 50.3635 567.734C49.5292 567.025 48.5416 566.52 47.4789 566.26C46.4162 566 45.3077 565.992 44.2414 566.237C42.2251 567.101 40.6095 568.697 39.7192 570.706C39.6737 570.813 39.6497 570.928 39.6487 571.044C39.6477 571.16 39.6697 571.275 39.7133 571.382C39.757 571.489 39.8214 571.587 39.903 571.669C39.9845 571.752 40.0816 571.817 40.1884 571.861C40.2935 571.917 40.4107 571.947 40.5297 571.947Z" fill="white"/>
<path d="M43.6228 574.15C43.796 574.154 43.9664 574.105 44.1112 574.009C44.256 573.914 44.3684 573.776 44.4333 573.615C45.1298 572.074 46.3566 570.837 47.889 570.129C48.6693 569.982 49.4725 570.011 50.2402 570.214C51.0078 570.418 51.7204 570.791 52.326 571.305C52.5121 571.45 52.7465 571.517 52.9808 571.494C53.2151 571.47 53.4313 571.356 53.5845 571.177C53.658 571.087 53.713 570.984 53.7463 570.873C53.7797 570.762 53.7907 570.645 53.7788 570.53C53.7669 570.415 53.7323 570.303 53.677 570.201C53.6217 570.099 53.5467 570.009 53.4565 569.937C52.6173 569.229 51.6259 568.725 50.5601 568.465C49.4942 568.205 48.3829 568.197 47.3131 568.44C45.2923 569.3 43.6802 570.909 42.8122 572.931C42.7667 573.037 42.7427 573.152 42.7417 573.268C42.7407 573.384 42.7627 573.499 42.8063 573.606C42.85 573.714 42.9145 573.811 42.996 573.894C43.0776 573.976 43.1746 574.041 43.2814 574.086C43.3904 574.128 43.506 574.149 43.6228 574.15Z" fill="white"/>
<path d="M47.1425 576.138C47.3146 576.137 47.4825 576.085 47.6263 575.991C47.77 575.896 47.8835 575.762 47.9531 575.604C48.6405 574.052 49.8693 572.805 51.4088 572.096C52.1892 571.955 52.991 571.987 53.7576 572.19C54.5243 572.394 55.2371 572.763 55.8457 573.273C55.9318 573.369 56.0375 573.445 56.1556 573.496C56.2737 573.548 56.4015 573.573 56.5302 573.57C56.6589 573.568 56.7855 573.537 56.9015 573.481C57.0174 573.425 57.1199 573.344 57.202 573.245C57.2841 573.146 57.3439 573.03 57.3773 572.905C57.4106 572.78 57.4168 572.65 57.3954 572.523C57.374 572.395 57.3255 572.274 57.2532 572.168C57.1808 572.061 57.0864 571.971 56.9763 571.904C56.1368 571.204 55.1482 570.707 54.0867 570.451C53.0252 570.195 51.9192 570.188 50.8542 570.428C48.8293 571.279 47.2096 572.88 46.3319 574.898C46.2864 575.005 46.2625 575.119 46.2615 575.235C46.2605 575.351 46.2825 575.466 46.3261 575.574C46.3698 575.681 46.4342 575.779 46.5158 575.861C46.5974 575.943 46.6944 576.008 46.8012 576.053C46.9056 576.111 47.0233 576.14 47.1425 576.138Z" fill="white"/>
<path d="M25.6831 539.761L24.8726 559.35C26.5639 560.856 28.664 561.823 30.9054 562.128C33.1468 562.432 35.4279 562.061 37.4581 561.061L39.3566 539.889C39.3566 539.889 31.1013 536.938 25.6831 539.761Z" fill="#FCB38F"/>
<path d="M21.1394 431.462C27.3255 399.169 22.4193 348.057 21.95 324.532L73.8067 332.531L75.3425 364.61C75.3425 364.481 71.4815 364.866 71.4602 364.759C69.9147 364.139 68.2613 363.833 66.5966 363.861C62.9063 364.011 61.7757 370.149 61.2851 371.902C59.472 395.085 59.3866 423.485 57.2962 441.171C53.1792 476.202 40.231 553.961 40.231 553.961C34.7921 555.39 29.0302 554.922 23.8912 552.635C23.8912 552.635 17.2571 451.822 21.1394 431.462Z" fill="#51557C"/>
<path d="M26.9415 551.737C27.2094 551.731 27.4643 551.621 27.6518 551.429C27.8392 551.237 27.9442 550.979 27.9441 550.71C27.9441 547.139 26.7709 462.814 26.1096 456.462C25.4483 450.111 27.5388 426.693 29.5866 414.054C31.0585 405.093 30.0132 362.963 29.9706 361.166C29.9596 360.907 29.8491 360.663 29.6623 360.483C29.4754 360.304 29.2267 360.204 28.968 360.204C28.8355 360.204 28.7043 360.231 28.5824 360.283C28.4605 360.335 28.3503 360.411 28.2586 360.507C28.1669 360.603 28.0956 360.717 28.0488 360.841C28.0021 360.965 27.981 361.098 27.9868 361.231C27.9868 361.658 29.0533 404.965 27.6241 413.733C25.491 426.565 23.3578 450.089 24.1258 456.676C24.787 462.921 25.9389 549.876 25.9389 550.775C25.955 551.032 26.067 551.274 26.2527 551.452C26.4385 551.63 26.6844 551.732 26.9415 551.737Z" fill="#252B3D"/>
<path d="M41.7242 547.674C35.2319 548.315 28.6803 547.969 22.2912 546.647C21.7159 549.493 21.8849 552.44 22.7819 555.202C22.7819 555.202 32.765 557.789 40.7856 555.822C41.9088 553.262 42.2359 550.423 41.7242 547.674Z" fill="#6B749B"/>
<path d="M69.967 541.044C68.9733 541.395 68.0953 542.014 67.4293 542.833C66.7633 543.651 66.335 544.638 66.1913 545.685C65.7864 548.395 65.6222 551.136 65.7007 553.875C65.9353 561.81 66.042 565.039 66.042 565.039C67.1209 566.533 68.5042 567.781 70.1002 568.699C71.6962 569.617 73.4685 570.184 75.2998 570.364L77.305 570.642C77.305 570.642 92.8556 580.009 100.108 580.736C109.558 581.677 119.306 577.315 111.414 568.076C104.012 559.35 93.1329 555.864 89.9331 548.828C88.8946 547.664 87.7521 546.598 86.5201 545.642C81.2726 540.21 77.241 538.67 69.967 541.044Z" fill="#FF4A67"/>
<path d="M85.731 557.853C85.9024 557.849 86.0693 557.797 86.2125 557.702C86.3558 557.608 86.4698 557.475 86.5415 557.319C87.228 555.778 88.4481 554.54 89.9759 553.833C90.758 553.685 91.5629 553.712 92.3335 553.912C93.104 554.111 93.8213 554.479 94.4342 554.988C94.6124 555.138 94.8428 555.211 95.0749 555.191C95.3069 555.171 95.5215 555.059 95.6714 554.881C95.8213 554.702 95.8943 554.471 95.8743 554.238C95.8543 554.006 95.7429 553.791 95.5647 553.64C94.7247 552.934 93.7333 552.431 92.6677 552.171C91.6021 551.912 90.4912 551.902 89.4213 552.143C87.4142 553.013 85.8073 554.609 84.9204 556.613C84.8277 556.831 84.825 557.078 84.913 557.298C85.0009 557.519 85.1723 557.695 85.3897 557.789C85.4986 557.831 85.6142 557.853 85.731 557.853Z" fill="white"/>
<path d="M88.8241 560.056C88.9968 560.057 89.1659 560.007 89.3101 559.912C89.4544 559.817 89.5673 559.681 89.6347 559.521C90.3195 557.98 91.5402 556.741 93.0691 556.036C93.8528 555.895 94.6576 555.928 95.4275 556.131C96.1974 556.334 96.9139 556.703 97.5273 557.212C97.7111 557.323 97.9288 557.365 98.1407 557.329C98.3526 557.293 98.5446 557.182 98.6817 557.016C98.8187 556.851 98.8917 556.641 98.8874 556.425C98.883 556.21 98.8016 556.003 98.6579 555.843C97.8178 555.136 96.8264 554.634 95.7609 554.374C94.6953 554.114 93.5843 554.105 92.5144 554.346C90.4937 555.207 88.8816 556.815 88.0135 558.837C87.9203 559.05 87.9152 559.291 87.9992 559.507C88.0832 559.724 88.2494 559.898 88.4615 559.992C88.5778 560.034 88.7005 560.056 88.8241 560.056Z" fill="white"/>
<path d="M92.3437 562.045C92.5152 562.041 92.682 561.989 92.8253 561.894C92.9686 561.8 93.0825 561.667 93.1543 561.51C93.8341 559.966 95.0563 558.725 96.5886 558.025C97.3708 557.877 98.1757 557.904 98.9462 558.104C99.7168 558.303 100.434 558.67 101.047 559.179C101.135 559.254 101.237 559.31 101.347 559.345C101.457 559.38 101.573 559.393 101.688 559.383C101.803 559.373 101.914 559.34 102.017 559.287C102.119 559.234 102.21 559.161 102.284 559.072C102.358 558.984 102.415 558.882 102.449 558.772C102.484 558.661 102.497 558.545 102.487 558.43C102.477 558.315 102.445 558.203 102.392 558.1C102.338 557.998 102.266 557.907 102.177 557.832C101.337 557.125 100.346 556.623 99.2805 556.363C98.2149 556.103 97.1039 556.094 96.034 556.335C94.0269 557.205 92.4201 558.801 91.5331 560.805C91.4876 560.911 91.4637 561.026 91.4627 561.142C91.4617 561.258 91.4836 561.373 91.5273 561.48C91.5709 561.588 91.6354 561.685 91.717 561.768C91.7985 561.85 91.8955 561.915 92.0024 561.96C92.1055 562.021 92.2241 562.05 92.3437 562.045Z" fill="white"/>
<path d="M70.863 525.668L70.0737 545.257C71.7622 546.768 73.8627 547.738 76.1054 548.043C78.3481 548.348 80.6304 547.973 82.6592 546.968L84.5577 525.796C84.5577 525.796 76.3665 522.845 70.863 525.668Z" fill="#FCB38F"/>
<path d="M106.572 359.969C104.78 383.044 101.047 409.157 98.9778 426.736C94.8608 461.766 85.3044 539.932 85.3044 539.932C79.8734 541.371 74.1147 540.903 68.9858 538.606C68.9858 538.606 62.0958 437.386 64.3783 416.706C67.3942 386.345 68.4843 355.823 67.642 325.323L109.025 319.421L106.572 359.969Z" fill="#51557C"/>
<path d="M74.4254 359.263C74.1595 359.263 73.9045 359.369 73.7165 359.558C73.5285 359.746 73.4228 360.002 73.4228 360.268C73.6361 373.891 73.7428 393.866 72.8255 399.512C70.6924 412.343 68.5593 435.868 69.3272 442.455C69.9885 448.721 71.119 535.655 71.1404 536.553C71.1403 536.684 71.1664 536.814 71.217 536.935C71.2677 537.055 71.3419 537.165 71.4353 537.256C71.5287 537.348 71.6394 537.42 71.7609 537.468C71.8824 537.516 72.0123 537.54 72.1429 537.537C72.2736 537.537 72.403 537.511 72.5234 537.46C72.6439 537.409 72.753 537.335 72.8444 537.241C72.9358 537.148 73.0077 537.037 73.0557 536.915C73.1037 536.793 73.127 536.663 73.1242 536.532C73.1242 532.939 71.9723 448.614 71.2897 442.262C70.6071 435.911 72.7189 412.493 74.788 399.854C75.748 393.994 75.62 373.934 75.428 360.268C75.417 360.004 75.3042 359.753 75.1134 359.57C74.9226 359.387 74.6684 359.284 74.4041 359.285L74.4254 359.263Z" fill="#252B3D"/>
<path d="M86.9041 533.58C80.419 534.222 73.8743 533.876 67.4925 532.554C66.9005 535.397 67.0623 538.347 67.9618 541.108C67.9618 541.108 77.9449 543.696 85.9869 541.728C87.1133 539.169 87.4334 536.327 86.9041 533.58Z" fill="#6B749B"/>
<path d="M104.78 144.419C91.981 141.746 70.3936 140.142 58.896 144.12C42.6841 149.787 34.8982 155.198 23.8698 163.068C23.4859 169.484 21.7367 200.109 21.5447 206.867C21.5447 208.492 21.5447 210.117 21.5447 211.7C21.5447 212.363 21.5447 213.004 21.5447 213.667C21.8434 234.348 19.2836 280.413 18.8143 291.555C18.0037 311.572 17.2784 321.987 17.7477 323.228C20.5208 330.456 38.6098 337.107 65.4661 335.546C92.3223 333.985 105.484 333.407 108.406 323.484C111.329 313.561 109.814 306.033 106.742 276.606C104.097 251.798 104.268 165.955 104.78 144.419Z" fill="#FF4A67"/>
<path d="M92.6637 274.425C92.9098 274.486 93.1695 274.457 93.3962 274.343C93.6229 274.23 93.8019 274.039 93.9009 273.805C93.9533 273.68 93.9805 273.546 93.981 273.41C93.9814 273.275 93.9551 273.141 93.9035 273.015C93.852 272.89 93.7762 272.776 93.6806 272.68C93.5849 272.585 93.4713 272.509 93.3463 272.457C92.8984 272.265 47.9531 253.082 45.3933 229.407C45.3651 229.124 45.2255 228.863 45.0055 228.683C44.7855 228.502 44.503 228.417 44.2201 228.445C43.9372 228.473 43.6772 228.613 43.4972 228.834C43.3172 229.054 43.2319 229.338 43.2602 229.621C44.3908 240.143 53.0513 250.879 69.0072 261.551C76.4595 266.474 84.3082 270.766 92.4717 274.382L92.6637 274.425Z" fill="#D5243A"/>
<path d="M86.0082 278.424C86.2581 278.464 86.514 278.412 86.7284 278.277C86.9428 278.142 87.1012 277.934 87.1741 277.691C87.2471 277.448 87.2297 277.187 87.1251 276.956C87.0205 276.725 86.8359 276.54 86.6055 276.435C76.8061 273.219 67.5176 268.609 59.024 262.748C58.7974 262.59 58.5177 262.529 58.2459 262.577C57.9742 262.625 57.7325 262.779 57.5734 263.005C57.4916 263.115 57.4327 263.24 57.4001 263.374C57.3676 263.507 57.3621 263.646 57.384 263.782C57.4059 263.917 57.4547 264.047 57.5275 264.163C57.6004 264.28 57.6958 264.38 57.8081 264.459C66.4943 270.441 75.9909 275.144 86.0082 278.424Z" fill="#D5243A"/>
<path d="M94.4342 90.5696C94.4342 90.5696 100.492 77.2461 88.0348 69.6113C75.5773 61.9765 63.3544 66.9381 63.6744 71.7499C63.9943 76.5618 60.9439 73.2256 51.4941 79.4061C42.0443 85.5867 40.3378 95.2317 44.0281 102.567C44.1348 102.631 63.8877 79.2136 94.4342 90.5696Z" fill="#252B3D"/>
<path d="M75.0227 137.897L74.0414 147.178L73.7215 150.301C70.5384 150.988 67.2416 150.947 64.0765 150.181C60.9114 149.414 57.9594 147.942 55.4404 145.874L54.5232 131.524C54.7079 131.392 54.9086 131.284 55.1205 131.203C60.688 128.765 75.0227 137.897 75.0227 137.897Z" fill="#FCB38F"/>
<path d="M75.0227 137.897L74.0414 147.178C66.0104 144.292 59.2706 138.627 55.0352 131.203C60.688 128.765 75.0227 137.897 75.0227 137.897Z" fill="#FD8471"/>
<path d="M91.4904 107.486C91.4904 107.486 96.0766 102.011 98.999 106.908C101.921 111.806 96.6739 125.536 89.0586 121.708L91.4904 107.486Z" fill="#FD8471"/>
<path d="M90.9997 117.473C91.1437 117.481 91.2862 117.441 91.4056 117.36C91.525 117.279 91.6147 117.161 91.661 117.024C92.1919 115.675 93.0056 114.455 94.047 113.448C95.0885 112.44 96.3334 111.669 97.6978 111.186C97.861 111.129 97.9955 111.01 98.0726 110.855C98.1496 110.7 98.1631 110.521 98.1102 110.356C98.0572 110.191 97.942 110.054 97.7892 109.973C97.6364 109.892 97.4581 109.875 97.2925 109.924C95.7367 110.456 94.3148 111.321 93.1252 112.458C91.9355 113.595 91.0065 114.978 90.4024 116.511C90.348 116.681 90.3622 116.866 90.4419 117.026C90.5217 117.186 90.6606 117.308 90.829 117.366L90.9997 117.473Z" fill="#D6615D"/>
<path d="M95.5646 115.463C95.6818 115.505 95.8101 115.505 95.9272 115.463C96.0795 115.377 96.1919 115.235 96.2399 115.067C96.2878 114.898 96.2674 114.718 96.1832 114.565C95.5865 113.663 94.7719 112.927 93.8154 112.426C93.6556 112.356 93.4755 112.347 93.31 112.403C93.1444 112.458 93.0053 112.573 92.9195 112.725C92.8452 112.882 92.8349 113.061 92.8907 113.225C92.9465 113.389 93.064 113.524 93.2182 113.602C93.9568 113.971 94.5831 114.533 95.0313 115.227C95.0964 115.305 95.1783 115.366 95.2707 115.407C95.3632 115.448 95.4637 115.467 95.5646 115.463Z" fill="#D6615D"/>
<path d="M94.6049 114.607C94.5272 115.897 94.3848 117.182 94.1782 118.457C92.4717 128.979 83.2992 150.343 64.8262 139.501C61.0024 137.39 57.5271 134.699 54.5232 131.524C52.6308 129.464 51.0171 127.163 49.7236 124.68C49.2732 123.689 48.9162 122.658 48.657 121.601C48.657 121.408 48.529 121.216 48.4864 121.045C48.4437 120.874 48.4864 120.831 48.3797 120.745C47.5103 117.791 46.7982 114.793 46.2466 111.763C45.564 108.149 45.1373 104.77 44.86 101.99C44.6205 99.4748 45.0395 96.9407 46.0758 94.6379C47.1121 92.335 48.7297 90.343 50.7688 88.8587C61.9678 80.6465 74.916 81.6944 83.6192 83.9186C86.5622 84.6784 89.1922 86.347 91.137 88.6883C93.0818 91.0295 94.2427 93.9247 94.4555 96.964C94.6475 99.9153 94.8181 103.38 94.8821 106.631C94.8395 109.389 94.7968 112.148 94.6049 114.607Z" fill="#FCB38F"/>
<path d="M55.995 120.724C55.3539 121.849 54.4464 122.798 53.3527 123.488C52.2589 124.178 51.0125 124.588 49.7236 124.68C49.3396 123.654 48.977 122.542 48.657 121.601C51.1268 122.23 53.7419 121.918 55.995 120.724Z" fill="#FD8471"/>
<path d="M54.5231 131.524C52.6308 129.464 51.0171 127.163 49.7236 124.68C49.2732 123.689 48.9161 122.658 48.657 121.601C48.657 121.408 48.529 121.216 48.4863 121.045C49.2929 121.134 50.0871 121.314 50.8541 121.579C50.8541 121.579 55.803 127.247 54.5231 131.524Z" fill="#252B3D"/>
<path d="M83.5125 127.332C82.5952 130.005 80.1421 134.817 74.0413 134.005C67.9405 133.192 66.8313 128.38 66.6606 125.129L83.5125 127.332Z" fill="white"/>
<path d="M70.1163 111.549C70.1163 113.025 69.1991 114.18 68.2605 114.137C67.3219 114.094 66.618 112.854 66.7033 111.357C66.7886 109.86 67.6205 108.726 68.5591 108.769C69.4977 108.812 70.2016 110.074 70.1163 111.549Z" fill="#252B3D"/>
<path d="M88.6747 112.148C88.6747 113.624 87.7574 114.778 86.8188 114.736C85.8803 114.693 85.1763 113.431 85.2616 111.955C85.347 110.48 86.1789 109.304 87.1175 109.368C88.0561 109.432 88.7387 110.651 88.6747 112.148Z" fill="#252B3D"/>
<path d="M59.408 103.786C59.408 103.786 65.5088 100.321 70.7989 101.776V104.641C70.7989 104.641 63.397 105.026 59.9199 107.037C59.3664 106.05 59.1847 104.896 59.408 103.786Z" fill="#252B3D"/>
<path d="M93.7729 105.112C93.7729 105.112 88.0135 101.091 82.6379 102.032L82.4673 104.877C82.4673 104.877 89.8053 105.989 93.133 108.32C93.7152 107.359 93.9417 106.223 93.7729 105.112Z" fill="#252B3D"/>
<path d="M77.753 123.055C76.9343 123 76.1322 122.797 75.3852 122.456C75.3051 122.422 75.2328 122.371 75.1728 122.308C75.1129 122.244 75.0665 122.169 75.0365 122.087C75.0066 122.005 74.9936 121.917 74.9986 121.83C75.0035 121.743 75.0262 121.657 75.0653 121.579C75.0998 121.502 75.1494 121.432 75.2111 121.373C75.2729 121.315 75.3456 121.27 75.425 121.24C75.5044 121.21 75.5889 121.196 75.6736 121.2C75.7583 121.203 75.8416 121.223 75.9185 121.259C76.5158 121.515 77.9237 121.964 78.5636 121.601C78.6916 121.601 78.8623 121.408 78.9049 121.002C79.078 117.632 79.078 114.256 78.9049 110.886C78.8876 110.791 78.8914 110.693 78.9161 110.599C78.9408 110.505 78.9858 110.417 79.0478 110.343C79.1099 110.268 79.1875 110.208 79.2753 110.167C79.363 110.126 79.4587 110.105 79.5555 110.105C79.6524 110.105 79.7481 110.126 79.8358 110.167C79.9235 110.208 80.0012 110.268 80.0632 110.343C80.1253 110.417 80.1702 110.505 80.1949 110.599C80.2196 110.693 80.2235 110.791 80.2061 110.886C80.4004 114.341 80.4004 117.804 80.2061 121.259C80.1795 121.587 80.0719 121.903 79.8932 122.179C79.7145 122.455 79.4702 122.683 79.1822 122.841C78.7336 123.04 78.2399 123.114 77.753 123.055Z" fill="#FD8471"/>
<path d="M49.8516 107.4C49.8516 107.4 44.86 102.289 42.3216 107.4C39.7831 112.512 44.924 125.365 53.7766 121.665L49.8516 107.4Z" fill="#FCB38F"/>
<path d="M51.11 117.324C50.9698 117.344 50.8267 117.318 50.7031 117.248C50.5796 117.178 50.4826 117.07 50.4274 116.939C49.7913 115.656 48.8926 114.523 47.7899 113.613C46.6871 112.703 45.4053 112.036 44.028 111.656C43.8588 111.616 43.7125 111.51 43.6207 111.362C43.5288 111.214 43.4989 111.035 43.5374 110.865C43.5782 110.694 43.6828 110.546 43.8297 110.45C43.9766 110.355 44.1545 110.319 44.3266 110.352C45.9183 110.77 47.4013 111.527 48.6749 112.571C49.9485 113.616 50.9828 114.923 51.7073 116.404C51.7717 116.569 51.7699 116.752 51.7023 116.916C51.6346 117.079 51.5065 117.21 51.3447 117.281L51.11 117.324Z" fill="#FD8471"/>
<path d="M46.3531 115.762C46.2353 115.801 46.1081 115.801 45.9904 115.762C45.8325 115.688 45.7103 115.554 45.6504 115.39C45.5904 115.226 45.5977 115.044 45.6704 114.885C46.1792 113.95 46.9123 113.156 47.8036 112.576C47.9535 112.482 48.1344 112.452 48.3064 112.492C48.4784 112.532 48.6275 112.639 48.7208 112.79C48.8142 112.94 48.8442 113.121 48.8041 113.294C48.7641 113.466 48.6574 113.616 48.5075 113.709C47.7991 114.139 47.2117 114.742 46.801 115.463C46.7537 115.543 46.6888 115.612 46.6112 115.664C46.5336 115.716 46.4454 115.749 46.3531 115.762Z" fill="#FD8471"/>
<path d="M45.1587 105.133C46.2121 104.946 47.2964 105.045 48.2983 105.422C49.3002 105.798 50.1829 106.437 50.8542 107.272C52.1555 109.066 53.0244 111.137 53.3926 113.324H56.4004C56.4004 113.324 54.0326 107.785 54.7152 104.449C55.3978 101.113 57.9576 100.3 57.2963 96.7501C56.635 93.2001 58.3629 88.709 62.0319 88.1957C65.7009 87.6825 81.6141 86.4849 87.2242 89.0298C92.8344 91.5747 91.7678 97.5842 93.197 99.7228C94.2063 101.994 94.7503 104.444 94.7969 106.93C95.6769 105.676 96.1601 104.186 96.1834 102.653C96.2048 99.8937 96.0481 97.1363 95.7141 94.3977C94.9249 87.5969 85.0484 79.4275 70.1165 79.4275C55.1845 79.4275 46.2466 86.4849 44.3268 93.8203C42.407 101.156 45.1587 105.133 45.1587 105.133Z" fill="#252B3D"/>
<path d="M74.2333 112.127C74.1542 113.489 73.6732 114.797 72.8514 115.884C72.0296 116.972 70.9041 117.791 69.6176 118.236C68.3311 118.681 66.9417 118.733 65.6256 118.385C64.3096 118.038 63.1262 117.306 62.2257 116.283C61.3253 115.259 60.7483 113.991 60.568 112.639C60.3877 111.286 60.6122 109.911 61.2131 108.686C61.8139 107.462 62.764 106.444 63.9428 105.762C65.1216 105.08 66.4759 104.765 67.8338 104.855C69.6393 104.982 71.3226 105.815 72.5201 107.176C73.7175 108.537 74.3329 110.315 74.2333 112.127ZM51.8993 109.047H52.3472C53.3498 109.047 54.2671 109.197 55.0563 109.325C55.8456 109.453 56.4002 109.539 56.8482 109.646C57.6718 109.775 58.4797 109.99 59.2586 110.288C59.188 110.634 59.1381 110.983 59.1093 111.335C58.9821 113.393 59.6317 115.424 60.9289 117.024C62.2261 118.623 64.0762 119.675 66.1115 119.971C68.1468 120.266 70.2184 119.783 71.9149 118.618C73.6114 117.452 74.8085 115.69 75.2686 113.68C75.7286 111.671 75.4178 109.561 74.398 107.771C73.3782 105.98 71.7239 104.64 69.7639 104.016C67.8038 103.392 65.6813 103.53 63.8181 104.403C61.9548 105.276 60.4871 106.819 59.7066 108.726C58.6613 108.512 56.3362 108.021 54.7577 107.785C54.2884 107.785 53.8831 107.636 53.5845 107.614C53.2858 107.593 51.8566 107.4 50.9607 107.4V107.55L51.8993 109.047Z" fill="white"/>
<path d="M89.1654 121.13C87.5573 121.053 86.0081 120.499 84.7134 119.54C83.4187 118.58 82.4365 117.258 81.8908 115.739C81.3451 114.221 81.2603 112.574 81.6472 111.007C82.034 109.44 82.8752 108.024 84.0645 106.936C85.2538 105.848 86.7379 105.137 88.3295 104.894C89.9211 104.651 91.5489 104.886 93.0075 105.569C94.466 106.253 95.6899 107.354 96.5247 108.734C97.3595 110.115 97.7678 111.712 97.698 113.324C97.6515 114.399 97.3936 115.455 96.9391 116.43C96.4846 117.404 95.8425 118.28 95.0496 119.005C94.2568 119.73 93.3288 120.291 92.319 120.656C91.3092 121.021 90.2375 121.182 89.1654 121.13ZM89.976 106.16C88.6123 106.065 87.2511 106.378 86.0655 107.06C84.88 107.743 83.9237 108.763 83.3183 109.992C82.7129 111.221 82.4858 112.602 82.6658 113.961C82.8459 115.319 83.425 116.594 84.3294 117.621C85.2339 118.649 86.4228 119.384 87.745 119.732C89.0671 120.08 90.4627 120.026 91.7542 119.577C93.0457 119.128 94.1747 118.304 94.9976 117.209C95.8206 116.115 96.3002 114.8 96.3754 113.431C96.4332 112.521 96.3112 111.608 96.0163 110.745C95.7214 109.882 95.2594 109.086 94.6569 108.403C94.0544 107.719 93.3233 107.162 92.5054 106.762C91.6874 106.363 90.7989 106.129 89.8907 106.075L89.976 106.16Z" fill="white"/>
<path d="M81.934 110.715C81.5442 110.124 81.0388 109.619 80.4485 109.229C79.8582 108.839 79.1952 108.574 78.4996 108.448C77.8214 108.49 77.1606 108.68 76.5636 109.005C75.9665 109.33 75.4478 109.783 75.0439 110.33L74.02 109.582C74.5445 108.861 75.2267 108.27 76.0144 107.855C76.802 107.44 77.6741 107.211 78.5636 107.187C79.4546 107.324 80.3066 107.648 81.0638 108.138C81.8211 108.628 82.4665 109.273 82.9579 110.031L81.934 110.715Z" fill="white"/>
<path d="M154.781 212.983L88.9733 251.071L45.116 225.686L110.518 187.363L154.781 212.983Z" fill="#6B749B"/>
<mask id="mask0_402_1933" style="mask-type:luminance" maskUnits="userSpaceOnUse" x="54" y="156" width="90" height="89">
<path d="M56.507 225.665L88.9734 244.442L143.304 212.983L142.131 166.853L113.163 156.567L54.9924 187.234L56.507 225.665Z" fill="white"/>
</mask>
<g mask="url(#mask0_402_1933)">
<path d="M143.326 212.983L110.539 194.013L56.5068 225.643L88.9732 244.442L143.326 212.983Z" fill="#252B3D"/>
<path d="M111.777 194.591V226.67C111.775 226.826 111.733 226.979 111.655 227.115C111.576 227.25 111.464 227.362 111.329 227.44L74.2546 248.826L72.1215 250.045L72.6548 253.702L68.0899 252.055C67.9252 251.993 67.7835 251.882 67.6842 251.737C67.585 251.591 67.5329 251.419 67.5352 251.242V215.998C67.511 215.871 67.511 215.741 67.5352 215.613C67.6148 215.451 67.7412 215.317 67.8979 215.228L110.497 190.806C110.611 190.755 110.734 190.729 110.859 190.729C110.984 190.729 111.108 190.755 111.222 190.806L116 192.517L111.777 194.591Z" fill="#142C38"/>
<path d="M72.2707 250.195L72.804 253.852L68.239 252.205C68.0743 252.143 67.9327 252.032 67.8334 251.887C67.7341 251.741 67.6821 251.568 67.6844 251.392V216.148C67.6602 216.021 67.6602 215.89 67.6844 215.763L73.7425 217.902L74.3185 249.083L72.2707 250.195Z" fill="#C6C6C6"/>
<path d="M116.533 228.466C116.539 228.622 116.502 228.775 116.426 228.911C116.351 229.046 116.241 229.159 116.107 229.236L73.5932 253.83C73.4592 253.91 73.3063 253.953 73.1503 253.954C72.9943 253.955 72.8409 253.914 72.7059 253.836C72.571 253.757 72.4595 253.644 72.383 253.507C72.3064 253.371 72.2677 253.217 72.2707 253.06V217.816C72.2699 217.659 72.311 217.505 72.3898 217.37C72.4686 217.235 72.5821 217.123 72.7186 217.046L115.104 192.452C115.238 192.372 115.391 192.33 115.547 192.329C115.703 192.328 115.856 192.369 115.991 192.447C116.126 192.526 116.238 192.639 116.314 192.775C116.391 192.912 116.43 193.066 116.427 193.222V193.671V221.003V228.445L116.533 228.466Z" fill="white"/>
<path d="M89.1653 222.949L72.3135 250.537V248.526L88.2267 222.393C88.3095 222.296 88.4241 222.232 88.5497 222.213C88.6754 222.193 88.8038 222.22 88.9119 222.287C89.02 222.354 89.1006 222.457 89.1392 222.579C89.1779 222.7 89.172 222.831 89.1226 222.949H89.1653Z" fill="#142C38"/>
<path d="M116.533 222.136L101.601 217.324C101.489 217.267 101.4 217.171 101.352 217.054C101.303 216.937 101.297 216.806 101.336 216.686C101.374 216.565 101.454 216.462 101.561 216.395C101.669 216.327 101.796 216.301 101.921 216.319L116.448 221.024L116.533 222.136Z" fill="#142C38"/>
<path d="M116.427 193.693L96.8018 225.772L72.292 217.88V217.752C72.2912 217.595 72.3323 217.441 72.4111 217.306C72.4899 217.17 72.6035 217.058 72.74 216.982L96.2045 224.553L115.829 192.474C115.973 192.549 116.093 192.663 116.176 192.803C116.259 192.942 116.301 193.102 116.299 193.265L116.427 193.693Z" fill="#142C38"/>
<path d="M131.017 201.285V233.364C131.018 233.52 130.977 233.675 130.898 233.81C130.819 233.945 130.706 234.057 130.569 234.134L93.4954 255.52L91.3623 256.717L91.9169 260.374L87.352 258.749H87.224C87.0665 258.673 86.9332 258.555 86.839 258.408C86.7448 258.261 86.6934 258.09 86.6907 257.915V222.671C86.6591 222.544 86.6591 222.412 86.6907 222.286C86.7639 222.119 86.892 221.984 87.0533 221.901L129.695 197.414C129.927 197.319 130.188 197.319 130.42 197.414L135.177 199.146L131.017 201.285Z" fill="#142C38"/>
<path d="M91.5117 256.846L92.0663 260.503L87.5014 258.877H87.3734C87.2159 258.802 87.0826 258.684 86.9884 258.536C86.8942 258.389 86.8428 258.218 86.8401 258.043V222.799C86.8085 222.673 86.8085 222.54 86.8401 222.414L92.8982 224.553L93.4742 255.755L91.5117 256.846Z" fill="#C6C6C6"/>
<path d="M135.796 235.075C135.796 235.231 135.755 235.385 135.677 235.521C135.598 235.656 135.484 235.768 135.348 235.844L92.8556 260.438C92.72 260.517 92.5662 260.558 92.4096 260.559C92.253 260.559 92.099 260.518 91.9631 260.44C91.8271 260.362 91.7139 260.25 91.6347 260.115C91.5555 259.979 91.5131 259.825 91.5117 259.668V255.135V224.574V224.531C91.5131 224.375 91.5551 224.222 91.6337 224.087C91.7123 223.952 91.8246 223.839 91.9597 223.761L134.239 199.232C134.373 199.159 134.523 199.12 134.676 199.12C134.829 199.12 134.979 199.159 135.113 199.232C135.255 199.309 135.374 199.423 135.457 199.562C135.539 199.702 135.583 199.861 135.582 200.023V200.493V227.803V235.246L135.796 235.075Z" fill="white"/>
<path d="M108.363 229.557L91.4902 257.166V255.135L107.467 229.001C107.497 228.93 107.542 228.866 107.599 228.814C107.656 228.762 107.723 228.723 107.797 228.699C107.87 228.676 107.948 228.669 108.024 228.678C108.101 228.688 108.174 228.713 108.24 228.754C108.305 228.795 108.361 228.849 108.404 228.914C108.446 228.978 108.474 229.051 108.486 229.127C108.498 229.203 108.493 229.281 108.472 229.356C108.451 229.43 108.414 229.499 108.363 229.557Z" fill="#142C38"/>
<path d="M135.774 228.809L120.842 223.997C120.766 223.985 120.693 223.958 120.628 223.915C120.563 223.873 120.508 223.817 120.467 223.751C120.426 223.685 120.4 223.611 120.391 223.534C120.381 223.457 120.388 223.379 120.412 223.305C120.435 223.231 120.475 223.163 120.527 223.106C120.579 223.049 120.643 223.004 120.715 222.974C120.786 222.944 120.863 222.931 120.94 222.934C121.018 222.937 121.093 222.956 121.162 222.992L135.689 227.697L135.774 228.809Z" fill="#142C38"/>
<path d="M135.689 200.322L116.064 232.401L91.5542 224.531C91.5556 224.375 91.5977 224.222 91.6762 224.087C91.7548 223.952 91.8671 223.84 92.0022 223.762L115.467 231.332L135.092 199.253C135.234 199.33 135.352 199.445 135.435 199.584C135.518 199.723 135.561 199.882 135.561 200.044L135.689 200.322Z" fill="#142C38"/>
</g>
<path d="M154.781 212.983V289.16L88.9734 327.248V251.071L154.781 212.983Z" fill="#3A4059"/>
<path d="M137.054 270.212L137.246 279.707L113.931 292.753L113.76 285.246L124.021 267.196C125.314 265.363 126.054 263.195 126.154 260.952C126.154 259.177 125.151 258.621 123.274 259.669C121.192 261.002 119.674 263.058 119.008 265.443L111.521 264.972C113.565 258.432 118 252.909 123.935 249.51C130.847 245.639 135.796 247.372 135.945 254.279C135.945 257.872 135.348 261.508 131.209 268.651L127.156 275.708L137.054 270.212Z" fill="#51557C"/>
<path d="M88.9733 327.248L45.116 301.329V225.686L88.9733 251.071V327.248Z" fill="#252B3D"/>
<path d="M19.7315 245.554C25.8749 244.677 32.765 242.132 38.9298 240.806C38.7804 240.079 38.6311 239.266 38.5031 238.411C38.5031 238.133 38.5031 237.812 38.3538 237.513L38.1618 236.315C34.6208 212.384 32.381 157.187 32.381 157.187C27.1739 159.915 22.706 163.871 19.3617 168.714C16.0175 173.557 13.897 179.142 13.1828 184.989C11.3696 198.505 16.7451 230.455 19.7315 245.554Z" fill="#D5243A"/>
<path d="M19.7317 245.554C21.3315 260.952 60.432 302.034 74.2761 311.423L78.2437 294.613C50.2996 257.359 40.8285 241.918 38.738 238.347C38.3967 237.769 38.2687 237.513 38.2687 237.513L29.4375 241.319L19.7317 245.554Z" fill="#D5243A"/>
<path d="M29.4373 241.17L29.5653 241.319L29.7573 241.49C29.9291 241.601 30.129 241.66 30.3332 241.66C30.5374 241.66 30.7373 241.601 30.9092 241.49C33.2473 240.023 35.8252 238.981 38.5245 238.411H38.8445C38.5032 237.833 38.3752 237.577 38.3752 237.577L38.1832 236.379C35.1558 236.981 32.2639 238.133 29.6506 239.78C29.4494 239.943 29.3162 240.176 29.2768 240.433C29.2374 240.69 29.2946 240.953 29.4373 241.17Z" fill="#430101"/>
<path d="M78.2437 294.613C78.2437 294.613 87.5016 295.661 88.1628 299.168V319.015C88.1628 319.015 81.8914 321.645 74.2761 311.423C73.6498 308.501 73.6809 305.477 74.3673 302.569C75.0536 299.661 76.3779 296.943 78.2437 294.613Z" fill="#FCB38F"/>
<path d="M88.0987 295.105C88.0987 295.105 100.556 296.752 99.2124 300.003C98.7644 301.136 89.1653 301.072 89.1653 301.072L89.336 302.633C89.336 302.633 99.703 303.489 100.983 306.354C102.263 309.22 89.8479 307.53 89.8479 307.53L90.0612 309.498C90.0612 309.498 98.2951 310.054 99.6603 312.471C101.026 314.887 89.1226 314.139 89.1226 314.139L89.2933 315.657C89.2933 315.657 94.0928 316.619 95.6927 318.886C97.2926 321.153 89.1226 320.105 85.7736 318.886C85.2751 318.748 84.8138 318.5 84.4239 318.159C84.0339 317.819 83.7252 317.395 83.5205 316.918C83.3158 316.442 83.2203 315.926 83.2411 315.408C83.2618 314.89 83.3983 314.383 83.6405 313.925C83.6405 313.925 82.0406 309.776 84.0671 307.509C84.0671 307.509 81.9339 304.173 84.2804 301.885C84.2804 301.82 81.9979 294.87 88.0987 295.105Z" fill="#FCB38F"/>
<path d="M78.2435 294.613C79.1382 293.08 79.8949 291.47 80.5047 289.802C81.3793 287.342 83.4911 284.113 84.3017 285.866C84.8847 288.045 84.8847 290.339 84.3017 292.518C83.8324 297.372 85.5389 296.56 85.1763 298.121C84.8136 299.682 77.9662 297.565 78.2435 294.613Z" fill="#FCB38F"/>
<path d="M155.783 247.35C155.783 247.35 143.347 249.125 144.734 252.376C145.203 253.488 154.781 253.338 154.781 253.338L154.631 254.878C154.631 254.878 144.286 255.862 143.027 258.728C141.769 261.593 154.183 259.797 154.183 259.797L153.991 261.764C153.991 261.764 145.758 262.427 144.435 264.823C143.112 267.218 154.973 266.384 154.973 266.384L154.823 267.924C154.823 267.924 150.045 268.929 148.424 271.196C146.803 273.463 155.015 272.351 158.343 271.003C158.847 270.869 159.314 270.623 159.708 270.281C160.103 269.94 160.415 269.513 160.62 269.033C160.826 268.552 160.92 268.032 160.895 267.51C160.87 266.988 160.727 266.478 160.476 266.02C160.476 266.02 162.033 261.743 159.986 259.604C159.986 259.604 161.969 256.268 159.687 254.001C159.666 253.959 161.884 246.965 155.783 247.35Z" fill="#FCB38F"/>
<path d="M158.514 248.762C158.514 250.237 156.594 251.2 154.781 251.627V238.796C155.698 239.181 156.701 241.683 157.042 243.651C157.377 245.396 157.869 247.106 158.514 248.762Z" fill="#FCB38F"/>
<path d="M557.859 270.255L565.752 287.577V274.831L557.859 270.255Z" fill="#FF4A67"/>
<path d="M565.751 287.577L569.676 285.31V277.098L565.751 274.831V287.577Z" fill="#430101"/>
<path d="M602.463 227.055V284.669L592.522 290.422L593.397 232.337L602.463 227.055Z" fill="#430101"/>
<path d="M541.924 202.547V261.123L592.522 290.422L593.397 232.337L541.924 202.547Z" fill="#FF4A67"/>
<path d="M569.399 254.6L561.549 250.066L560.397 223.462L572.193 230.242L569.399 254.6ZM564.855 268.736C563.138 267.608 561.732 266.065 560.766 264.249C559.8 262.432 559.307 260.401 559.331 258.343C559.459 254.386 561.912 252.74 565.325 254.686C567.044 255.786 568.454 257.309 569.421 259.109C570.387 260.91 570.879 262.928 570.85 264.972C570.807 268.865 568.354 270.704 564.855 268.736Z" fill="white"/>
<path d="M602.463 227.055L551.011 197.264L541.924 202.547L593.397 232.337L602.463 227.055Z" fill="#D5243A"/>
<path d="M714.922 196.152L722.537 212.855V200.558L714.922 196.152Z" fill="#FF4A67"/>
<path d="M722.537 212.855L726.313 210.673V202.739L722.537 200.558V212.855Z" fill="#430101"/>
<path d="M740.818 144.633V200.151L731.24 205.69L732.072 149.745L740.818 144.633Z" fill="#430101"/>
<path d="M661.977 109.175V165.592L731.24 205.69L732.072 149.745L661.977 109.175Z" fill="#FF4A67"/>
<path d="M707.136 155.861C704.555 155.861 702.87 159.283 703.51 163.41C704.15 167.538 706.667 170.853 709.248 170.788C711.829 170.724 713.514 167.367 712.874 163.239C712.234 159.112 709.738 155.818 707.136 155.861Z" fill="white"/>
<path d="M693.59 148.611C690.988 148.611 689.324 152.033 689.964 156.161C690.604 160.288 693.1 163.603 695.702 163.56C698.305 163.517 699.969 160.117 699.329 155.989C698.689 151.862 696.172 148.568 693.59 148.611Z" fill="white"/>
<path d="M679.917 141.383C677.336 141.383 675.651 144.805 676.291 148.932C676.931 153.059 679.448 156.353 682.029 156.31C684.61 156.267 686.295 152.888 685.655 148.761C685.015 144.633 682.52 141.319 679.917 141.383Z" fill="white"/>
<path d="M740.818 144.633L670.745 104.085L662.02 109.175L732.072 149.745L740.818 144.633Z" fill="#D5243A"/>
<path d="M147.635 52.5453V171.451C147.635 171.713 147.702 171.97 147.829 172.198C147.956 172.426 148.139 172.618 148.36 172.756L293.414 256.696C293.642 256.822 293.899 256.888 294.16 256.888C294.551 256.888 294.925 256.733 295.201 256.456C295.477 256.179 295.632 255.804 295.632 255.413V136.699C295.634 136.44 295.568 136.185 295.441 135.96C295.313 135.735 295.129 135.547 294.907 135.416L149.853 51.3049C149.626 51.1724 149.369 51.0989 149.107 51.0911C148.722 51.0964 148.353 51.2507 148.079 51.5217C147.805 51.7927 147.646 52.1594 147.635 52.5453Z" fill="#142C38"/>
<path d="M200.601 180.434L208.515 197.799V185.01L200.601 180.434Z" fill="#FF4A67"/>
<path d="M208.493 197.799L212.418 195.511V187.277L208.515 185.01L208.493 197.799Z" fill="#430101"/>
<path d="M245.268 137.148V194.869L235.307 200.622L236.181 142.452L245.268 137.148Z" fill="#430101"/>
<path d="M184.623 112.619V171.28L235.307 200.622L236.181 142.452L184.623 112.619Z" fill="#FF4A67"/>
<path d="M245.268 137.148L193.71 107.315L184.623 112.618L236.181 142.452L245.268 137.148Z" fill="#D5243A"/>
<path d="M193.689 146.558C193.54 155.519 200.963 167.303 210.221 172.863C219.479 178.423 227.094 175.643 227.286 166.704C227.478 157.764 219.991 145.938 210.754 140.399C201.518 134.86 193.689 137.619 193.689 146.558ZM203.011 158.214C202.493 156.172 202.221 154.075 202.2 151.969L209.773 156.524V162.213L203.011 158.214ZM206.829 169.142C202.517 165.564 199.11 161.013 196.889 155.861L202.008 158.919C202.704 161.324 203.656 163.647 204.846 165.848C205.4 166.982 206.061 168.094 206.765 169.142H206.829ZM209.666 163.517L209.56 171.131C206.819 167.769 204.741 163.915 203.438 159.775L209.666 163.517ZM204.035 144.719C205.297 142.841 207.215 141.506 209.41 140.976L210.008 141.319L209.901 148.226L204.035 144.719ZM197.636 140.827C199.769 138.838 203.267 138.538 207.128 139.95C206.366 140.268 205.649 140.685 204.995 141.19C204.069 141.92 203.281 142.811 202.67 143.821L197.636 140.827ZM202.307 150.686C202.375 148.948 202.804 147.244 203.566 145.681L209.965 149.531V155.22L202.307 150.686ZM195.161 146.408C195.265 144.705 195.849 143.066 196.846 141.682L202.136 144.847C201.426 146.439 201.028 148.152 200.963 149.894L195.161 146.408ZM200.942 151.199C200.952 153.281 201.202 155.355 201.689 157.379L196.334 154.172C195.592 152.111 195.182 149.946 195.118 147.756L200.942 151.199ZM219.991 162.619L225.964 166.212C225.958 167.948 225.478 169.649 224.577 171.131L219.074 167.816C219.61 166.1 219.87 164.31 219.842 162.512L219.991 162.619ZM211.33 149.06L211.437 142.131L211.864 142.409C213.121 144.234 214.24 146.149 215.213 148.141C215.908 149.529 216.52 150.957 217.047 152.418L211.33 149.06ZM217.58 154.129C218.218 156.21 218.577 158.368 218.647 160.545L211.096 156.096V150.408L217.58 154.129ZM218.519 153.359C217.932 151.536 217.219 149.757 216.386 148.034C215.725 146.708 215.021 145.403 214.253 144.142C218.275 147.504 221.515 151.709 223.745 156.46L218.519 153.359ZM218.647 161.913C218.611 163.668 218.28 165.403 217.666 167.046L211.138 163.132V157.444L218.647 161.913ZM220.012 161.4C219.948 159.228 219.611 157.072 219.01 154.984L224.428 158.235C225.284 160.356 225.796 162.602 225.942 164.886L220.012 161.4ZM223.895 172.093C221.655 174.51 217.836 174.937 213.527 173.248C214.282 173.064 215.002 172.761 215.661 172.35C216.967 171.518 218.01 170.332 218.668 168.928L223.895 172.093ZM217.175 168.051C216.602 169.208 215.72 170.184 214.629 170.871C213.537 171.557 212.278 171.929 210.989 171.943L211.117 164.415L217.175 168.051Z" fill="white"/>
<g opacity="0.1">
<path d="M275.005 148.846C274.675 148.845 274.351 148.757 274.066 148.59L165.212 85.5225C164.788 85.2728 164.48 84.8644 164.356 84.3872C164.232 83.91 164.302 83.403 164.551 82.9776C164.8 82.553 165.206 82.2436 165.68 82.1156C166.155 81.9876 166.661 82.0514 167.089 82.2932L275.879 145.425C276.239 145.626 276.522 145.941 276.684 146.322C276.845 146.702 276.876 147.125 276.77 147.525C276.665 147.924 276.43 148.277 276.103 148.528C275.776 148.779 275.374 148.914 274.962 148.911L275.005 148.846Z" fill="#252B3D"/>
</g>
<g opacity="0.1">
<path d="M275.005 234.626C274.675 234.624 274.351 234.536 274.066 234.369L165.276 171.238C164.849 170.988 164.538 170.579 164.412 170.099C164.286 169.62 164.355 169.11 164.604 168.682C164.853 168.254 165.261 167.942 165.739 167.816C166.217 167.69 166.726 167.759 167.153 168.008L275.943 231.14C276.303 231.341 276.586 231.656 276.748 232.037C276.909 232.417 276.94 232.84 276.834 233.24C276.729 233.639 276.494 233.992 276.167 234.243C275.84 234.494 275.438 234.629 275.026 234.626H275.005Z" fill="#252B3D"/>
</g>
<path opacity="0.1" d="M147.635 52.5453V58.1912L295.611 144.035V136.699C295.613 136.44 295.547 136.185 295.419 135.96C295.292 135.735 295.108 135.547 294.885 135.416L149.853 51.3049C149.626 51.1724 149.369 51.0989 149.107 51.0911C148.722 51.0964 148.353 51.2507 148.079 51.5217C147.805 51.7927 147.646 52.1594 147.635 52.5453Z" fill="#252B3D"/>
<path d="M288.55 136.229C288.55 137.234 289.233 138.025 289.958 138.025C290.683 138.025 291.216 137.234 291.152 136.229C291.088 135.224 290.491 134.454 289.766 134.454C289.041 134.454 288.486 135.245 288.55 136.229Z" fill="#FF7A8C"/>
<path d="M284.369 134.133C284.369 135.117 285.052 135.908 285.777 135.908C286.502 135.908 287.057 135.117 286.993 134.133C286.929 133.149 286.31 132.336 285.585 132.336C284.86 132.336 284.326 133.128 284.369 134.133Z" fill="#3A4059"/>
<path d="M280.679 132.058C280.679 133.064 281.361 133.855 282.086 133.855C282.812 133.855 283.345 133.064 283.302 132.058C283.26 131.053 282.62 130.262 281.895 130.262C281.169 130.262 280.615 131.075 280.679 132.058Z" fill="#D5243A"/>
<path d="M440.366 756.166L467.883 771.606C468.757 772.184 469.469 772.977 469.95 773.909C470.431 774.842 470.666 775.882 470.631 776.931C470.597 777.98 470.295 779.003 469.754 779.902C469.213 780.8 468.452 781.545 467.542 782.064L316.579 869.447C313.815 871.055 310.677 871.901 307.482 871.901C304.286 871.901 301.148 871.055 298.384 869.447L2.11186 696.499C1.47812 696.129 0.950233 695.601 0.579184 694.967C0.208135 694.332 0.00644149 693.613 -0.00642353 692.878C-0.0192886 692.143 0.157107 691.417 0.505737 690.77C0.854367 690.123 1.36345 689.577 1.98386 689.185L30.4613 671.499L302.053 828.728L440.366 756.166Z" fill="#142C38"/>
<path d="M311.95 848.04C314.152 848.116 316.341 847.684 318.35 846.778L321.123 845.153L322.275 844.49L451.052 769.446C452.195 768.78 453.143 767.825 453.801 766.677C454.46 765.528 454.807 764.227 454.807 762.902V748.616C454.786 747.855 454.569 747.112 454.176 746.46C453.784 745.807 453.229 745.268 452.567 744.895L439 737.068L312.761 810.165L312.27 831.38L311.95 848.04Z" fill="#252B3D"/>
<path d="M20.6914 662.474V676.182C20.6875 677.914 21.1389 679.617 22.0002 681.119C22.8615 682.621 24.1023 683.868 25.5976 684.736L303.332 845.495L303.951 845.859C306.407 847.148 309.117 847.878 311.886 847.997L312.27 831.337L312.761 810.123L36.6686 651.438L22.8459 659.394C22.2764 659.709 21.7863 660.15 21.4129 660.684C21.0395 661.217 20.7927 661.83 20.6914 662.474Z" fill="#3A4059"/>
<path d="M402.14 741.431L279.441 812.903L40.8284 674.771L164.359 603.791L402.14 741.431Z" fill="white"/>
<path d="M402.14 741.431L279.441 812.903L40.8284 674.771L164.359 603.791L402.14 741.431Z" fill="white"/>
<path d="M407.558 785.636V789.292C407.56 789.436 407.524 789.577 407.453 789.702C407.381 789.826 407.278 789.929 407.153 789.998L372.084 810.294C371.96 810.365 371.82 810.402 371.678 810.402C371.535 810.402 371.396 810.365 371.272 810.293C371.149 810.222 371.047 810.119 370.976 809.995C370.905 809.871 370.867 809.731 370.868 809.588V805.931C370.865 805.787 370.902 805.646 370.973 805.522C371.044 805.397 371.148 805.295 371.273 805.225L406.342 784.844C406.472 784.768 406.62 784.729 406.77 784.733C406.921 784.736 407.067 784.781 407.194 784.863C407.32 784.946 407.421 785.061 407.485 785.198C407.549 785.334 407.575 785.486 407.558 785.636Z" fill="#6B749B"/>
<path d="M407.558 785.636V787.774C407.56 787.918 407.524 788.059 407.453 788.183C407.381 788.308 407.278 788.41 407.153 788.48L372.084 808.775C371.96 808.847 371.82 808.884 371.678 808.884C371.535 808.884 371.396 808.846 371.272 808.775C371.149 808.703 371.047 808.6 370.976 808.476C370.905 808.353 370.867 808.212 370.868 808.069V805.931C370.865 805.787 370.902 805.646 370.973 805.522C371.044 805.397 371.148 805.295 371.273 805.225L406.342 784.844C406.472 784.768 406.62 784.729 406.77 784.733C406.921 784.736 407.067 784.781 407.194 784.863C407.32 784.946 407.421 785.061 407.485 785.198C407.549 785.334 407.575 785.486 407.558 785.636Z" fill="#51557C"/>
<path d="M359.776 815.255C359.669 817.394 358.688 819.126 357.642 819.062C357.515 819.082 357.386 819.082 357.258 819.062C356.707 818.586 356.286 817.976 356.036 817.291C355.786 816.606 355.715 815.869 355.829 815.148C355.784 814.438 355.917 813.728 356.215 813.081C356.513 812.435 356.967 811.874 357.536 811.448C357.697 811.406 357.866 811.406 358.026 811.448C359.072 811.32 359.882 813.117 359.776 815.255Z" fill="#6B749B"/>
<path d="M358.922 815.255C358.971 815.969 358.84 816.684 358.542 817.334C358.244 817.984 357.788 818.549 357.216 818.976C356.664 818.5 356.244 817.891 355.993 817.206C355.743 816.521 355.672 815.783 355.786 815.063C355.741 814.352 355.874 813.642 356.172 812.996C356.47 812.35 356.924 811.788 357.493 811.363C358.389 811.748 359.008 813.373 358.922 815.255Z" fill="#51557C"/>
<path d="M20.6914 664.013C20.7962 664.656 21.0418 665.268 21.4107 665.804C21.7796 666.34 22.2624 666.788 22.8245 667.114L302.053 828.728C305.168 830.552 308.728 831.47 312.334 831.38C315.68 831.311 318.954 830.392 321.848 828.707L452.588 752.616C453.227 752.225 453.757 751.679 454.129 751.028C454.502 750.378 454.706 749.644 454.721 748.894V748.616C454.701 747.855 454.484 747.112 454.091 746.46C453.698 745.807 453.144 745.268 452.482 744.895L439 737.068L386.61 706.743L246.442 625.604L166.598 579.346C165.927 578.958 165.165 578.753 164.39 578.753C163.615 578.753 162.854 578.958 162.183 579.346L36.6686 651.438L22.8459 659.373C22.2857 659.702 21.8043 660.15 21.4357 660.686C21.0671 661.221 20.8203 661.832 20.7127 662.474C20.6201 662.982 20.6129 663.503 20.6914 664.013Z" fill="#51557C"/>
<path d="M383.539 774.879C383.88 781.465 376.094 784.823 366.9 784.823C357.706 784.823 349.835 781.872 350.262 774.707C350.518 769.981 357.706 767.693 366.9 767.693C376.094 767.693 383.347 770.152 383.539 774.879Z" fill="#3A4059"/>
<path d="M366.943 783.262C376.132 783.262 383.581 779.422 383.581 774.686C383.581 769.95 376.132 766.11 366.943 766.11C357.754 766.11 350.304 769.95 350.304 774.686C350.304 779.422 357.754 783.262 366.943 783.262Z" fill="#6B749B"/>
<g style="mix-blend-mode:screen" opacity="0.3">
<path d="M379.976 774.151C379.976 777.851 374.153 780.867 366.943 780.867C359.733 780.867 353.888 777.851 353.888 774.151C353.888 770.451 359.733 767.436 366.943 767.436C374.153 767.436 379.998 770.43 379.976 774.151Z" fill="#6B749B"/>
</g>
<path d="M50.4489 665.553L57.1683 669.36L79.0116 682.191L128.245 710.699L181.701 741.644L203.16 754.07L242.218 776.675L276.348 796.393C277.989 797.344 279.85 797.846 281.745 797.846C283.64 797.846 285.502 797.344 287.142 796.393L291.515 793.869L335.65 768.206L357.109 755.738L398.641 731.379C399.226 731.042 399.712 730.556 400.05 729.97C400.388 729.384 400.565 728.72 400.565 728.043C400.565 727.366 400.388 726.702 400.05 726.116C399.712 725.53 399.226 725.044 398.641 724.707L357.045 700.648L335.586 688.222L291.451 662.666L242.218 634.073L203.16 611.447L181.701 599.043L180.122 598.123L171.995 593.418C170.357 592.472 168.5 591.975 166.609 591.975C164.718 591.975 162.861 592.472 161.223 593.418L128.245 612.366L79.0116 640.66L50.4489 657.063C49.7045 657.492 49.0861 658.111 48.6561 658.856C48.2261 659.601 47.9998 660.447 47.9998 661.308C47.9998 662.169 48.2261 663.015 48.6561 663.76C49.0861 664.505 49.7045 665.124 50.4489 665.553Z" fill="white"/>
<path d="M288.209 769.553C288.72 769.555 289.222 769.414 289.659 769.147L365.492 724.964C366.163 724.572 366.651 723.93 366.849 723.178C367.047 722.426 366.939 721.626 366.548 720.954C366.158 720.282 365.517 719.792 364.767 719.594C364.017 719.395 363.219 719.504 362.549 719.895L286.737 764.057C286.175 764.378 285.735 764.877 285.487 765.476C285.238 766.074 285.195 766.739 285.363 767.365C285.531 767.991 285.902 768.543 286.417 768.935C286.932 769.328 287.562 769.537 288.209 769.532V769.553Z" fill="#142C38"/>
<path d="M267.709 758.219C268.218 758.218 268.717 758.086 269.16 757.834L344.993 713.65C345.351 713.472 345.669 713.221 345.926 712.914C346.184 712.607 346.376 712.25 346.49 711.865C346.605 711.481 346.639 711.077 346.591 710.678C346.543 710.28 346.414 709.895 346.212 709.549C346.01 709.203 345.74 708.902 345.417 708.664C345.094 708.427 344.726 708.259 344.335 708.171C343.945 708.082 343.541 708.075 343.147 708.149C342.754 708.224 342.38 708.378 342.049 708.603L266.216 752.765C265.882 752.956 265.589 753.211 265.355 753.516C265.12 753.821 264.948 754.17 264.849 754.542C264.75 754.914 264.725 755.302 264.777 755.683C264.828 756.065 264.955 756.432 265.149 756.765C265.411 757.211 265.786 757.58 266.235 757.835C266.684 758.091 267.193 758.223 267.709 758.219Z" fill="#142C38"/>
<path d="M247.21 746.905C247.728 746.904 248.236 746.764 248.682 746.499L324.493 702.337C324.843 702.154 325.152 701.902 325.402 701.596C325.651 701.29 325.837 700.937 325.947 700.557C326.057 700.178 326.089 699.78 326.042 699.387C325.994 698.995 325.868 698.616 325.671 698.274C325.473 697.931 325.209 697.633 324.893 697.396C324.578 697.159 324.218 696.988 323.835 696.894C323.452 696.8 323.054 696.785 322.665 696.849C322.276 696.914 321.904 697.056 321.571 697.269L245.738 741.431C245.066 741.824 244.578 742.467 244.378 743.221C244.178 743.974 244.283 744.776 244.671 745.451C244.935 745.891 245.306 746.256 245.751 746.511C246.195 746.766 246.698 746.902 247.21 746.905Z" fill="#142C38"/>
<path d="M226.71 735.657C227.225 735.653 227.731 735.521 228.182 735.272L303.994 691.088C304.324 690.896 304.614 690.64 304.846 690.336C305.078 690.031 305.248 689.684 305.346 689.313C305.444 688.943 305.468 688.557 305.417 688.177C305.366 687.797 305.242 687.431 305.05 687.1C304.858 686.768 304.603 686.478 304.299 686.245C303.995 686.013 303.649 685.843 303.279 685.744C302.91 685.646 302.525 685.622 302.146 685.673C301.767 685.724 301.402 685.849 301.071 686.041L225.238 730.203C224.572 730.596 224.088 731.237 223.892 731.986C223.696 732.736 223.804 733.533 224.193 734.202C224.446 734.647 224.813 735.015 225.255 735.271C225.698 735.527 226.2 735.66 226.71 735.657Z" fill="#142C38"/>
<path d="M206.211 724.258C206.729 724.26 207.238 724.119 207.682 723.851L283.494 679.689C283.844 679.506 284.153 679.254 284.403 678.948C284.652 678.643 284.838 678.289 284.948 677.91C285.058 677.53 285.09 677.132 285.043 676.739C284.995 676.347 284.869 675.968 284.672 675.626C284.474 675.284 284.21 674.985 283.894 674.748C283.579 674.511 283.219 674.34 282.836 674.246C282.453 674.152 282.055 674.137 281.666 674.201C281.277 674.266 280.904 674.409 280.572 674.621L204.739 718.783C204.193 719.114 203.77 719.615 203.532 720.209C203.295 720.802 203.256 721.457 203.422 722.075C203.588 722.693 203.95 723.24 204.453 723.633C204.956 724.027 205.573 724.246 206.211 724.258Z" fill="#142C38"/>
<path d="M185.711 712.923C186.227 712.923 186.733 712.79 187.183 712.538L263.016 668.355C263.63 667.938 264.062 667.302 264.226 666.578C264.39 665.853 264.272 665.093 263.898 664.451C263.524 663.81 262.921 663.335 262.211 663.123C261.5 662.91 260.736 662.977 260.072 663.308L184.261 707.47C183.711 707.795 183.283 708.291 183.041 708.883C182.799 709.475 182.757 710.13 182.921 710.749C183.086 711.367 183.448 711.914 183.951 712.307C184.455 712.699 185.073 712.916 185.711 712.923Z" fill="#142C38"/>
<path d="M165.233 701.61C165.745 701.611 166.247 701.471 166.684 701.204L242.517 657.041C242.849 656.848 243.139 656.59 243.372 656.284C243.605 655.978 243.775 655.628 243.873 655.256C243.971 654.883 243.995 654.495 243.943 654.114C243.892 653.732 243.766 653.364 243.573 653.032C243.379 652.699 243.123 652.407 242.817 652.174C242.511 651.941 242.163 651.77 241.791 651.672C241.42 651.574 241.033 651.55 240.652 651.601C240.272 651.653 239.905 651.779 239.573 651.973L163.825 696.135C163.263 696.456 162.824 696.955 162.575 697.554C162.327 698.152 162.283 698.817 162.451 699.443C162.62 700.069 162.99 700.621 163.505 701.013C164.02 701.405 164.65 701.615 165.297 701.61H165.233Z" fill="#142C38"/>
<path d="M144.733 690.275C145.248 690.272 145.754 690.14 146.205 689.89L222.017 645.707C222.375 645.528 222.693 645.277 222.951 644.97C223.208 644.663 223.4 644.306 223.515 643.922C223.629 643.537 223.663 643.133 223.616 642.735C223.568 642.336 223.439 641.952 223.237 641.605C223.035 641.259 222.764 640.958 222.441 640.721C222.118 640.484 221.75 640.316 221.36 640.227C220.969 640.138 220.565 640.131 220.172 640.205C219.778 640.28 219.405 640.435 219.073 640.66L143.262 684.822C142.71 685.148 142.281 685.646 142.04 686.24C141.799 686.834 141.758 687.491 141.925 688.111C142.093 688.73 142.458 689.277 142.965 689.668C143.472 690.059 144.094 690.272 144.733 690.275Z" fill="#142C38"/>
<path d="M124.234 678.962C124.752 678.961 125.26 678.821 125.706 678.556L201.518 634.394C201.867 634.211 202.176 633.959 202.426 633.653C202.676 633.347 202.861 632.994 202.971 632.614C203.081 632.234 203.114 631.836 203.066 631.444C203.019 631.052 202.892 630.673 202.695 630.331C202.498 629.988 202.233 629.69 201.918 629.452C201.602 629.215 201.242 629.045 200.859 628.951C200.476 628.857 200.078 628.842 199.689 628.906C199.3 628.97 198.928 629.113 198.595 629.325L122.762 673.487C122.216 673.819 121.793 674.319 121.555 674.913C121.318 675.507 121.279 676.162 121.445 676.78C121.611 677.397 121.973 677.944 122.476 678.338C122.979 678.731 123.596 678.951 124.234 678.962Z" fill="#142C38"/>
<path d="M103.735 667.628C104.25 667.627 104.757 667.495 105.207 667.243L181.018 623.059C181.686 622.671 182.172 622.032 182.37 621.284C182.568 620.536 182.462 619.74 182.074 619.071C181.687 618.402 181.05 617.914 180.304 617.716C179.558 617.517 178.764 617.624 178.096 618.012L102.263 662.174C101.597 662.567 101.113 663.208 100.917 663.958C100.721 664.707 100.829 665.504 101.218 666.174C101.471 666.618 101.838 666.987 102.28 667.242C102.722 667.498 103.224 667.631 103.735 667.628Z" fill="#142C38"/>
<path d="M50.4487 665.553L57.1681 669.36L180.229 598.08L172.102 593.375C170.463 592.43 168.606 591.932 166.715 591.932C164.825 591.932 162.968 592.43 161.329 593.375L128.351 612.323L79.1181 640.617L50.5553 657.02C49.7954 657.437 49.1596 658.049 48.7132 658.793C48.2669 659.537 48.0259 660.387 48.015 661.255C48.0042 662.124 48.2238 662.979 48.6515 663.735C49.0791 664.49 49.6994 665.117 50.4487 665.553Z" fill="#51557C"/>
<path d="M95.7354 639.419C96.1397 639.363 96.5302 639.233 96.8873 639.035L141.982 613.157C143.006 612.58 143.07 611.639 142.131 611.019C141.586 610.729 140.978 610.577 140.361 610.577C139.743 610.577 139.135 610.729 138.59 611.019L93.4316 636.917C92.4291 637.495 92.3651 638.436 93.3037 639.056C94.0516 639.444 94.9071 639.572 95.7354 639.419Z" fill="#6B749B"/>
<path d="M291.814 686.469C291.871 686.767 291.835 687.076 291.708 687.352C291.582 687.628 291.373 687.858 291.11 688.008L212.397 733.518C212.223 733.607 212.036 733.664 211.842 733.689C211.51 733.731 211.173 733.664 210.882 733.496L160.903 702.808C160.683 702.67 160.502 702.478 160.378 702.249C160.255 702.02 160.193 701.763 160.199 701.503V688.137L170.63 694.659L238.122 655.566C238.351 655.44 238.608 655.375 238.869 655.375C239.13 655.375 239.387 655.44 239.616 655.566L279.356 678.577L280.828 679.433L291.856 673.209L291.814 686.469Z" fill="#D5243A"/>
<path d="M291.814 686.469C291.872 686.767 291.835 687.076 291.708 687.352C291.582 687.628 291.373 687.858 291.11 688.009L212.397 733.518C212.223 733.607 212.036 733.665 211.842 733.689V718.206L279.356 678.577L280.828 679.433L291.856 673.209L291.814 686.469Z" fill="#430101"/>
<path d="M291.344 674.535L291.11 674.706L212.397 720.259C212.298 720.338 212.18 720.39 212.055 720.408C211.86 720.464 211.655 720.479 211.454 720.453C211.252 720.427 211.058 720.361 210.882 720.259L209.688 719.51L160.903 689.57C160.693 689.449 160.523 689.271 160.412 689.056C160.313 688.888 160.248 688.702 160.221 688.508C160.194 688.315 160.205 688.118 160.255 687.929C160.305 687.74 160.391 687.563 160.51 687.407C160.628 687.252 160.776 687.122 160.945 687.025L161.969 686.426L237.504 642.692L238.122 642.328C238.351 642.203 238.608 642.137 238.869 642.137C239.13 642.137 239.387 642.203 239.616 642.328L240.042 642.585L291.024 672.097C291.242 672.204 291.431 672.364 291.572 672.562C291.714 672.759 291.805 672.989 291.837 673.23C291.868 673.472 291.84 673.717 291.754 673.945C291.668 674.173 291.527 674.375 291.344 674.535Z" fill="#FF4A67"/>
<path d="M240.042 642.585L232.747 664.099L231.979 666.387L228.075 677.914C228.005 678.119 227.88 678.3 227.715 678.44C227.55 678.579 227.35 678.671 227.137 678.706L211.117 681.186L208.749 681.55L160.412 689.056C160.313 688.888 160.248 688.702 160.221 688.508C160.194 688.315 160.205 688.118 160.255 687.929C160.305 687.74 160.391 687.562 160.51 687.407C160.628 687.252 160.776 687.122 160.945 687.025L161.969 686.426L225.963 676.46L229.931 664.762L237.376 642.82L237.994 642.456C238.223 642.331 238.48 642.265 238.741 642.265C239.002 642.265 239.259 642.331 239.488 642.456L240.042 642.585Z" fill="#D5243A"/>
<path d="M212.077 720.216C212.087 720.28 212.087 720.345 212.077 720.408C211.881 720.464 211.677 720.479 211.475 720.453C211.274 720.427 211.079 720.361 210.904 720.259L209.709 719.51L208.771 681.55V681.037C208.765 680.881 208.79 680.725 208.845 680.579C208.9 680.432 208.984 680.298 209.091 680.185C209.199 680.071 209.327 679.98 209.47 679.917C209.613 679.854 209.767 679.821 209.922 679.818C210.232 679.818 210.53 679.938 210.752 680.153C210.975 680.369 211.106 680.663 211.117 680.973V681.187L212.077 720.216Z" fill="#D5243A"/>
<path d="M291.344 674.535L232.086 666.387L231.104 666.259C230.952 666.238 230.805 666.187 230.672 666.109C230.539 666.031 230.422 665.927 230.329 665.804C230.236 665.681 230.168 665.541 230.129 665.391C230.09 665.242 230.081 665.086 230.102 664.933C230.102 664.933 230.102 664.805 230.102 664.762C230.196 664.514 230.373 664.307 230.602 664.175C230.832 664.042 231.099 663.993 231.36 664.035L232.79 664.227L291.067 672.226C291.258 672.342 291.421 672.5 291.543 672.688C291.664 672.876 291.741 673.09 291.768 673.313C291.794 673.535 291.77 673.761 291.697 673.973C291.623 674.185 291.503 674.377 291.344 674.535Z" fill="#D5243A"/>
<path d="M703.53 916.478C711.243 891.201 672.454 856.895 616.892 839.854C561.33 822.813 510.035 829.489 502.322 854.766C494.609 880.043 533.398 914.349 588.961 931.39C644.523 948.431 695.817 941.755 703.53 916.478Z" fill="#142C38"/>
<path d="M690.476 811.128V893.485C689.227 894.463 687.688 894.995 686.103 894.995C684.518 894.995 682.979 894.463 681.73 893.485V811.128H690.476Z" fill="#430101"/>
<path d="M531.088 799.814V888.417C529.839 889.395 528.3 889.926 526.715 889.926C525.13 889.926 523.591 889.395 522.342 888.417V799.814H531.088Z" fill="#430101"/>
<path d="M588.149 879.691C589.398 880.669 590.938 881.201 592.522 881.201C594.107 881.201 595.646 880.669 596.895 879.691V764.036H588.149V879.691Z" fill="#430101"/>
<path d="M614.152 931.167C615.398 932.144 616.934 932.674 618.515 932.674C620.096 932.674 621.631 932.144 622.877 931.167V815.512H614.152V931.167Z" fill="#430101"/>
<path d="M637.382 784.31L595.018 759.78C594.592 759.528 594.106 759.395 593.61 759.395C593.115 759.395 592.629 759.528 592.203 759.78L550.137 784.31H522.406V800.948H522.662C522.375 801.586 522.336 802.308 522.553 802.973C522.77 803.638 523.228 804.197 523.835 804.541L612.233 854.99C614.306 856.173 616.651 856.796 619.037 856.796C621.423 856.796 623.768 856.173 625.842 854.99L689.047 819.062C689.553 818.784 689.959 818.354 690.208 817.832C690.457 817.31 690.536 816.723 690.434 816.153V799.494H663.727L651.653 792.5L637.382 784.31Z" fill="#D5243A"/>
<path d="M689.047 801.953L625.778 837.903C623.704 839.086 621.359 839.708 618.973 839.708C616.587 839.708 614.242 839.086 612.168 837.903L523.771 787.453C523.341 787.206 522.984 786.85 522.736 786.42C522.487 785.99 522.356 785.502 522.356 785.005C522.356 784.508 522.487 784.02 522.736 783.59C522.984 783.16 523.341 782.803 523.771 782.556L592.309 742.693C592.736 742.441 593.222 742.308 593.717 742.308C594.212 742.308 594.698 742.441 595.125 742.693L689.089 797.077C689.512 797.33 689.862 797.689 690.103 798.118C690.344 798.548 690.469 799.034 690.465 799.527C690.46 800.021 690.327 800.504 690.078 800.93C689.83 801.355 689.474 801.708 689.047 801.953Z" fill="#FF4A67"/>
<path d="M552.382 950.738C556.918 935.874 534.11 915.702 501.44 905.682C468.769 895.662 438.608 899.588 434.073 914.452C429.537 929.315 452.345 949.487 485.015 959.508C517.686 969.528 547.847 965.601 552.382 950.738Z" fill="#142C38"/>
<path d="M585.035 684.523C585.035 684.715 585.035 684.929 585.035 685.143C584.992 685.496 584.928 685.846 584.843 686.191C581.025 705.096 553.486 736.619 553.486 736.619L539.258 728.343C552.675 710.271 567.522 672.846 567.522 672.846L576.844 679.048L585.035 684.523Z" fill="#D5243A"/>
<path d="M595.935 661.96C594.108 670.021 590.596 677.602 585.632 684.202L584.928 685.143L584.395 685.87C583.158 687.474 581.942 688.95 580.811 690.147C578.87 687.709 576.737 685.464 574.753 683.047C573.175 681.144 571.895 678.962 570.487 676.909C569.548 675.54 568.567 674.108 567.479 672.782C576.545 652.893 584.331 611.211 584.331 611.211C584.331 611.211 599.796 642.585 595.935 661.96Z" fill="#D5243A"/>
<path d="M585.632 684.202L584.928 685.143C584.885 685.496 584.821 685.845 584.736 686.191L584.395 685.87C582.175 683.766 579.566 682.117 576.716 681.015C576.53 680.95 576.367 680.833 576.246 680.678C576.125 680.522 576.051 680.335 576.033 680.138C575.99 679.999 575.99 679.85 576.033 679.711C576.089 679.548 576.185 679.402 576.311 679.286C576.438 679.171 576.592 679.089 576.758 679.048C576.947 678.995 577.146 678.995 577.334 679.048C580.404 680.216 583.222 681.966 585.632 684.202Z" fill="#430101"/>
<path d="M511.975 911.022C512.98 911.38 513.868 912.008 514.542 912.838C515.215 913.668 515.648 914.667 515.793 915.727C516.168 918.468 516.304 921.238 516.199 924.003C515.943 932.087 515.836 935.487 515.836 935.487C514.72 936.982 513.305 938.225 511.681 939.139C510.057 940.052 508.261 940.615 506.408 940.791L503.741 941.24C503.741 941.24 488.511 950.629 481.13 951.356C471.467 952.318 461.612 947.87 469.59 938.524C477.141 929.649 488.212 926.077 491.497 918.956C491.881 918.122 494.334 916.368 494.974 915.705C500.371 910.102 504.466 908.52 511.975 911.022Z" fill="#FF4A67"/>
<path d="M495.443 928.28C495.268 928.28 495.097 928.226 494.953 928.127C494.808 928.028 494.697 927.888 494.632 927.724C493.928 926.152 492.677 924.89 491.113 924.174C490.319 924.026 489.503 924.054 488.721 924.257C487.939 924.46 487.212 924.834 486.591 925.35C486.499 925.426 486.394 925.483 486.281 925.518C486.168 925.554 486.049 925.566 485.932 925.555C485.814 925.544 485.699 925.51 485.595 925.455C485.49 925.399 485.397 925.324 485.321 925.233C485.246 925.141 485.189 925.036 485.154 924.923C485.119 924.809 485.106 924.69 485.117 924.572C485.128 924.454 485.162 924.339 485.217 924.234C485.272 924.129 485.348 924.036 485.439 923.96C486.297 923.249 487.307 922.744 488.39 922.485C489.474 922.225 490.602 922.218 491.689 922.463C493.743 923.336 495.385 924.967 496.275 927.018C496.368 927.237 496.37 927.483 496.282 927.704C496.194 927.924 496.023 928.101 495.806 928.195C495.691 928.246 495.568 928.275 495.443 928.28Z" fill="white"/>
<path d="M492.329 930.526C492.151 930.526 491.977 930.474 491.828 930.375C491.68 930.276 491.565 930.135 491.497 929.97C490.814 928.412 489.595 927.152 488.063 926.42C487.264 926.274 486.443 926.305 485.658 926.512C484.873 926.719 484.143 927.096 483.519 927.617C483.335 927.77 483.098 927.844 482.86 927.822C482.622 927.8 482.403 927.684 482.25 927.499C482.097 927.315 482.024 927.078 482.046 926.839C482.068 926.6 482.183 926.38 482.367 926.227C483.221 925.508 484.23 924.996 485.315 924.733C486.399 924.47 487.529 924.461 488.617 924.709C490.671 925.59 492.317 927.217 493.225 929.264C493.317 929.488 493.317 929.74 493.225 929.964C493.133 930.188 492.957 930.367 492.734 930.461C492.605 930.512 492.467 930.534 492.329 930.526Z" fill="white"/>
<path d="M488.724 932.536C488.548 932.541 488.374 932.493 488.225 932.398C488.077 932.302 487.961 932.164 487.892 932.001C487.19 930.422 485.939 929.152 484.372 928.43C483.577 928.283 482.759 928.314 481.977 928.521C481.195 928.728 480.469 929.106 479.85 929.627C479.662 929.779 479.423 929.85 479.184 929.826C478.944 929.802 478.724 929.685 478.57 929.499C478.42 929.315 478.35 929.078 478.374 928.842C478.398 928.605 478.514 928.388 478.698 928.237C479.552 927.518 480.561 927.007 481.645 926.743C482.73 926.48 483.86 926.471 484.948 926.719C486.994 927.604 488.632 929.231 489.534 931.274C489.584 931.383 489.611 931.502 489.614 931.621C489.617 931.741 489.595 931.861 489.552 931.972C489.508 932.084 489.442 932.186 489.359 932.271C489.275 932.357 489.175 932.425 489.065 932.472C488.956 932.514 488.841 932.535 488.724 932.536Z" fill="white"/>
<path d="M514.833 895.495L510.567 915.085C508.65 916.514 506.396 917.42 504.025 917.712C501.654 918.005 499.248 917.674 497.043 916.753L500.477 895.624C500.477 895.624 509.927 892.672 514.833 895.495Z" fill="#FCB38F"/>
<path d="M577.441 744.211C577.441 744.211 508.455 773.253 504.914 787.667C501.373 802.081 495.379 902.382 495.379 902.382C501.402 905.529 508.274 906.654 514.983 905.59C514.983 905.59 521.211 872.014 524.113 862.989C528.791 845.417 532.319 827.557 534.672 809.524C534.672 809.524 591.157 787.368 598.986 773.959C616.264 744.361 577.441 744.211 577.441 744.211Z" fill="#252B3D"/>
<path d="M651.589 741.388C651.589 741.388 657.434 766.196 652.25 788.437C647.984 806.38 576.865 789.4 575.351 772.783C573.836 756.166 582.369 732.962 582.369 732.962L651.589 741.388Z" fill="#252B3D"/>
<path d="M577.441 744.211C603.849 753.214 632.604 765.34 654.383 750.862C650.522 729.198 645.723 694.659 647.984 681.892C651.632 660.613 672.174 624.642 654.895 616.986C649.113 614.715 643.137 612.975 637.041 611.789C627.271 609.65 615.837 607.747 605.79 606.271C601.372 605.693 596.898 605.693 592.48 606.271C585.355 607.276 582.838 610.441 584.843 617.542C587.663 626.58 587.179 636.331 583.478 645.044C576.524 660.998 587.296 669.659 588.875 683.838C590.069 695.023 581.643 726.589 577.441 744.211Z" fill="#FF4A67"/>
<path d="M615.262 633.111C613.363 633.11 611.507 632.544 609.929 631.485C599.263 624.62 605.215 606.143 605.471 605.373L607.369 605.993C607.369 606.186 601.652 623.765 610.995 629.796C612.361 630.663 613.944 631.123 615.56 631.123C617.177 631.123 618.76 630.663 620.125 629.796C627.229 625.904 632.924 615.275 632.924 610.42H634.929C634.929 616.365 628.359 627.529 621 631.571C619.24 632.545 617.271 633.073 615.262 633.111Z" fill="white"/>
<path d="M617.885 684.523C599.54 684.523 589.707 679.24 589.216 678.984C588.998 678.843 588.841 678.625 588.776 678.373C588.712 678.121 588.746 677.855 588.87 677.627C588.995 677.398 589.201 677.226 589.447 677.145C589.694 677.063 589.962 677.078 590.197 677.187C590.346 677.187 604.212 684.651 629.404 681.807C629.538 681.789 629.673 681.798 629.803 681.834C629.933 681.87 630.054 681.931 630.16 682.015C630.265 682.099 630.353 682.203 630.417 682.322C630.482 682.44 630.522 682.571 630.535 682.705C630.565 682.974 630.488 683.244 630.32 683.457C630.152 683.669 629.907 683.806 629.639 683.838C625.736 684.282 621.813 684.511 617.885 684.523Z" fill="#D5243A"/>
<path d="M613.555 647.311C613.457 647.332 613.355 647.332 613.256 647.311C601.78 643.804 599.178 635.933 599.071 635.591C598.997 635.33 599.027 635.051 599.154 634.812C599.282 634.572 599.496 634.392 599.754 634.308C600.011 634.227 600.29 634.252 600.53 634.376C600.769 634.5 600.95 634.714 601.034 634.971C601.14 635.271 603.465 642.178 613.832 645.343C614.069 645.414 614.272 645.567 614.404 645.776C614.536 645.984 614.589 646.234 614.553 646.478C614.516 646.723 614.393 646.946 614.206 647.107C614.019 647.267 613.78 647.355 613.534 647.354L613.555 647.311Z" fill="#D5243A"/>
<path d="M628.061 739.506C602.847 739.506 588.576 725.584 587.979 724.985C587.884 724.891 587.809 724.78 587.757 724.657C587.706 724.534 587.679 724.402 587.679 724.269C587.679 724.135 587.706 724.003 587.757 723.88C587.809 723.757 587.884 723.646 587.979 723.552C588.174 723.364 588.434 723.259 588.704 723.259C588.975 723.259 589.235 723.364 589.429 723.552C600.183 732.759 613.921 737.71 628.061 737.474C628.196 737.471 628.33 737.496 628.456 737.547C628.581 737.597 628.695 737.673 628.791 737.769C628.887 737.864 628.962 737.979 629.012 738.105C629.063 738.231 629.087 738.365 629.084 738.501C629.084 738.773 628.977 739.034 628.785 739.227C628.593 739.419 628.332 739.527 628.061 739.527V739.506Z" fill="#D5243A"/>
<path d="M625.138 734.758C615.731 734.523 603.807 726.931 603.401 726.589C603.286 726.519 603.186 726.427 603.107 726.317C603.028 726.207 602.972 726.083 602.942 725.951C602.912 725.82 602.909 725.683 602.933 725.55C602.957 725.417 603.008 725.29 603.081 725.177C603.234 724.95 603.468 724.792 603.735 724.736C604.002 724.68 604.281 724.731 604.511 724.878C604.617 724.878 616.371 732.491 625.181 732.705C625.464 732.705 625.735 732.818 625.935 733.018C626.135 733.219 626.247 733.491 626.247 733.775C626.247 734.058 626.135 734.33 625.935 734.531C625.735 734.731 625.464 734.844 625.181 734.844L625.138 734.758Z" fill="#D5243A"/>
<path d="M653.082 773.916C653.082 773.916 536.272 762.368 515.431 766.025C494.59 769.682 457.303 853.429 457.303 853.429C457.303 853.429 466.603 863.673 471.36 863.31C476.117 862.946 491.796 837.112 498.856 830.375C505.917 823.639 525.499 802.573 529.019 794.703C529.019 794.703 595.786 827.83 634.481 810.85C656.922 800.991 653.082 773.916 653.082 773.916Z" fill="#252B3D"/>
<path d="M467.264 866.945C467.99 867.739 468.482 868.719 468.686 869.776C468.889 870.833 468.796 871.926 468.416 872.933C467.457 875.52 466.272 878.018 464.875 880.397C460.822 887.39 459.137 890.341 459.137 890.341C457.448 891.129 455.614 891.555 453.752 891.591C451.89 891.628 450.041 891.275 448.322 890.555L445.741 889.657C445.741 889.657 427.908 890.705 421.06 887.839C412.101 884.097 405.51 875.5 416.986 871.009C427.823 866.731 439.278 868.87 445.528 864.165C447.025 863.628 448.567 863.227 450.135 862.967C457.452 860.615 461.825 861.192 467.264 866.945Z" fill="#FF4A67"/>
<path d="M444.547 874.281C444.391 874.203 444.262 874.079 444.178 873.927C444.094 873.774 444.059 873.599 444.077 873.425C444.205 871.703 443.705 869.993 442.669 868.613C442.034 868.108 441.297 867.747 440.509 867.555C439.721 867.363 438.9 867.345 438.104 867.501C437.989 867.526 437.871 867.527 437.755 867.505C437.639 867.483 437.53 867.437 437.432 867.371C437.334 867.305 437.251 867.22 437.187 867.121C437.123 867.022 437.08 866.912 437.059 866.795C437.034 866.682 437.032 866.564 437.053 866.449C437.074 866.335 437.118 866.225 437.181 866.128C437.245 866.03 437.327 865.946 437.423 865.881C437.52 865.816 437.628 865.77 437.742 865.747C438.835 865.514 439.967 865.54 441.048 865.822C442.129 866.104 443.13 866.635 443.971 867.373C445.373 869.12 446.053 871.34 445.869 873.575C445.858 873.693 445.824 873.808 445.769 873.913C445.714 874.018 445.639 874.111 445.547 874.186C445.456 874.262 445.351 874.318 445.238 874.353C445.124 874.387 445.006 874.399 444.888 874.387C444.766 874.385 444.648 874.348 444.547 874.281Z" fill="white"/>
<path d="M440.707 874.772C440.549 874.691 440.42 874.564 440.336 874.407C440.252 874.251 440.218 874.072 440.238 873.896C440.362 872.18 439.862 870.478 438.83 869.105C438.194 868.6 437.457 868.239 436.669 868.047C435.881 867.855 435.061 867.837 434.265 867.993C434.044 868.013 433.824 867.95 433.647 867.816C433.47 867.683 433.349 867.488 433.306 867.27C433.264 867.052 433.303 866.826 433.417 866.636C433.531 866.446 433.712 866.304 433.924 866.239C435.013 866.006 436.142 866.032 437.219 866.314C438.297 866.596 439.294 867.127 440.131 867.865C441.533 869.612 442.213 871.832 442.03 874.067C442.019 874.185 441.985 874.3 441.93 874.405C441.874 874.509 441.799 874.602 441.708 874.678C441.617 874.754 441.511 874.81 441.398 874.845C441.285 874.879 441.166 874.891 441.048 874.879C440.927 874.877 440.808 874.84 440.707 874.772Z" fill="white"/>
<path d="M436.59 874.858C436.439 874.769 436.316 874.64 436.234 874.485C436.151 874.331 436.112 874.156 436.121 873.981C436.249 872.259 435.748 870.549 434.713 869.169C434.08 868.66 433.342 868.298 432.553 868.11C431.763 867.921 430.942 867.91 430.148 868.079C429.917 868.117 429.68 868.065 429.485 867.934C429.291 867.803 429.154 867.602 429.103 867.373C429.078 867.256 429.076 867.136 429.098 867.019C429.12 866.901 429.165 866.79 429.231 866.69C429.296 866.591 429.381 866.505 429.48 866.439C429.579 866.372 429.69 866.327 429.807 866.304C430.901 866.077 432.033 866.107 433.114 866.393C434.195 866.679 435.195 867.212 436.035 867.95C437.427 869.694 438.099 871.906 437.912 874.131C437.905 874.25 437.873 874.366 437.818 874.473C437.764 874.579 437.689 874.673 437.597 874.75C437.505 874.826 437.398 874.882 437.284 874.915C437.17 874.949 437.049 874.958 436.931 874.944C436.813 874.938 436.697 874.909 436.59 874.858Z" fill="white"/>
<path d="M468.502 864.678L464.235 869.896C461.858 870.254 459.429 869.987 457.185 869.121C454.942 868.255 452.961 866.82 451.437 864.956L457.452 857.749C457.452 857.749 465.515 859.845 468.502 864.678Z" fill="#FCB38F"/>
<path d="M458.198 847.505L453.399 856.188C458.589 861.893 465.223 866.083 472.597 868.314L477.247 860.786C477.247 860.786 464.854 854.456 458.198 847.505Z" fill="#51557C"/>
<path d="M629.148 593.012C629.148 593.012 642.651 588.029 645.36 574.15C648.069 560.27 647.259 539.932 628.295 533.837C609.332 527.742 591.904 533.602 587.765 551.095C587.723 551.095 602.228 585.955 629.148 593.012Z" fill="#252B3D"/>
<path d="M607.924 599.663L608.948 609.265L609.523 614.89C620.466 619.616 631.665 612.537 631.559 611.554C630.129 605.471 629.321 599.259 629.148 593.012C628.954 592.884 628.746 592.777 628.53 592.691C622.749 590.232 607.924 599.663 607.924 599.663Z" fill="#FCB38F"/>
<path d="M607.924 599.663L608.948 609.265C617.234 606.252 624.176 600.375 628.53 592.691C622.749 590.232 607.924 599.663 607.924 599.663Z" fill="#FD8471"/>
<path d="M591.029 569.252C591.029 569.252 586.763 564.162 584.054 568.717C581.345 573.273 586.187 585.955 593.29 582.404L591.029 569.252Z" fill="#FD8471"/>
<path d="M588.96 580.309C588.923 580.55 588.793 580.766 588.597 580.911C588.401 581.055 588.155 581.115 587.915 581.079C587.673 581.037 587.457 580.901 587.313 580.701C587.17 580.501 587.11 580.253 587.147 580.009C587.165 579.888 587.207 579.771 587.271 579.666C587.335 579.561 587.419 579.47 587.518 579.399C587.618 579.327 587.73 579.276 587.85 579.248C587.969 579.221 588.093 579.218 588.214 579.239C588.452 579.286 588.663 579.424 588.802 579.623C588.941 579.823 588.998 580.068 588.96 580.309Z" fill="white"/>
<path d="M591.498 578.491C591.365 578.503 591.231 578.469 591.119 578.395C591.007 578.322 590.922 578.212 590.88 578.085C590.371 576.849 589.608 575.735 588.642 574.813C587.675 573.892 586.526 573.185 585.27 572.738C585.193 572.714 585.122 572.675 585.062 572.623C585.001 572.57 584.951 572.507 584.915 572.435C584.879 572.363 584.858 572.285 584.853 572.204C584.848 572.124 584.859 572.044 584.886 571.968C584.91 571.892 584.949 571.821 585.001 571.76C585.053 571.698 585.117 571.648 585.188 571.613C585.26 571.577 585.338 571.556 585.418 571.55C585.498 571.545 585.578 571.557 585.654 571.583C587.099 572.07 588.421 572.867 589.527 573.92C590.632 574.973 591.494 576.256 592.053 577.678C592.08 577.754 592.091 577.834 592.086 577.915C592.081 577.995 592.06 578.073 592.024 578.145C591.988 578.217 591.938 578.281 591.877 578.333C591.816 578.385 591.745 578.424 591.669 578.448L591.498 578.491Z" fill="#D6615D"/>
<path d="M587.211 576.716C587.099 576.745 586.981 576.745 586.869 576.716C586.733 576.631 586.635 576.497 586.595 576.342C586.555 576.186 586.577 576.021 586.656 575.882C587.177 575.045 587.914 574.365 588.789 573.914C588.859 573.878 588.936 573.855 589.014 573.848C589.093 573.842 589.172 573.85 589.248 573.874C589.323 573.898 589.393 573.936 589.453 573.987C589.514 574.038 589.563 574.101 589.6 574.171C589.636 574.241 589.658 574.318 589.665 574.397C589.672 574.475 589.663 574.555 589.64 574.63C589.616 574.706 589.578 574.776 589.527 574.836C589.476 574.897 589.414 574.947 589.344 574.983C588.67 575.339 588.092 575.852 587.659 576.48C587.606 576.55 587.538 576.607 587.461 576.648C587.383 576.689 587.298 576.712 587.211 576.716Z" fill="#D6615D"/>
<path d="M587.574 575.604C587.68 577.015 587.829 578.363 588.021 579.56C589.835 590.467 599.37 612.58 618.483 601.31C622.438 599.103 626.034 596.305 629.148 593.012C631.096 590.869 632.76 588.483 634.097 585.912C634.565 584.879 634.937 583.805 635.207 582.704C635.207 582.533 635.207 582.341 635.377 582.148C635.403 582.038 635.439 581.931 635.484 581.827C636.364 578.768 637.076 575.662 637.617 572.524C638.321 568.782 638.769 565.275 639.025 562.387C639.278 559.787 638.849 557.165 637.779 554.783C636.708 552.4 635.035 550.34 632.924 548.807C621.298 540.253 607.902 541.45 598.9 543.782C595.851 544.564 593.126 546.292 591.115 548.719C589.104 551.146 587.909 554.149 587.701 557.298C587.488 560.377 587.339 563.863 587.275 567.328C587.339 570.172 587.382 573.123 587.574 575.604Z" fill="#FCB38F"/>
<path d="M595.616 565.146C595.61 565.011 595.578 564.879 595.521 564.756C595.465 564.634 595.385 564.524 595.286 564.432C595.187 564.341 595.071 564.27 594.944 564.224C594.818 564.177 594.683 564.157 594.549 564.162C592.827 564.206 591.118 564.486 589.472 564.996C585.91 566.215 585.44 567.242 585.44 567.242C585.44 567.242 585.888 567.648 590.539 566.707C591.733 566.472 593.333 566.365 594.698 566.237C594.956 566.205 595.194 566.078 595.363 565.88C595.533 565.682 595.623 565.428 595.616 565.167V565.146Z" fill="#252B3D"/>
<path d="M607.945 564.419C607.896 564.102 607.973 563.777 608.161 563.517C608.349 563.257 608.631 563.081 608.947 563.029C610.984 562.681 613.058 562.616 615.112 562.836C619.57 563.457 620.36 564.526 620.36 564.526C620.36 564.526 619.933 565.125 614.259 565.082C612.787 565.082 610.91 565.339 609.267 565.488C608.955 565.519 608.642 565.427 608.396 565.231C608.149 565.036 607.988 564.752 607.945 564.44V564.419Z" fill="#252B3D"/>
<path d="M604.489 584.008H604.319L600.33 582.469L601.951 572.738C601.992 572.522 602.115 572.331 602.294 572.203C602.473 572.076 602.694 572.022 602.911 572.054C603.12 572.095 603.306 572.216 603.429 572.392C603.552 572.567 603.603 572.783 603.572 572.995L602.164 581.421L604.916 582.49C605.018 582.528 605.111 582.586 605.19 582.661C605.269 582.735 605.333 582.825 605.377 582.925C605.42 583.025 605.444 583.132 605.445 583.241C605.447 583.35 605.426 583.458 605.385 583.559C605.302 583.719 605.171 583.849 605.01 583.93C604.849 584.01 604.667 584.038 604.489 584.008Z" fill="#FD8471"/>
<path d="M627.591 581.827C628.247 582.977 629.173 583.95 630.288 584.662C631.403 585.373 632.673 585.802 633.99 585.912C634.396 584.843 634.758 583.773 635.1 582.704C632.575 583.361 629.897 583.048 627.591 581.827Z" fill="#FD8471"/>
<path d="M629.148 593.012C631.096 590.869 632.76 588.483 634.097 585.912C634.565 584.879 634.936 583.805 635.207 582.704C635.207 582.533 635.207 582.34 635.377 582.148C634.541 582.237 633.717 582.423 632.924 582.704C632.924 582.704 627.805 588.585 629.148 593.012Z" fill="#252B3D"/>
<path d="M597.706 588.243C598.644 591.002 601.204 595.985 607.497 595.129C613.79 594.274 614.963 589.269 615.134 585.912L597.706 588.243Z" fill="white"/>
<path d="M611.251 572.866C611.251 574.406 612.211 575.604 613.171 575.561C614.131 575.518 614.878 574.214 614.792 572.674C614.707 571.134 613.832 569.936 612.872 570.001C611.913 570.065 611.166 571.348 611.251 572.866Z" fill="#252B3D"/>
<path d="M591.2 574.021C591.2 575.561 592.138 576.759 593.12 576.694C594.101 576.63 594.805 575.347 594.72 573.807C594.634 572.268 593.781 571.07 592.8 571.134C591.818 571.198 591.115 572.481 591.2 574.021Z" fill="#252B3D"/>
<path d="M633.287 570.364C633.287 570.364 637.553 565.873 639.878 570.364C642.203 574.855 637.745 585.933 629.916 582.704L633.287 570.364Z" fill="#FCB38F"/>
<path d="M634.908 581.891C634.844 582.097 634.711 582.274 634.531 582.391C634.351 582.508 634.136 582.558 633.923 582.533C633.71 582.507 633.512 582.408 633.365 582.252C633.218 582.095 633.129 581.892 633.116 581.677C633.137 581.558 633.181 581.444 633.246 581.342C633.311 581.24 633.396 581.151 633.495 581.082C633.594 581.012 633.705 580.963 633.823 580.937C633.941 580.91 634.063 580.908 634.183 580.929C634.302 580.95 634.415 580.994 634.517 581.059C634.619 581.125 634.707 581.209 634.777 581.308C634.846 581.408 634.895 581.52 634.921 581.638C634.947 581.756 634.95 581.879 634.929 581.998L634.908 581.891Z" fill="white"/>
<path d="M632.199 579.047C632.324 579.06 632.451 579.034 632.561 578.973C632.672 578.912 632.761 578.818 632.817 578.705C633.375 577.576 634.165 576.578 635.136 575.778C636.107 574.978 637.236 574.394 638.449 574.064C638.523 574.046 638.594 574.014 638.656 573.969C638.718 573.924 638.77 573.867 638.81 573.801C638.85 573.735 638.876 573.662 638.887 573.586C638.898 573.51 638.894 573.433 638.875 573.358C638.84 573.212 638.748 573.085 638.621 573.005C638.493 572.925 638.34 572.898 638.193 572.931C636.806 573.302 635.516 573.971 634.411 574.89C633.306 575.809 632.413 576.957 631.793 578.256C631.762 578.324 631.745 578.398 631.743 578.474C631.741 578.549 631.754 578.624 631.782 578.694C631.81 578.764 631.852 578.828 631.905 578.881C631.959 578.934 632.022 578.976 632.092 579.004L632.199 579.047Z" fill="#FD8471"/>
<path d="M636.358 577.678H636.678C636.747 577.646 636.809 577.601 636.86 577.544C636.911 577.488 636.951 577.423 636.976 577.351C637.002 577.279 637.014 577.204 637.01 577.128C637.006 577.052 636.988 576.977 636.955 576.908C636.502 576.081 635.84 575.388 635.036 574.898C634.972 574.856 634.9 574.827 634.825 574.814C634.75 574.801 634.673 574.804 634.599 574.822C634.525 574.84 634.456 574.873 634.395 574.919C634.334 574.966 634.284 575.024 634.246 575.091C634.166 575.219 634.138 575.373 634.17 575.521C634.202 575.669 634.291 575.799 634.417 575.882C635.035 576.253 635.548 576.776 635.91 577.4C635.96 577.477 636.026 577.541 636.103 577.589C636.181 577.637 636.268 577.668 636.358 577.678Z" fill="#FD8471"/>
<path d="M638.363 568.525C636.944 568.185 635.455 568.289 634.097 568.825C633.372 569.164 632.736 569.67 632.241 570.3L631.921 570.728C631.685 570.629 631.463 570.499 631.26 570.343C630.736 569.931 630.295 569.423 629.959 568.846C628.906 567.554 628.05 566.113 627.42 564.569C626.799 562.903 625.755 561.429 624.391 560.292C605.193 566.301 589.877 549.599 589.877 549.599C595.85 531.207 628.274 539.975 636.593 544.423C644.912 548.871 647.835 570.129 638.363 568.525Z" fill="#252B3D"/>
<path d="M675.118 572.909C675.118 572.909 668.035 588.906 652.357 583.26C636.678 577.614 636.998 551.502 636.998 551.502C636.998 551.502 630.492 533.367 614.024 531.784C613.104 531.676 612.178 531.633 611.251 531.656C611.214 531.122 611.214 530.586 611.251 530.052C611.614 525.368 614.451 512.13 635.334 511.681C660.676 511.146 652.528 539.162 656.069 554.56C659.61 569.958 665.796 579.539 675.118 572.909Z" fill="#252B3D"/>
<path d="M641.99 549.962H642.459C642.424 546.696 641.608 543.486 640.079 540.601C638.549 537.717 636.352 535.243 633.67 533.388C625.266 527.977 615.368 529.111 611.294 530.03C611.256 530.564 611.256 531.1 611.294 531.634C612.22 531.611 613.147 531.654 614.067 531.763C620.434 530.744 626.956 531.952 632.54 535.184C637.19 538.243 640.39 544.017 641.99 549.962Z" fill="#FF4A67"/>
<path d="M594.207 550.903C594.207 550.903 595.85 563.735 587.083 568.204C587.083 568.204 583.307 542.263 594.207 550.903Z" fill="#252B3D"/>
<path d="M595.018 803.536L639.11 778.3C639.633 777.998 640.067 777.563 640.369 777.04C640.671 776.516 640.83 775.922 640.83 775.317C640.83 774.712 640.671 774.118 640.369 773.594C640.067 773.07 639.633 772.635 639.11 772.333L587.296 743.206C586.795 742.932 586.235 742.789 585.664 742.789C585.094 742.789 584.533 742.932 584.033 743.206L539.813 766.73C539.277 767.014 538.826 767.436 538.506 767.953C538.187 768.47 538.01 769.062 537.995 769.67C537.98 770.278 538.126 770.878 538.42 771.41C538.713 771.942 539.142 772.386 539.663 772.697L591.605 803.6C592.13 803.89 592.721 804.037 593.32 804.026C593.919 804.015 594.505 803.846 595.018 803.536Z" fill="#51557C"/>
<path d="M595.018 798.318L639.11 773.082C639.633 772.783 640.068 772.351 640.371 771.828C640.674 771.306 640.833 770.713 640.833 770.109C640.833 769.506 640.674 768.913 640.371 768.391C640.068 767.868 639.633 767.436 639.11 767.137L587.296 737.988C586.795 737.714 586.235 737.571 585.664 737.571C585.094 737.571 584.533 737.714 584.033 737.988L539.813 761.512C539.277 761.796 538.826 762.218 538.506 762.735C538.187 763.252 538.01 763.844 537.995 764.452C537.98 765.059 538.126 765.66 538.42 766.192C538.713 766.724 539.142 767.168 539.663 767.479L591.605 798.403C592.132 798.691 592.724 798.834 593.323 798.819C593.922 798.804 594.507 798.631 595.018 798.318Z" fill="#3A4059"/>
<path d="M640.795 775.178V770.281L595.21 795.537V803.621L638.897 778.429C639.469 778.1 639.945 777.627 640.278 777.057C640.611 776.487 640.79 775.839 640.795 775.178Z" fill="#51557C"/>
<path d="M595.21 744.211V800.584C595.213 801.246 595.084 801.902 594.832 802.513C594.579 803.124 594.208 803.679 593.74 804.145C593.271 804.61 592.714 804.978 592.103 805.226C591.491 805.474 590.836 805.597 590.176 805.589H580.47V800.713L509.693 759.759C508.943 759.323 508.32 758.699 507.882 757.95C507.445 757.2 507.209 756.35 507.197 755.481V702.102H502.611V694.061H512.252C513.102 694.053 513.937 694.282 514.663 694.724L592.714 739.934C593.465 740.368 594.09 740.991 594.527 741.741C594.965 742.491 595.2 743.342 595.21 744.211Z" fill="#51557C"/>
<path d="M505.128 694.724L583.158 739.934C583.91 740.366 584.536 740.989 584.974 741.739C585.412 742.489 585.646 743.342 585.654 744.211V800.584C585.644 801.458 585.406 802.314 584.964 803.067C584.522 803.82 583.891 804.443 583.134 804.876C582.377 805.308 581.52 805.535 580.648 805.532C579.777 805.53 578.921 805.298 578.166 804.861L500.136 759.694C499.387 759.258 498.763 758.635 498.326 757.886C497.889 757.136 497.652 756.285 497.64 755.417V699.044C497.643 698.166 497.875 697.305 498.314 696.546C498.753 695.788 499.384 695.158 500.142 694.72C500.901 694.283 501.76 694.053 502.635 694.053C503.51 694.054 504.37 694.285 505.128 694.724Z" fill="#6B749B"/>
<path d="M543.759 752.102C543.759 756.508 541.199 760.101 537.999 760.122C534.8 760.143 532.197 756.572 532.176 752.145C532.155 747.718 534.736 744.147 537.935 744.125C541.135 744.104 543.738 747.675 543.759 752.102Z" fill="#9CA6C8"/>
<path d="M661.508 699.108C655.557 698.253 648.859 695.793 642.992 694.51C643.12 693.804 643.27 693.013 643.398 692.2C643.398 691.901 643.504 691.623 643.547 691.324C643.59 691.024 643.654 690.554 643.718 690.169C647.152 666.986 648.837 614.762 648.837 614.762C648.837 614.762 666.521 615.04 668.974 634.651C670.617 647.718 664.388 684.48 661.508 699.108Z" fill="#D5243A"/>
<path d="M661.508 699.108C655.621 716.944 615.219 759.331 615.219 759.331L604.831 746.627C631.879 710.549 641.094 695.579 643.078 692.136C643.419 691.58 643.547 691.323 643.547 691.323L652.08 695.023L661.508 699.108Z" fill="#D5243A"/>
<path d="M652.186 694.873L652.079 695.023L651.887 695.173C651.721 695.277 651.529 695.333 651.333 695.333C651.137 695.333 650.945 695.277 650.778 695.173C648.512 693.754 646.013 692.747 643.398 692.2H643.078C643.419 691.644 643.547 691.387 643.547 691.387C643.547 691.003 643.654 690.618 643.718 690.233C646.613 690.828 649.38 691.936 651.887 693.505C652.101 693.652 652.25 693.876 652.306 694.13C652.361 694.384 652.319 694.65 652.186 694.873Z" fill="#430101"/>
<path d="M604.831 746.627C604.831 746.627 595.85 747.654 595.21 751.033V770.28C595.21 770.28 607.838 769.232 615.219 759.331L604.831 746.627Z" fill="#FCB38F"/>
</g>
<defs>
<clipPath id="clip0_402_1933">
<rect width="795" height="965" fill="white"/>
</clipPath>
</defs>
</svg>
