<?xml version="1.0" encoding="UTF-8"?>
<svg version="1.1" xmlns="http://www.w3.org/2000/svg" width="1200" height="361">
<path d="M0 0 C5.15727988 4.53903237 9.74547748 9.30488228 14.13671875 14.578125 C14.884375 15.42632812 15.63203125 16.27453125 16.40234375 17.1484375 C47.12543133 52.60558574 61.55443088 100.02662109 58.74023438 146.57055664 C56.75009843 172.76338217 49.66799357 197.51401909 37.13671875 220.578125 C36.81590332 221.18350098 36.49508789 221.78887695 36.16455078 222.41259766 C29.64496788 234.68689619 21.56540407 245.17097752 12.15625 255.37109375 C10.39766968 257.29294652 8.728521 259.25459989 7.07421875 261.265625 C3.76759689 265.12783102 0.06047297 268.35526467 -3.86328125 271.578125 C-4.61424072 272.1976001 -4.61424072 272.1976001 -5.38037109 272.82958984 C-13.47860178 279.47152823 -21.73773316 285.39151405 -30.86328125 290.578125 C-31.49572754 290.94147949 -32.12817383 291.30483398 -32.77978516 291.67919922 C-74.8276713 315.64087431 -124.13978249 320.37887311 -170.68359375 308.33203125 C-193.18685039 302.16223197 -214.72618487 291.23772988 -232.86328125 276.578125 C-233.7130957 275.8975 -233.7130957 275.8975 -234.58007812 275.203125 C-269.56972111 246.98696387 -292.24394094 207.85601637 -299.86328125 163.578125 C-299.981875 162.88960449 -300.10046875 162.20108398 -300.22265625 161.49169922 C-307.74072377 115.40997288 -295.75984457 67.46787422 -269.18481445 29.36987305 C-251.6771798 5.0821259 -229.28125736 -13.52042763 -202.86328125 -27.421875 C-202.26322266 -27.73898438 -201.66316406 -28.05609375 -201.04492188 -28.3828125 C-134.66316862 -62.86301286 -55.35073216 -46.81780892 0 0 Z M-228.30078125 59.015625 C-228.985354 59.18425049 -229.66992676 59.35287598 -230.37524414 59.52661133 C-236.0624501 61.14729523 -241.06169438 64.44171074 -244.03930664 69.62548828 C-245.87699717 73.98040647 -245.61933333 79.18320555 -244.2109375 83.64453125 C-241.74948564 88.53574245 -238.67257395 90.42223517 -233.86328125 92.578125 C-229.60700707 93.56866035 -226.58007186 93.55996302 -222.36328125 92.46875 C-221.32196045 92.20989014 -220.28063965 91.95103027 -219.20776367 91.68432617 C-218.10408447 91.40177979 -217.00040527 91.1192334 -215.86328125 90.828125 C-207.294733 88.7412155 -198.79724556 86.91842754 -190.05078125 85.765625 C-189.21224609 85.65444336 -188.37371094 85.54326172 -187.50976562 85.42871094 C-174.67882997 83.83621892 -161.90304119 83.33770761 -148.98828125 83.328125 C-148.16235474 83.32745026 -147.33642822 83.32677551 -146.48547363 83.32608032 C-102.87814149 83.38207303 -59.53469592 90.62636996 -20.51953125 110.74609375 C-12.15153649 115.02783923 -12.15153649 115.02783923 -2.86328125 115.578125 C2.06939848 113.8023603 5.42418945 111.05177408 8.13671875 106.578125 C10.59126755 101.28968804 10.20478913 97.21013918 8.44921875 91.75390625 C-2.78034915 73.13822375 -40.80987759 64.74250623 -60.25390625 59.8828125 C-79.28206977 55.36548056 -98.39979604 52.4123622 -117.86328125 50.578125 C-118.60658691 50.50609863 -119.34989258 50.43407227 -120.11572266 50.35986328 C-155.91302581 47.04154922 -193.52135753 49.98446297 -228.30078125 59.015625 Z M-229.05078125 125.140625 C-232.48800631 129.76310008 -233.58402269 132.83471666 -232.86328125 138.578125 C-231.08302596 142.70082145 -228.66797766 145.21075834 -224.86328125 147.578125 C-218.45080122 148.91347876 -213.8924634 148.14145351 -207.67578125 146.328125 C-153.01707125 131.58617048 -90.45950488 139.80535489 -40.86328125 166.578125 C-39.63426559 167.31318298 -38.40637328 168.05012291 -37.1796875 168.7890625 C-32.81882563 171.14156513 -29.6885245 171.44825083 -24.86328125 170.578125 C-20.47917369 168.38607122 -17.73235468 166.14697117 -15.86328125 161.578125 C-15.30089622 157.73516065 -15.47751877 154.5907515 -16.86328125 150.953125 C-39.17623932 124.4564873 -92.75344769 115.85775171 -124.86328125 112.578125 C-126.39855469 112.41183594 -126.39855469 112.41183594 -127.96484375 112.2421875 C-153.29258366 109.96207466 -209.03646493 106.2005234 -229.05078125 125.140625 Z M-206.61328125 176.015625 C-207.65556885 176.20858154 -208.69785645 176.40153809 -209.77172852 176.6003418 C-215.34328313 177.73106269 -219.46445421 178.9136357 -223.86328125 182.578125 C-225.63993387 185.51346411 -225.88107479 187.1510801 -225.73828125 190.578125 C-224.72858958 194.039925 -223.3238071 195.96847637 -220.86328125 198.578125 C-214.17768482 201.92092321 -204.3828986 198.51104823 -197.48828125 197.203125 C-187.6123085 195.41371297 -177.8179205 194.00496778 -167.80078125 193.265625 C-166.77484863 193.18973145 -165.74891602 193.11383789 -164.69189453 193.03564453 C-126.3490142 190.52371919 -87.11841622 197.23923144 -53.9375 217.3515625 C-51.01958114 219.07703617 -49.2011249 219.05495981 -45.86328125 218.578125 C-42.84995016 216.95556211 -40.60195343 215.47737809 -38.42578125 212.828125 C-37.51879192 209.20016766 -37.6466914 206.07157296 -38.86328125 202.578125 C-58.43356933 180.21208148 -101.72346563 173.17655389 -129.70751953 170.77661133 C-136.10844017 170.3740159 -142.51447591 170.33339812 -148.92578125 170.328125 C-149.66972137 170.32745026 -150.4136615 170.32677551 -151.18014526 170.32608032 C-169.96694545 170.35291109 -188.15668561 172.52296361 -206.61328125 176.015625 Z " fill="#1DD75F" transform="translate(301.86328125,46.421875)"/>
<path d="M0 0 C0.74685059 0.12600586 1.49370117 0.25201172 2.26318359 0.38183594 C7.62184983 1.37184983 7.62184983 1.37184983 9.875 3.625 C10.11791992 6.11523438 10.11791992 6.11523438 10.10546875 9.21875 C10.10353516 10.33121094 10.10160156 11.44367188 10.09960938 12.58984375 C10.08736328 13.75644531 10.07511719 14.92304687 10.0625 16.125 C10.0615332 17.87490234 10.0615332 17.87490234 10.06054688 19.66015625 C10.01526365 28.3444727 10.01526365 28.3444727 8.875 30.625 C1.32848837 29.72965116 1.32848837 29.72965116 -1.5625 29.0625 C-8.03370958 27.95765934 -13.4746285 27.90402365 -19.125 31.625 C-22.15091169 35.71930581 -22.15091169 35.71930581 -23.125 46.625 C-6.955 46.625 9.215 46.625 25.875 46.625 C31.15636935 59.71839486 36.37330856 72.82460539 41.375 86.02734375 C41.8277832 87.22179108 42.28056641 88.4162384 42.74707031 89.6468811 C44.60228301 94.54611117 46.45492719 99.44629703 48.30126953 104.34887695 C49.67433613 107.99385682 51.055899 111.63559 52.4375 115.27734375 C52.85515625 116.39165268 53.2728125 117.50596161 53.703125 118.65403748 C54.09113281 119.67433548 54.47914062 120.69463348 54.87890625 121.74584961 C55.21736572 122.64307236 55.5558252 123.5402951 55.90454102 124.46470642 C56.78906856 126.77590625 56.78906856 126.77590625 58.875 128.625 C59.12254532 127.91772766 59.37009064 127.21045532 59.62513733 126.48175049 C70.37475586 95.76855469 70.37475586 95.76855469 71.08661842 93.73471832 C71.55811001 92.38756177 72.0295546 91.04038876 72.50095177 89.69319916 C73.66071335 86.37893992 74.82126498 83.06496176 75.98355103 79.75158691 C78.02361926 73.93350861 80.05562824 68.11313 82.05029297 62.27929688 C82.37291611 61.34075867 82.69553925 60.40222046 83.02793884 59.4352417 C83.61253279 57.73219434 84.19259052 56.02757992 84.7671051 54.32110596 C86.65117023 48.84882977 86.65117023 48.84882977 88.875 46.625 C93.29343549 46.2259361 97.72619839 46.29596643 102.16064453 46.30932617 C104.36671234 46.31248812 106.57144169 46.28902424 108.77734375 46.26367188 C110.17447747 46.26139912 111.57161481 46.26069528 112.96875 46.26171875 C114.24427734 46.25873779 115.51980469 46.25575684 116.83398438 46.25268555 C118.33928711 46.4369812 118.33928711 46.4369812 119.875 46.625 C120.535 47.615 121.195 48.605 121.875 49.625 C121.1184082 52.58447266 121.1184082 52.58447266 119.67578125 56.2890625 C119.41433823 56.97168655 119.1528952 57.65431061 118.88352966 58.35762024 C117.997812 60.66031952 117.09263472 62.95487041 116.1875 65.25 C115.54924399 66.89739888 114.91223046 68.54527961 114.27636719 70.19360352 C112.89263682 73.7732317 111.50042289 77.34940647 110.10205078 80.92333984 C107.83097566 86.73011862 105.58395757 92.54603991 103.33984375 98.36328125 C99.76260092 107.63038318 96.16612117 116.88986292 92.56028748 126.14587402 C90.07439498 132.530707 87.60217234 138.92062897 85.14080811 145.31495667 C83.52714241 149.50359069 81.90658184 153.68953709 80.28479004 157.87503052 C79.52327187 159.84481056 78.76463256 161.81570647 78.00915527 163.78781128 C63.98429725 200.37946001 63.98429725 200.37946001 46.70703125 208.53125 C35.57551775 212.83031728 20.91946164 211.65835547 9.875 207.625 C6.45191476 206.10563852 3.1425595 204.45396582 -0.125 202.625 C0.40542349 196.74353955 2.12697872 192.07666302 4.625 186.75 C4.96015625 185.97914063 5.2953125 185.20828125 5.640625 184.4140625 C8.19650749 178.9150426 8.19650749 178.9150426 11.43359375 177.53125 C14.31218586 177.64178794 16.40411325 178.63294677 18.98828125 179.84375 C23.79172691 181.83275441 27.66043902 181.98936829 32.625 180.5 C36.70414171 178.14664901 39.05485091 175.90740868 40.66113281 171.43725586 C40.96178228 167.48385268 39.51022069 164.53019076 37.921875 161.00390625 C37.59439774 160.24741791 37.26692047 159.49092957 36.92951965 158.71151733 C36.21489413 157.06414165 35.49433036 155.41933226 34.76858521 153.77682495 C33.21147646 150.25119301 31.68411456 146.71295388 30.15553284 143.17488098 C29.3422985 141.29261334 28.52768307 139.41094188 27.71177673 137.52983093 C23.26837696 127.27071564 18.97067525 116.9522438 14.70153809 106.61959839 C13.45367646 103.60162305 12.20012368 100.58605438 10.94628906 97.57055664 C10.17344583 95.70214376 9.40096673 93.83358021 8.62890625 91.96484375 C8.27754105 91.12166595 7.92617584 90.27848816 7.56416321 89.40975952 C7.23820663 88.61703644 6.91225006 87.82431335 6.57641602 87.00756836 C6.29459976 86.32657578 6.01278351 85.64558319 5.72242737 84.94395447 C4.60757013 81.8931878 3.76731875 78.74811561 2.875 75.625 C-5.375 75.625 -13.625 75.625 -22.125 75.625 C-22.10928955 79.97147705 -22.10928955 79.97147705 -22.09326172 84.40576172 C-22.06017731 93.96113056 -22.03805249 103.51650189 -22.02137566 113.07191277 C-22.01092185 118.86747126 -21.9967336 124.66297127 -21.97412109 130.45849609 C-21.95244956 136.04759423 -21.94044342 141.63663596 -21.93524551 147.22577286 C-21.9315395 149.36210137 -21.92430299 151.49842668 -21.91353989 153.63473129 C-21.89910056 156.61837272 -21.89701888 159.60177869 -21.89794922 162.58544922 C-21.89075867 163.47592957 -21.88356812 164.36640991 -21.87615967 165.28387451 C-21.89689568 171.39689568 -21.89689568 171.39689568 -24.125 173.625 C-26.98242188 173.86791992 -26.98242188 173.86791992 -30.59375 173.85546875 C-31.88667969 173.85353516 -33.17960938 173.85160156 -34.51171875 173.84960938 C-35.18638184 173.84340576 -35.86104492 173.83720215 -36.55615234 173.83081055 C-38.61698782 173.81257091 -40.67737353 173.81030077 -42.73828125 173.81054688 C-52.84459098 173.76520451 -52.84459098 173.76520451 -55.125 172.625 C-55.125 140.615 -55.125 108.605 -55.125 75.625 C-60.075 75.625 -65.025 75.625 -70.125 75.625 C-71.44498825 72.98502351 -71.25456032 70.98422683 -71.2578125 68.03125 C-71.25974609 66.36255859 -71.25974609 66.36255859 -71.26171875 64.66015625 C-71.25785156 63.49355469 -71.25398437 62.32695312 -71.25 61.125 C-71.25386719 59.95839844 -71.25773438 58.79179687 -71.26171875 57.58984375 C-71.26042969 56.47738281 -71.25914062 55.36492187 -71.2578125 54.21875 C-71.25612061 52.68250977 -71.25612061 52.68250977 -71.25439453 51.11523438 C-71.125 48.625 -71.125 48.625 -70.125 46.625 C-65.175 46.625 -60.225 46.625 -55.125 46.625 C-55.2075 44.253125 -55.29 41.88125 -55.375 39.4375 C-55.50161132 28.18981092 -52.88394823 17.14091879 -45.125 8.625 C-32.04244621 -2.41871424 -16.19420204 -2.78161647 0 0 Z " fill="#1DD760" transform="translate(1035.125,91.375)"/>
<path d="M0 0 C0.91571777 0.00757324 1.83143555 0.01514648 2.77490234 0.02294922 C16.83402715 0.36270933 30.3426908 5.60412038 40.71484375 15.2734375 C54.10901596 29.96724226 60.21308932 48.10582597 59.83203125 67.8515625 C58.73939496 87.40089296 53.09471379 104.18288099 38.5078125 117.88671875 C25.05384396 129.34857607 8.91988686 132.574373 -8.3125 131.4375 C-20.16482069 129.60407159 -28.37187992 124.26054257 -37.3125 116.4375 C-37.6425 132.6075 -37.9725 148.7775 -38.3125 165.4375 C-43.571875 165.458125 -48.83125 165.47875 -54.25 165.5 C-55.911521 165.509104 -57.57304199 165.51820801 -59.28491211 165.52758789 C-60.58178955 165.53008545 -61.87866699 165.53258301 -63.21484375 165.53515625 C-63.90066528 165.54027222 -64.58648682 165.54538818 -65.29309082 165.55065918 C-66.96665231 165.55097054 -68.6400958 165.49972837 -70.3125 165.4375 C-72.14643423 163.60356577 -71.4387014 160.67048385 -71.43948364 158.21179199 C-71.44104363 157.5541912 -71.44260362 156.89659041 -71.44421089 156.21906233 C-71.44822266 153.99953487 -71.44503058 151.78007493 -71.44189453 149.56054688 C-71.44324849 147.97583475 -71.4450284 146.39112295 -71.44720459 144.80641174 C-71.45177952 140.49041796 -71.44998912 136.17444797 -71.4468255 131.85845375 C-71.44430221 127.35188353 -71.44663936 122.84531541 -71.44821167 118.33874512 C-71.45003346 110.76928337 -71.44762682 103.19983136 -71.44287109 95.63037109 C-71.43742846 86.86611574 -71.43919111 78.10188364 -71.4446975 69.33762884 C-71.44922838 61.82682518 -71.4498793 54.31602853 -71.44725883 46.80522394 C-71.44569591 42.31321487 -71.44550268 37.82121675 -71.44879532 33.32920837 C-71.45167366 29.10711002 -71.44969902 24.88504179 -71.44390106 20.6629467 C-71.44257327 19.10886116 -71.44296791 17.55477311 -71.44516373 16.00068855 C-71.44787448 13.88816023 -71.44449506 11.77572999 -71.43948364 9.66320801 C-71.43910662 8.47815926 -71.43872959 7.2931105 -71.43834114 6.07215118 C-71.3125 3.4375 -71.3125 3.4375 -70.3125 2.4375 C-68.03302208 2.3372907 -65.75042865 2.30668697 -63.46875 2.3046875 C-62.78445923 2.30373077 -62.10016846 2.30277405 -61.3951416 2.30178833 C-59.94588123 2.3011067 -58.49661782 2.30295977 -57.04736328 2.30712891 C-54.82187072 2.31247748 -52.59657999 2.3071834 -50.37109375 2.30078125 C-48.96614539 2.30144203 -47.56119715 2.3027232 -46.15625 2.3046875 C-44.86912109 2.30581543 -43.58199219 2.30694336 -42.25585938 2.30810547 C-39.3125 2.4375 -39.3125 2.4375 -38.3125 3.4375 C-38.07768307 5.62042774 -37.89886677 7.80953174 -37.75 10 C-37.66621094 11.19753906 -37.58242188 12.39507812 -37.49609375 13.62890625 C-37.43550781 14.55574219 -37.37492188 15.48257813 -37.3125 16.4375 C-36.92320312 16.00179687 -36.53390625 15.56609375 -36.1328125 15.1171875 C-26.20418529 4.54800369 -14.40301891 -0.16869124 0 0 Z M-32.03515625 42.46875 C-37.6257235 50.05104269 -40.56509407 60.00825019 -39.3125 69.4375 C-37.43349581 80.68020841 -33.29072189 89.76587442 -24.328125 97.03515625 C-17.44982151 101.82064259 -9.5667896 103.33054524 -1.3125 102.4375 C8.13921335 100.20565872 15.07875713 95.63806059 20.5 87.5625 C21.26217535 86.20551888 21.99252029 84.83009191 22.6875 83.4375 C23.0071875 82.80714844 23.326875 82.17679688 23.65625 81.52734375 C27.41699064 72.49111972 27.11537593 60.43192612 23.9375 51.25 C20.11407579 42.46538521 13.92005415 34.4530062 4.9375 30.4375 C-9.66011623 25.98842573 -22.54913696 31.28342113 -32.03515625 42.46875 Z " fill="#1DD75F" transform="translate(624.3125,135.5625)"/>
<path d="M0 0 C1.37479846 1.29053662 2.72783903 2.60818032 4 4 C2.34364039 9.19682826 -0.84011209 13.25779642 -4 17.625 C-5.08354268 19.13787092 -6.16688416 20.65088596 -7.25 22.1640625 C-7.72953125 22.82873535 -8.2090625 23.4934082 -8.703125 24.17822266 C-9.83228794 25.76440749 -10.91997275 27.37995913 -12 29 C-16.46410658 28.44198668 -19.28091555 26.72319116 -23 24.25 C-36.01079059 15.9491156 -51.49306595 10.68572548 -67 14 C-72.71533703 15.88557273 -76.9239417 18.7130248 -80 24 C-80.74256172 28.85521124 -80.85532041 33.14771376 -78.7734375 37.65625 C-71.31982093 47.50684458 -52.91147951 49.65282949 -41.64746094 52.61962891 C-24.42447132 57.18133223 -6.4815907 63.80258734 3.55859375 79.43359375 C9.64261913 90.26612675 10.09674438 105.61519794 6.875 117.5625 C6.0390625 119.7734375 6.0390625 119.7734375 5 122 C4.57460938 122.92039063 4.14921875 123.84078125 3.7109375 124.7890625 C-3.088786 138.27942304 -13.6867053 144.8894601 -27.65625 149.96484375 C-51.76758781 157.42921819 -78.26424553 152.37703385 -100.32470703 141.16479492 C-106.29837488 137.99644481 -111.693002 134.18436381 -117 130 C-118.33115687 128.99710461 -119.66373019 127.99607268 -121 127 C-120.58730997 121.68953588 -119.00489598 119.38914657 -115.3125 115.625 C-111.17742404 111.28821302 -107.45024464 106.89485926 -104 102 C-99.30123121 102.47257732 -96.97194524 103.45868374 -93.5 106.625 C-80.07149312 117.8895758 -63.37663525 122.93132883 -46 122 C-39.50840093 121.26825775 -34.03076123 119.25134752 -29 115 C-25.59969319 110.32457814 -25.16226019 105.60175417 -26 100 C-28.2893235 94.16222507 -32.71763807 92.03575575 -38.15234375 89.5 C-46.9887716 85.8738303 -56.45933545 83.76288539 -65.66308594 81.28222656 C-82.12527771 76.7925379 -99.3997295 71.29227599 -109.3125 56.375 C-116.08716994 44.19166986 -116.65946253 30.12137929 -112.984375 16.89453125 C-108.834507 4.6919432 -101.59293625 -4.18349827 -90.2890625 -10.51953125 C-60.55842746 -24.61815618 -26.34065247 -18.20019957 0 0 Z " fill="#1DD75F" transform="translate(535,114)"/>
<path d="M0 0 C3.57520867 2.78796076 6.81579537 5.77634505 10 9 C10.63550781 9.61359375 11.27101563 10.2271875 11.92578125 10.859375 C21.87064766 21.17910334 26.86592665 35.93749051 28 50 C28.07927734 50.95519531 28.07927734 50.95519531 28.16015625 51.9296875 C28.97631985 70.73693578 21.3288393 88.05826843 8.8125 101.75 C-7.41066709 116.74244407 -26.75350124 120.89756241 -48.26806641 120.17480469 C-64.25856528 119.1516414 -77.93157843 111.18617073 -89 100 C-89.62390625 99.40960938 -90.2478125 98.81921875 -90.890625 98.2109375 C-102.25463988 86.59097634 -106.76558123 70.28238789 -107.375 54.4375 C-106.70595428 35.06426305 -99.17840044 18.17992264 -85.18359375 4.83984375 C-61.31163604 -15.27409557 -25.98133427 -17.16322212 0 0 Z M-66.25 30.25 C-72.95680229 38.47359953 -74.57090963 48.70819667 -74 59 C-73.03937684 68.11804608 -68.89182165 76.71681947 -62.125 82.9375 C-53.05895501 90.17991525 -44.47440094 91.88464769 -33 91 C-24.21527108 89.27567655 -17.82047775 84.70300507 -12 78 C-6.54003341 69.82286694 -3.7553787 59.82036566 -5 50 C-6.62750413 43.02857765 -8.49744345 36.62819569 -13 31 C-13.53625 30.175 -14.0725 29.35 -14.625 28.5 C-21.2253759 21.55223589 -29.83266856 18.01942687 -39.3125 17.6875 C-50.5961241 17.95026933 -58.58705572 22.12727907 -66.25 30.25 Z " fill="#1DD75F" transform="translate(798,147)"/>
<path d="M0 0 C0.68429077 -0.00095673 1.36858154 -0.00191345 2.0736084 -0.00289917 C3.52286877 -0.0035808 4.97213218 -0.00172773 6.42138672 0.00244141 C8.64687928 0.00778998 10.87217001 0.0024959 13.09765625 -0.00390625 C14.50260461 -0.00324547 15.90755285 -0.0019643 17.3125 0 C18.59962891 0.00112793 19.88675781 0.00225586 21.21289062 0.00341797 C24.15625 0.1328125 24.15625 0.1328125 25.15625 1.1328125 C25.2446467 3.5084977 25.27155305 5.85489924 25.25390625 8.23046875 C25.2524913 8.93932724 25.25107635 9.64818573 25.24961853 10.37852478 C25.24400443 12.65082962 25.23144963 14.92303725 25.21875 17.1953125 C25.21373681 18.73242046 25.20917359 20.26952995 25.20507812 21.80664062 C25.19403042 25.58206892 25.17675641 29.35742421 25.15625 33.1328125 C26.60245728 33.12495728 26.60245728 33.12495728 28.07788086 33.11694336 C31.64297564 33.09889132 35.20806636 33.08737976 38.77319336 33.07788086 C40.31844766 33.0728411 41.86369716 33.0660093 43.40893555 33.05737305 C45.62550029 33.04529174 47.84200218 33.03958077 50.05859375 33.03515625 C50.7533934 33.02999496 51.44819305 33.02483368 52.16404724 33.01951599 C53.8285433 33.01931973 55.49290499 33.07092121 57.15625 33.1328125 C58.95904191 34.93560441 58.28661605 37.67328951 58.2890625 40.1015625 C58.29035156 41.31199219 58.29164063 42.52242187 58.29296875 43.76953125 C58.28910156 45.04441406 58.28523437 46.31929687 58.28125 47.6328125 C58.28511719 48.90769531 58.28898438 50.18257812 58.29296875 51.49609375 C58.29167969 52.70652344 58.29039062 53.91695312 58.2890625 55.1640625 C58.28793457 56.28361328 58.28680664 57.40316406 58.28564453 58.55664062 C58.15625 61.1328125 58.15625 61.1328125 57.15625 62.1328125 C54.7805648 62.2212092 52.43416326 62.24811555 50.05859375 62.23046875 C48.99530602 62.22834633 48.99530602 62.22834633 47.91053772 62.22618103 C45.63823288 62.22056693 43.36602525 62.20801213 41.09375 62.1953125 C39.55664204 62.19029931 38.01953255 62.18573609 36.48242188 62.18164062 C32.70699358 62.17059292 28.93163829 62.15331891 25.15625 62.1328125 C25.21757747 69.98283371 25.2947668 77.83252662 25.39196491 85.68217659 C25.43660957 89.32748307 25.47587825 92.97267931 25.50268555 96.61816406 C25.52877811 100.13915487 25.56922142 103.65972013 25.61943626 107.18044662 C25.64413358 109.17107251 25.65413447 111.16186325 25.66389465 113.15261841 C25.68368881 114.37343109 25.70348297 115.59424377 25.72387695 116.85205078 C25.74053154 118.45755295 25.74053154 118.45755295 25.75752258 120.0954895 C26.22368776 123.64652247 27.32200123 126.07112315 29.15625 129.1328125 C33.06245015 131.51993482 36.66218423 131.49523716 41.15625 131.1328125 C43.9706605 130.43325357 46.73746163 129.64636306 49.5078125 128.7890625 C52.15625 128.1328125 52.15625 128.1328125 57.15625 128.1328125 C57.15625 137.0428125 57.15625 145.9528125 57.15625 155.1328125 C43.64175233 161.89006134 28.92447229 164.33429822 14.15625 160.1328125 C5.8495033 157.16867843 -0.06084026 152.54591133 -4.125 144.640625 C-7.1390437 137.5576223 -7.97158758 130.78159122 -7.95727539 123.09594727 C-7.95742142 122.43168228 -7.95756744 121.7674173 -7.9577179 121.08302307 C-7.95702785 118.91338701 -7.94927854 116.74383959 -7.94140625 114.57421875 C-7.93953884 113.05964708 -7.93811646 111.54507481 -7.93711853 110.03050232 C-7.9333188 106.06363223 -7.92351051 102.09679934 -7.91241455 98.12994385 C-7.90214546 94.07426456 -7.89760918 90.0185792 -7.89257812 85.96289062 C-7.88188573 78.01951236 -7.8643098 70.07617136 -7.84375 62.1328125 C-12.79375 62.1328125 -17.74375 62.1328125 -22.84375 62.1328125 C-22.86666487 58.163447 -22.88659015 54.1942493 -22.89868164 50.22485352 C-22.90372057 48.87360864 -22.91055177 47.52236924 -22.91918945 46.17114258 C-22.93127419 44.23260816 -22.93644828 42.2940345 -22.94140625 40.35546875 C-22.94664307 39.18765869 -22.95187988 38.01984863 -22.95727539 36.81665039 C-22.84375 34.1328125 -22.84375 34.1328125 -21.84375 33.1328125 C-19.49061445 33.06009509 -17.13541332 33.04910382 -14.78125 33.0703125 C-13.49089844 33.07933594 -12.20054687 33.08835938 -10.87109375 33.09765625 C-9.87207031 33.10925781 -8.87304688 33.12085938 -7.84375 33.1328125 C-7.84898682 32.16867432 -7.85422363 31.20453613 -7.85961914 30.21118164 C-7.87767118 26.64608686 -7.88918274 23.08099614 -7.89868164 19.51586914 C-7.9037214 17.97061484 -7.9105532 16.42536534 -7.91918945 14.88012695 C-7.93127076 12.66356221 -7.93698173 10.44706032 -7.94140625 8.23046875 C-7.94656754 7.5356691 -7.95172882 6.84086945 -7.95704651 6.12501526 C-7.95724277 4.4605192 -7.90564129 2.79615751 -7.84375 1.1328125 C-5.93525052 -0.77568698 -2.52896226 0.00221617 0 0 Z " fill="#1DD75F" transform="translate(849.84375,104.8671875)"/>
<path d="M0 0 C0.66209473 -0.00095673 1.32418945 -0.00191345 2.00634766 -0.00289917 C3.40852961 -0.00358076 4.8107147 -0.00172792 6.21289062 0.00244141 C8.36595713 0.00779004 10.51881502 0.0024958 12.671875 -0.00390625 C14.03125046 -0.00324546 15.3906258 -0.00196429 16.75 0 C18.61785156 0.00169189 18.61785156 0.00169189 20.5234375 0.00341797 C23.375 0.1328125 23.375 0.1328125 24.375 1.1328125 C24.47320173 2.75005635 24.50131935 4.37159883 24.50198364 5.99182129 C24.50480347 7.04352005 24.50762329 8.09521881 24.51052856 9.17878723 C24.50850433 10.34246323 24.5064801 11.50613922 24.50439453 12.70507812 C24.50614685 13.92281418 24.50789917 15.14055023 24.50970459 16.39518738 C24.51336281 19.74428366 24.51248966 23.09331852 24.5093255 26.44241142 C24.50680154 29.94000204 24.50913954 33.43758995 24.51071167 36.93518066 C24.51253326 42.80981927 24.51012734 48.68444533 24.50537109 54.55908203 C24.49992849 61.36020301 24.50169116 68.16129401 24.5071975 74.96241426 C24.51172893 80.79170378 24.51237903 86.62098424 24.50975883 92.45027494 C24.50819622 95.93624075 24.50800185 99.42219244 24.51129532 102.90815735 C24.51470835 106.79229913 24.5099838 110.67640708 24.50439453 114.56054688 C24.50641876 115.72422287 24.50844299 116.88789886 24.51052856 118.08683777 C24.50770874 119.13853653 24.50488892 120.19023529 24.50198364 121.27380371 C24.50160662 122.19337608 24.50122959 123.11294846 24.50084114 124.06038666 C24.375 126.1328125 24.375 126.1328125 23.375 127.1328125 C21.16849344 127.23293651 18.95877614 127.2636243 16.75 127.265625 C16.08790527 127.26658173 15.42581055 127.26753845 14.74365234 127.26852417 C13.34147039 127.26920576 11.9392853 127.26735292 10.53710938 127.26318359 C8.38404287 127.25783496 6.23118498 127.2631292 4.078125 127.26953125 C2.71874954 127.26887046 1.3593742 127.26758929 0 127.265625 C-1.24523437 127.26449707 -2.49046875 127.26336914 -3.7734375 127.26220703 C-6.625 127.1328125 -6.625 127.1328125 -7.625 126.1328125 C-7.72320173 124.51556865 -7.75131935 122.89402617 -7.75198364 121.27380371 C-7.75480347 120.22210495 -7.75762329 119.17040619 -7.76052856 118.08683777 C-7.75850433 116.92316177 -7.7564801 115.75948578 -7.75439453 114.56054688 C-7.75614685 113.34281082 -7.75789917 112.12507477 -7.75970459 110.87043762 C-7.76336281 107.52134134 -7.76248966 104.17230648 -7.7593255 100.82321358 C-7.75680154 97.32562296 -7.75913954 93.82803505 -7.76071167 90.33044434 C-7.76253326 84.45580573 -7.76012734 78.58117967 -7.75537109 72.70654297 C-7.74992849 65.90542199 -7.75169116 59.10433099 -7.7571975 52.30321074 C-7.76172893 46.47392122 -7.76237903 40.64464076 -7.75975883 34.81535006 C-7.75819622 31.32938425 -7.75800185 27.84343256 -7.76129532 24.35746765 C-7.76470835 20.47332587 -7.7599838 16.58921792 -7.75439453 12.70507812 C-7.75641876 11.54140213 -7.75844299 10.37772614 -7.76052856 9.17878723 C-7.75770874 8.12708847 -7.75488892 7.07538971 -7.75198364 5.99182129 C-7.75160662 5.07224892 -7.75122959 4.15267654 -7.75084114 3.20523834 C-7.47519029 -1.33434187 -3.75306878 0.00339952 0 0 Z " fill="#1DD65F" transform="translate(927.625,137.8671875)"/>
<path d="M0 0 C5.5326259 3.34045337 9.22626694 7.51071591 11.8125 13.4375 C12.88128784 21.05261334 11.77641111 26.7263952 7.3125 33 C2.68082503 37.63167497 -1.45290537 39.88217985 -8.07421875 40.06640625 C-14.30802135 39.75137488 -18.94640462 38.10602949 -23.6875 34 C-28.88460544 27.33704431 -29.61975303 21.26458022 -28.6875 13 C-26.3193251 6.89777339 -22.12306164 2.96317808 -16.5 -0.25 C-10.88397361 -1.74760704 -5.58547729 -1.51470571 0 0 Z " fill="#1DD75F" transform="translate(944.6875,84)"/>
<path d="M0 0 C4.70246673 3.39331675 7.49901829 7.5615888 8.75390625 13.265625 C9.38934935 19.72596321 8.39529052 24.79850513 4.75390625 30.265625 C-1.2436614 36.03390938 -6.30725878 37.57789379 -14.5234375 37.48046875 C-20.64290572 36.99758388 -24.35896714 33.78309646 -28.24609375 29.265625 C-32.15950128 23.73287643 -31.88354275 17.78376548 -31.24609375 11.265625 C-29.26424051 4.97032648 -24.46521074 1.17969456 -18.93359375 -2.109375 C-12.19445154 -3.67661738 -6.06995989 -3.48256284 0 0 Z M-25.6328125 6.8046875 C-28.85412954 11.57449729 -29.13533086 16.67870095 -28.24609375 22.265625 C-26.51961709 27.12191764 -23.51311837 30.42094192 -19.24609375 33.265625 C-14.07897785 34.98799697 -9.14009617 34.92124122 -3.99609375 33.140625 C0.65115714 29.97204485 4.46011093 25.82894488 5.75390625 20.265625 C5.84393314 14.21131698 4.71677591 9.99905265 0.75390625 5.265625 C-3.93092502 1.03785044 -7.63478628 -0.16505785 -13.83203125 -0.07421875 C-18.73363914 0.61581343 -22.36212175 3.17468143 -25.6328125 6.8046875 Z " fill="#1CD760" transform="translate(1191.24609375,140.734375)"/>
<path d="M0 0 C3.6196875 -0.0928125 3.6196875 -0.0928125 7.3125 -0.1875 C8.44619019 -0.22846802 8.44619019 -0.22846802 9.6027832 -0.27026367 C12.46812133 -0.30595089 14.51305926 -0.31393585 16.95703125 1.26171875 C18.81495913 4.35826522 18.56664572 7.51294941 18 11 C16.5 13 16.5 13 15 14 C15.66 14.78375 16.32 15.5675 17 16.375 C19 19 19 19 19 21 C16.25 21.375 16.25 21.375 13 21 C10.875 18.0625 10.875 18.0625 9 15 C6.87880872 14.04768403 6.87880872 14.04768403 5 14 C5 16.31 5 18.62 5 21 C3.35 21 1.7 21 0 21 C0 14.07 0 7.14 0 0 Z M5 4 C5 5.98 5 7.96 5 10 C9.14093698 10.20970559 9.14093698 10.20970559 13 9 C13 7.68 13 6.36 13 5 C10.29120665 3.64560332 7.99066732 3.93498549 5 4 Z " fill="#1DD75F" transform="translate(1171,147)"/>
</svg>
