<?xml version="1.0" encoding="UTF-8"?>
<svg version="1.1" xmlns="http://www.w3.org/2000/svg" width="3000" height="2000">
<path d="M0 0 C23.72332772 23.64529046 28.28892199 56.57814829 32.06542969 88.40380859 C32.35232893 90.57352953 32.35232893 90.57352953 33.375 93.3671875 C33.57415727 95.79321813 33.72697154 98.20268509 33.84375 100.6328125 C33.92622777 102.17908233 34.00960791 103.72530422 34.09375 105.27148438 C34.13822266 106.09801514 34.18269531 106.9245459 34.22851562 107.77612305 C34.48328911 112.28264142 34.79083921 116.78556831 35.09375 121.2890625 C37.63262748 159.52369066 37.63262748 159.52369066 38.08398438 177.29980469 C38.21404579 182.34523575 38.43968595 187.33957753 38.890625 192.3671875 C39.56106699 200.59086581 39.52499924 208.80789004 39.50537109 217.05322266 C39.49996803 219.75819392 39.50537021 222.46300222 39.51171875 225.16796875 C39.51105857 226.90885453 39.50977867 228.64974021 39.5078125 230.390625 C39.50983673 231.18866547 39.51186096 231.98670593 39.51394653 232.80892944 C39.49473822 237.43003338 39.03950172 241.78605294 38.375 246.3671875 C38.16606538 249.67611394 38.07518861 252.98685826 37.98046875 256.30078125 C37.91422374 258.308618 37.84721316 260.3164296 37.77954102 262.32421875 C37.74466583 263.37947754 37.70979065 264.43473633 37.67385864 265.52197266 C36.50728894 299.91100244 34.04068998 334.27151018 29.58691406 368.40161133 C29.32140424 370.53481225 29.32140424 370.53481225 29.375 373.3671875 C28.715 373.3671875 28.055 373.3671875 27.375 373.3671875 C27.33632812 374.24503906 27.33632812 374.24503906 27.296875 375.140625 C26.87319609 381.55358301 25.79754009 387.72282538 24.4375 393.9921875 C24.26766602 394.79833496 24.09783203 395.60448242 23.92285156 396.43505859 C23.47520419 398.42900789 22.93279976 400.40120647 22.375 402.3671875 C21.385 402.8621875 21.385 402.8621875 20.375 403.3671875 C20.03426262 405.03235624 19.70252414 406.69936952 19.375 408.3671875 C17.56189192 412.46202236 15.45903894 416.40435588 13.375 420.3671875 C13.00890625 421.08003906 12.6428125 421.79289062 12.265625 422.52734375 C10.14212665 426.48714599 7.61292714 429.28344737 4.375 432.3671875 C3.53748657 433.42639567 2.70452897 434.48921466 1.875 435.5546875 C-5.33972465 443.9506643 -14.69836049 449.68254113 -24.375 454.8046875 C-25.15447998 455.21759033 -25.93395996 455.63049316 -26.73706055 456.0559082 C-34.18862321 459.87029547 -41.31383749 462.28981458 -49.625 463.3671875 C-50.6975 463.6971875 -51.77 464.0271875 -52.875 464.3671875 C-55.79502207 465.14586005 -58.11604203 465.57038639 -61.078125 465.80859375 C-66.44099897 466.26302955 -71.79858053 466.7581312 -77.15625 467.26953125 C-110.87241866 470.46374786 -110.87241866 470.46374786 -126.375 471.6171875 C-127.43654297 471.69702881 -128.49808594 471.77687012 -129.59179688 471.85913086 C-133.56240907 472.14288661 -137.47045356 472.3678183 -141.453125 472.3515625 C-144.60856031 472.28243356 -144.60856031 472.28243356 -147.61328125 472.8671875 C-151.07048711 473.44114645 -154.30982505 473.42624208 -157.8125 473.3671875 C-162.26084517 473.31945498 -166.635466 473.38423834 -171.0625 473.8671875 C-175.99236037 474.38612017 -180.84554751 474.39635032 -185.79956055 474.34765625 C-193.159626 474.30663882 -200.49831931 474.65444467 -207.84838867 475.01171875 C-212.71404861 475.23975202 -217.55058317 475.38155495 -222.421875 475.3359375 C-226.79953443 475.30996022 -231.10215501 475.5203299 -235.46598816 475.86105347 C-243.76933673 476.45656037 -252.05185341 476.5085135 -260.37231445 476.49658203 C-261.99062133 476.49794122 -263.60892789 476.49972403 -265.22723389 476.50189209 C-269.57659692 476.50640602 -273.92593592 476.50470171 -278.27529931 476.501513 C-282.85924859 476.49895658 -287.44319601 476.50133612 -292.02714539 476.50289917 C-299.72407393 476.50471192 -307.42099284 476.5023387 -315.11791992 476.49755859 C-323.97074289 476.49212353 -332.82354279 476.49387677 -341.6763652 476.499385 C-349.32189832 476.50394869 -356.96742456 476.50455067 -364.61295861 476.50194633 C-369.15951584 476.50040062 -373.70606229 476.50014219 -378.25261879 476.50348282 C-382.53323042 476.506409 -386.81381285 476.50430037 -391.09442139 476.49858856 C-392.64944091 476.49728581 -394.20446297 476.49761171 -395.75948143 476.49985123 C-405.46379574 476.51251959 -415.10267507 476.19668309 -424.78866863 475.59092522 C-429.12573848 475.33798406 -433.40661733 475.26643853 -437.75 475.3046875 C-438.47445313 475.30847412 -439.19890625 475.31226074 -439.9453125 475.31616211 C-442.17194846 475.32800078 -444.39842846 475.34667061 -446.625 475.3671875 C-449.62499539 475.39380343 -452.6249317 475.41366805 -455.625 475.4296875 C-457.5740625 475.44708984 -457.5740625 475.44708984 -459.5625 475.46484375 C-462.625 475.3671875 -462.625 475.3671875 -464.625 474.3671875 C-466.27865877 474.2293912 -467.93733068 474.14977857 -469.59594727 474.09912109 C-470.62872299 474.06436676 -471.66149872 474.02961243 -472.72557068 473.99380493 C-474.41022179 473.94273087 -474.41022179 473.94273087 -476.12890625 473.890625 C-489.61778278 473.4264061 -503.08778012 472.76009021 -516.5625 471.9921875 C-517.70565674 471.92716034 -518.84881348 471.86213318 -520.02661133 471.7951355 C-632.58124619 465.33761142 -632.58124619 465.33761142 -660.625 435.3671875 C-661.25535156 434.77035156 -661.88570312 434.17351562 -662.53515625 433.55859375 C-665.0466384 430.92505826 -667.08623298 428.05549636 -669.125 425.0546875 C-669.51937256 424.47799316 -669.91374512 423.90129883 -670.32006836 423.30712891 C-677.625 412.5430839 -677.625 412.5430839 -677.625 408.3671875 C-678.285 408.0371875 -678.945 407.7071875 -679.625 407.3671875 C-687.84350562 386.46046268 -689.89620244 362.62007642 -692.31542969 340.46655273 C-692.59004355 338.18130777 -692.59004355 338.18130777 -693.625 335.3671875 C-693.81498951 332.80082131 -693.95537811 330.24979314 -694.0625 327.6796875 C-694.45110797 319.36331231 -694.95292817 311.05681663 -695.49102783 302.7489624 C-696.25060289 291.01690166 -696.91032824 279.29054754 -697.28320312 267.53833008 C-697.31478516 266.62978271 -697.34636719 265.72123535 -697.37890625 264.78515625 C-697.40283447 263.99906982 -697.4267627 263.2129834 -697.45141602 262.40307617 C-697.56208451 260.16511675 -697.56208451 260.16511675 -698.625 257.3671875 C-698.71991405 255.09972027 -698.75294459 252.829511 -698.75439453 250.56005859 C-698.75614685 249.87182007 -698.75789917 249.18358154 -698.75970459 248.4744873 C-698.76410915 246.19650761 -698.76118807 243.9186055 -698.7578125 241.640625 C-698.7584864 240.05221543 -698.75945715 238.46380595 -698.76071167 236.87539673 C-698.76218713 233.54143291 -698.76004064 230.20749586 -698.75537109 226.87353516 C-698.74970171 222.62028024 -698.75293596 218.36708882 -698.75894356 214.11383629 C-698.76257707 210.82967664 -698.76139735 207.54553174 -698.75881577 204.26137161 C-698.75815275 202.69463722 -698.75895286 201.12790145 -698.76129532 199.56116867 C-698.770395 191.75713843 -698.63536129 184.11959514 -697.625 176.3671875 C-697.5648226 174.57901599 -697.53698839 172.7890019 -697.5625 171 C-697.57023437 170.09507812 -697.57796875 169.19015625 -697.5859375 168.2578125 C-697.59882812 167.34515625 -697.61171875 166.4325 -697.625 165.4921875 C-697.65050281 163.64068343 -697.67153784 161.7891109 -697.6875 159.9375 C-697.69910156 159.13070801 -697.71070313 158.32391602 -697.72265625 157.49267578 C-697.625 155.3671875 -697.625 155.3671875 -696.625 152.3671875 C-696.3783783 149.45712546 -696.17757343 146.55932974 -696.01171875 143.64453125 C-695.89977268 141.82483764 -695.7872819 140.00517748 -695.67431641 138.18554688 C-695.58648895 136.74731567 -695.58648895 136.74731567 -695.49688721 135.2800293 C-688.70898514 25.7478711 -688.70898514 25.7478711 -653.27685547 -6.24414062 C-648.4515894 -10.30061615 -643.07866914 -13.50355252 -637.625 -16.6328125 C-636.31208984 -17.38691406 -636.31208984 -17.38691406 -634.97265625 -18.15625 C-580.86910244 -47.09332092 -493.71339587 -36.97160166 -434.2298584 -38.53710938 C-430.89044726 -38.62576531 -427.55117704 -38.71845465 -424.21191406 -38.8125 C-330.97325002 -41.39301917 -237.29808381 -40.41973022 0 0 Z " fill="#FF0000" transform="translate(1043.625,781.6328125)"/>
<path d="M0 0 C23.43 0 46.86 0 71 0 C71.33 55.44 71.66 110.88 72 168 C75.465 162.555 75.465 162.555 79 157 C91.28074128 141.59703637 108.35227796 131.37054038 128 129 C145.57595782 127.75210699 162.54324841 130.51295723 176.3125 142.25 C207.08264846 171.83857476 204.18523513 227.9068326 205 267 C205.13743766 276.50990211 205.14613926 286.01979254 205.13037109 295.53051758 C205.12465756 299.00209928 205.12808678 302.47360459 205.13380432 305.94518375 C205.19683224 350.93208342 205.19683224 350.93208342 202.75 371.6875 C202.62286621 372.7899707 202.49573242 373.89244141 202.36474609 375.02832031 C198.78266692 404.11029954 191.73388076 433.99910749 168.7734375 453.95703125 C154.15314463 464.72662727 136.09815585 465.81953713 118.60546875 463.71142578 C100.27845681 460.63628526 84.35470853 450.60640336 73 436 C70 431.39455782 70 431.39455782 70 429 C69.34 429 68.68 429 68 429 C67.90203125 429.57363281 67.8040625 430.14726563 67.703125 430.73828125 C66.03357833 440.22303346 63.98862474 449.55403247 62 459 C41.54 459 21.08 459 0 459 C0 307.53 0 156.06 0 0 Z M80.71191406 193.48012924 C72.71010761 205.25847638 70.96408286 214.44083535 71.0625 228.41308594 C71.0497106 230.22158507 71.03399066 232.03006545 71.01559448 233.83851624 C70.97545215 238.70833408 70.97921251 243.57715585 70.99385834 248.44708157 C71.00210491 252.52533403 70.98863559 256.60340205 70.97534752 260.68163228 C70.94440109 270.30370593 70.9493435 279.9252942 70.97753906 289.54736328 C71.00598442 299.4534117 70.97594791 309.35806059 70.91691971 319.26394248 C70.86801061 327.79519884 70.8541656 336.32601866 70.8685112 344.85740304 C70.87679028 349.94171866 70.87229655 355.02516705 70.83447266 360.10936737 C70.80055252 364.88721058 70.81066197 369.66301579 70.8539772 374.44076347 C70.86264135 376.18780475 70.85615305 377.93500098 70.83294296 379.68190956 C70.67704665 391.13260362 70.67704665 391.13260362 76.24267578 400.92706299 C82.83813657 407.23713783 90.25759395 410.56661086 99.3125 411.25 C107.56278162 410.69065887 113.54990953 407.19860075 119 401 C125.94443503 390.60133822 127.41777651 377.84890483 128.625 365.6875 C128.80675781 364.08358398 128.80675781 364.08358398 128.9921875 362.44726562 C131.54377238 337.61091495 131.18868412 312.3814298 131.18530273 287.43774414 C131.18522114 284.34881784 131.1922453 281.26003884 131.20581055 278.17114258 C134.19026996 229.26580258 134.19026996 229.26580258 117.546875 186.37109375 C112.55580906 181.94719439 107.71885329 181.34196133 101.23046875 181.52734375 C93.16058237 182.70806473 85.61159805 186.90510891 80.71191406 193.48012924 Z " fill="#272727" transform="translate(2225,762)"/>
<path d="M0 0 C24.42 0 48.84 0 74 0 C74.01458252 7.49468994 74.02916504 14.98937988 74.04418945 22.71118164 C74.09302176 46.73402429 74.1564515 70.75680586 74.22898628 94.77958763 C74.24025347 98.51557436 74.25139208 102.25156147 74.26245117 105.98754883 C74.26465486 106.73126786 74.26685854 107.4749869 74.269129 108.24124288 C74.30443174 120.25883779 74.32933542 132.27643264 74.35034702 144.29406006 C74.37216519 156.63955923 74.40527231 168.98499155 74.44870156 181.33043379 C74.47511505 188.93867348 74.4928861 196.54682998 74.49934604 204.15511321 C74.5052595 210.00447721 74.52693435 215.85371883 74.55427551 221.70302391 C74.56302415 224.09135756 74.56678495 226.47971587 74.56500816 228.86806488 C73.75601063 251.57703505 73.75601063 251.57703505 82 272 C86.97874741 275.31916494 91.8181218 276.42305028 97.76171875 275.6328125 C107.94643247 273.52023424 115.53658643 268.73624729 121.69635224 260.36392879 C124.02751194 256.13679343 123.82504873 251.97484597 123.75949097 247.24328613 C123.76870107 246.18289423 123.77791117 245.12250232 123.78740036 244.02997732 C123.81093084 240.48887672 123.79189049 236.94931192 123.77294922 233.40820312 C123.78112168 230.86517398 123.79192504 228.32215212 123.80516052 225.77914429 C123.82771462 220.31048337 123.83201823 214.84229606 123.81957626 209.37361145 C123.80161955 201.46703427 123.81680102 193.56079085 123.83995558 185.65423983 C123.87663124 172.82513107 123.88667187 159.99614618 123.87988281 147.16699219 C123.87334685 134.70796498 123.87940446 122.24904837 123.90234375 109.79003906 C123.9037544 109.02149599 123.90516506 108.25295292 123.90661846 107.46112067 C123.91377312 103.60539495 123.92117479 99.74966975 123.92869925 95.89394474 C123.99075916 63.92924363 124.00463795 31.96477831 124 0 C148.42 0 172.84 0 198 0 C198 106.92 198 213.84 198 324 C178.86 324 159.72 324 140 324 C137.625 309.5625 137.625 309.5625 136.88916016 305.06469727 C135.77285181 298.32461094 134.57558534 291.64838112 133 285 C132.62230469 285.71542969 132.24460937 286.43085937 131.85546875 287.16796875 C121.64588615 305.65042156 107.41409859 319.57139958 86.8046875 325.99609375 C84.92485131 326.50899945 83.03859706 326.99946045 81.14453125 327.45703125 C78.96849715 327.9265835 78.96849715 327.9265835 77 329 C56.85051883 330.53422445 37.33259988 328.52456216 21.125 315.375 C4.41293705 299.19101339 0.64148731 273.49442611 -0.09115994 251.22970247 C-0.12423192 248.45735412 -0.12872566 245.68665356 -0.12025452 242.91412354 C-0.12110894 241.86664814 -0.12196337 240.81917274 -0.12284368 239.73995566 C-0.12447695 236.2670488 -0.11901273 232.79419139 -0.11352539 229.32128906 C-0.11324303 226.81708782 -0.11340221 224.3128865 -0.1139679 221.8086853 C-0.11419484 216.4362755 -0.11137793 211.06388078 -0.10573006 205.69147491 C-0.09756974 197.92407738 -0.09499521 190.1566857 -0.09374207 182.38928434 C-0.09155864 169.78425913 -0.08491785 157.17924043 -0.07543945 144.57421875 C-0.06624694 132.33658887 -0.05917512 120.09896076 -0.05493164 107.86132812 C-0.05466892 107.10578393 -0.05440619 106.35023974 -0.05413551 105.57180026 C-0.05283038 101.78109379 -0.05156669 97.9903873 -0.05032361 94.19968081 C-0.03997309 62.79978144 -0.02154674 31.39989418 0 0 Z " fill="#272727" transform="translate(1612,898)"/>
<path d="M0 0 C24.09 0 48.18 0 73 0 C73.029729 10.96154297 73.029729 10.96154297 73.06005859 22.14453125 C73.12498175 45.57486023 73.19952185 69.00514859 73.28005161 92.43542868 C73.29256922 96.07999908 73.30500219 99.72456976 73.31738281 103.36914062 C73.31984881 104.09465366 73.3223148 104.8201667 73.32485552 105.56766498 C73.36448811 117.28712254 73.39727729 129.00658964 73.42749982 140.72607481 C73.45870656 152.76759267 73.49735472 164.80907038 73.54279006 176.85054302 C73.56807423 183.60719654 73.59001713 190.36382529 73.60334396 197.12051392 C73.61624519 203.48983433 73.63838542 209.85905806 73.66738319 216.22832489 C73.67639629 218.55657653 73.68213441 220.88484372 73.68421364 223.21311188 C72.59125812 249.29060246 72.59125812 249.29060246 82.125 272.5 C88.39853017 275.77314618 94.84307862 276.77982768 101.703125 274.89453125 C110.74809252 271.37191635 118.33550249 265.59085743 123 257 C123.58101751 253.50584599 123.54690998 250.05755018 123.51898193 246.52175903 C123.52648319 245.46715953 123.53398444 244.41256002 123.541713 243.32600296 C123.56201002 239.79281902 123.55388316 236.26027558 123.54589844 232.72705078 C123.5546323 230.1941718 123.56511743 227.66129833 123.57722473 225.12843323 C123.59934725 219.67566016 123.60928582 214.22308147 123.60811615 208.77026749 C123.60644612 200.88651259 123.62678956 193.00293479 123.65247145 185.11922716 C123.6935442 172.3278658 123.71686326 159.53653632 123.72900391 146.74511719 C123.74083405 134.32093237 123.76103397 121.89680757 123.79248047 109.47265625 C123.79441657 108.70657473 123.79635267 107.9404932 123.79834744 107.15119709 C123.80811209 103.30791422 123.81804119 99.4646318 123.82805204 95.62134957 C123.91086311 63.74757611 123.96158259 31.87386557 124 0 C148.42 0 172.84 0 198 0 C198.02202559 41.13126977 198.04049737 82.262534 198.05106533 123.39380797 C198.05231611 128.24439087 198.05361042 133.09497376 198.05493164 137.94555664 C198.05532511 139.39411603 198.05532511 139.39411603 198.05572652 140.87193925 C198.06008358 156.52995944 198.06797132 172.18797597 198.0771528 187.84599399 C198.08648835 203.90008476 198.0920554 219.95417361 198.09408849 236.00826699 C198.09546393 245.92281947 198.09981561 255.83736163 198.10791647 265.75191093 C198.11318271 272.54105551 198.11480457 279.33019471 198.11350138 286.11934119 C198.11285781 290.04241337 198.11387765 293.96546745 198.11920547 297.88853645 C198.12492602 302.13150847 198.12300129 306.37444142 198.12025452 310.61741638 C198.12462378 312.49821157 198.12462378 312.49821157 198.12908131 314.41700262 C198.12709026 315.54413044 198.12509921 316.67125826 198.12304783 317.83254147 C198.12342755 318.81335908 198.12380727 319.79417669 198.1241985 320.80471605 C198 323 198 323 197 324 C195.22553991 324.09893778 193.44713749 324.12799092 191.66992188 324.12939453 C190.53204224 324.13254669 189.3941626 324.13569885 188.22180176 324.13894653 C186.98329468 324.1369223 185.7447876 324.13489807 184.46875 324.1328125 C183.20736206 324.13376923 181.94597412 324.13472595 180.6463623 324.13571167 C177.97302862 324.13639375 175.29978563 324.13503529 172.62646484 324.13037109 C169.19293309 324.12467381 165.7594795 324.12795301 162.32595062 324.13394356 C159.06104757 324.13841762 155.79615407 324.13528883 152.53125 324.1328125 C151.29274292 324.13483673 150.05423584 324.13686096 148.77819824 324.13894653 C147.6403186 324.13579437 146.50243896 324.13264221 145.33007812 324.12939453 C144.32271606 324.12859894 143.315354 324.12780334 142.27746582 324.12698364 C140 324 140 324 139 323 C138.55513072 320.63185362 138.16428203 318.27648257 137.80859375 315.89453125 C137.69902847 315.17770676 137.5894632 314.46088226 137.47657776 313.72233582 C137.24510802 312.20021122 137.01575455 310.67776356 136.78833008 309.1550293 C136.44141858 306.83866478 136.08546143 304.52382118 135.72851562 302.20898438 C135.50465665 300.72925002 135.2813326 299.24943463 135.05859375 297.76953125 C134.89924599 296.73793633 134.89924599 296.73793633 134.73667908 295.6855011 C134.15714472 291.75515627 133.89550163 287.97132348 134 284 C133.34 284 132.68 284 132 284 C131.75121094 284.86238281 131.50242187 285.72476562 131.24609375 286.61328125 C125.56839052 302.04453109 111.2786673 314.77029504 97 322 C78.44481066 330.00179782 57.49440683 331.9773791 38 326 C23.80250448 320.2695749 13.34171663 308.98953013 7.25 295.125 C-0.20541615 275.93646992 -0.28941421 256.52086045 -0.22705078 236.24633789 C-0.22648581 233.66287745 -0.22680491 231.07941668 -0.22793579 228.49595642 C-0.228978 222.96152353 -0.22277143 217.42713827 -0.21146011 211.89271736 C-0.19511718 203.89115316 -0.18998817 195.88961169 -0.18748413 187.88803261 C-0.18312073 174.90198594 -0.16984863 161.91596459 -0.15087891 148.92993164 C-0.13248487 136.32478969 -0.11834567 123.71965464 -0.10986328 111.11450195 C-0.10933783 110.33584996 -0.10881239 109.55719798 -0.10827102 108.75495047 C-0.1056607 104.84818336 -0.10313334 100.9414162 -0.10064721 97.03464901 C-0.07995695 64.68974357 -0.04311015 32.34488526 0 0 Z " fill="#272727" transform="translate(1985,898)"/>
<path d="M0 0 C1.04590805 0.00031723 1.04590805 0.00031723 2.11294556 0.00064087 C18.74185686 0.05076301 34.22162703 2.33481997 49.4375 9.375 C50.84708984 10.01888672 50.84708984 10.01888672 52.28515625 10.67578125 C72.02339082 20.53101792 83.2926607 39.98036356 90.12890625 60.21484375 C100.75206003 93.87113392 100.62669189 129.85262524 100.56787109 164.78369141 C100.5621744 168.1916382 100.56557275 171.5995069 100.57130337 175.00745106 C100.63206526 217.43136 100.63206526 217.43136 98.125 237.6875 C97.99528809 238.76306152 97.86557617 239.83862305 97.73193359 240.94677734 C96.51571699 250.55788974 94.82089092 259.98542837 92.4375 269.375 C92.26524902 270.0673877 92.09299805 270.75977539 91.91552734 271.47314453 C86.77611151 291.51354441 74.97654416 311.66659435 56.921875 322.57421875 C28.46341031 338.84520593 -8.31744378 338.82409728 -39.41015625 330.73217773 C-58.1835913 325.43617808 -73.81099548 314.61489645 -83.62744141 297.52050781 C-89.5625 286.65661388 -89.5625 286.65661388 -89.5625 282.375 C-90.2225 282.045 -90.8825 281.715 -91.5625 281.375 C-92.29272461 279.31567383 -92.29272461 279.31567383 -92.96484375 276.58203125 C-93.21403564 275.56971436 -93.46322754 274.55739746 -93.7199707 273.5144043 C-93.97738037 272.41652588 -94.23479004 271.31864746 -94.5 270.1875 C-94.76578857 269.06577393 -95.03157715 267.94404785 -95.30541992 266.78833008 C-97.76718073 256.06483658 -99.40818056 245.31036826 -100.5625 234.375 C-100.64982895 233.61835052 -100.7371579 232.86170105 -100.82713318 232.0821228 C-101.94211628 221.00469242 -101.74681548 209.86662051 -101.765625 198.74609375 C-101.76845238 197.6103145 -101.77127975 196.47453526 -101.77419281 195.30433846 C-101.78913012 189.28207294 -101.79839149 183.25983101 -101.80273438 177.23754883 C-101.80818154 171.09960186 -101.83214555 164.96188092 -101.86070633 158.82400417 C-101.87958611 154.03362965 -101.88455176 149.24330656 -101.88607025 144.45289803 C-101.88904545 142.19488363 -101.89689325 139.93686895 -101.91025543 137.67889214 C-102.12426185 98.70404055 -98.53085582 52.4146643 -69.97265625 22.75732422 C-51.43684055 4.58734699 -24.93399495 -0.07024708 0 0 Z M-16.1875 56.6875 C-32.08472262 76.19772776 -27.87287578 112.4909251 -27.828125 135.8125 C-27.82947858 138.35864295 -27.8314248 140.90478565 -27.83392334 143.45092773 C-27.83684211 148.74171972 -27.83288384 154.03246038 -27.82324219 159.32324219 C-27.81236643 165.35927719 -27.81589524 171.39517687 -27.826895 177.43120861 C-27.83721729 183.34185965 -27.83593169 189.25246109 -27.83013153 195.16311646 C-27.82881941 197.63127665 -27.8303546 200.09944043 -27.83509064 202.56759644 C-27.854108 215.25543675 -27.61084995 227.86322084 -26.66308594 240.51953125 C-26.54535009 242.10647545 -26.54535009 242.10647545 -26.42523575 243.72547913 C-25.4002337 256.09839719 -23.75114972 270.84267213 -14.25 279.75 C-9.3358809 283.57093583 -4.72287471 284.61347143 1.4375 284.25 C7.24577858 283.45796201 11.24938441 281.95016433 15.09375 277.42578125 C28.46650029 258.64493341 25.89578034 232.04228443 25.84047651 210.12024689 C25.83275566 206.0884597 25.8399593 202.05669057 25.84463501 198.02490234 C25.85005708 191.26070414 25.84299521 184.49660496 25.82861328 177.73242188 C25.81229366 169.96838886 25.81758471 162.20459241 25.8340925 154.44056511 C25.84780962 147.71377002 25.84957763 140.98704515 25.84177649 134.26024055 C25.83715556 130.26921858 25.83631762 126.27830689 25.84638596 122.28729248 C27.26734505 86.76189951 27.26734505 86.76189951 13.4375 55.375 C4.013414 48.58965808 -7.40214297 48.66608706 -16.1875 56.6875 Z " fill="#272727" transform="translate(1475.5625,891.625)"/>
<path d="M0 0 C24.09 0 48.18 0 73 0 C74.36743661 4.10230982 75.48610788 7.84485745 76.38806152 12.02822876 C76.77438751 13.8084417 76.77438751 13.8084417 77.16851807 15.62461853 C77.4448407 16.91461258 77.72116333 18.20460663 78.00585938 19.53369141 C78.30492252 20.91822624 78.60426689 22.30270036 78.90386963 23.68711853 C79.71759269 27.45183019 80.52693846 31.2174701 81.33520317 34.98335695 C82.01900964 38.1677132 82.70480254 41.35164043 83.3905282 44.53558385 C85.02136451 52.10832349 86.64849097 59.68185394 88.2734375 67.25585938 C89.73911934 74.08720992 91.20915293 80.91760496 92.68359375 87.74707031 C113.45387895 183.96431158 113.45387895 183.96431158 119 219 C119.10370407 218.43421738 119.20740814 217.86843475 119.31425476 217.2855072 C128.71620427 166.15377714 139.98374128 115.45613437 151.38437653 64.73897552 C151.98383432 62.07192288 152.58289863 59.40478218 153.18182373 56.73760986 C154.275417 51.867874 155.36979172 46.99831428 156.46484375 42.12890625 C156.69980655 41.08404714 156.69980655 41.08404714 156.93951607 40.01807976 C159.94126325 26.67451748 162.9731869 13.33793463 166 0 C190.09 0 214.18 0 239 0 C238.31299954 5.49600365 237.51418716 10.35934345 236.00415039 15.60229492 C235.80137073 16.32414254 235.59859106 17.04599016 235.38966656 17.78971195 C234.71444068 20.18820503 234.0310254 22.5842843 233.34765625 24.98046875 C232.85934876 26.70921994 232.37159075 28.43812642 231.88433838 30.16717529 C230.83474524 33.88776558 229.78163094 37.60733393 228.72573853 41.32614136 C227.041375 47.25883116 225.364967 53.19374946 223.69018555 59.12915039 C223.11367323 61.17204581 222.53715031 63.21493824 221.96061707 65.25782776 C221.67188406 66.28095125 221.38315105 67.30407475 221.08566856 68.35820198 C220.19529408 71.51211392 219.30414582 74.66580632 218.41279602 77.81944275 C211.99992343 100.51257825 205.65412232 123.22437077 199.3125 145.9375 C197.41603731 152.72907155 195.5193623 159.52058377 193.62232399 166.31199455 C193.10358141 168.16909793 192.58487248 170.02621071 192.06619835 171.88333321 C188.9879301 182.9042223 185.90082485 193.92254144 182.79514885 204.93573952 C181.93581229 207.98371378 181.07777932 211.0320551 180.21948242 214.08032227 C179.03505374 218.28644301 177.84586638 222.49117362 176.65356445 226.69506836 C176.15166415 228.47634584 175.64994062 230.25767315 175.1484375 232.0390625 C174.92487076 232.82157883 174.70130402 233.60409515 174.47096252 234.4103241 C173.6411835 237.37094909 173 239.90857061 173 243 C172.34 243 171.68 243 171 243 C170.89471481 244.15136444 170.78942963 245.30272888 170.68095398 246.48898315 C170.11237906 251.01288323 168.71719555 254.93431348 167.10473633 259.17626953 C154.67796021 294.21312713 155.23232346 328.68829859 155.61827099 365.33902097 C155.72141643 375.43868436 155.71748788 385.53838623 155.72164631 395.63848305 C155.73079833 411.42695591 155.87591774 427.21104077 156 443 C131.91 443 107.82 443 83 443 C83.15984375 433.4403125 83.3196875 423.880625 83.484375 414.03125 C83.55693124 407.83835192 83.62578927 401.64620748 83.6652832 395.453125 C83.67033517 394.66545494 83.67538713 393.87778488 83.68059218 393.06624603 C85.63143927 325.18672289 85.63143927 325.18672289 73.3125 259 C73.09244293 258.32857594 72.87238586 257.65715187 72.6456604 256.96538162 C70.65538424 250.95619628 68.55809275 244.98810941 66.33840942 239.05982971 C62.52724866 228.85538536 59.45343869 218.54347249 56.62109375 208.02734375 C56.40082457 207.21016624 56.18055538 206.39298874 55.95361137 205.55104828 C54.82903677 201.3683695 53.71324367 197.18340816 52.60122681 192.99737549 C50.59003644 185.44201159 48.50543893 177.90682846 46.42625237 170.36995697 C45.48700566 166.96310704 44.55098615 163.55537386 43.61493778 160.14764404 C38.8127059 142.66598442 33.98936961 125.19013351 29.16711426 107.71398926 C27.89261239 103.09508699 26.61846921 98.47608588 25.3444519 93.85704994 C20.74679031 77.18820507 16.1463667 60.5201469 11.52946091 43.85662079 C10.38247824 39.71595113 9.23671879 35.57494281 8.09100533 31.43392181 C6.88572744 27.07842512 5.67682141 22.72394459 4.46728516 18.36962891 C3.8634619 16.18786561 3.259774 14.00606485 2.65625 11.82421875 C2.38255585 10.84240128 2.10886169 9.8605838 1.82687378 8.84901428 C1.58300934 7.96515549 1.3391449 7.08129669 1.08789062 6.1706543 C0.87604126 5.40714157 0.66419189 4.64362885 0.44592285 3.85697937 C0 2 0 2 0 0 Z " fill="#272727" transform="translate(1154,778)"/>
<path d="M0 0 C1.1232518 -0.00855011 1.1232518 -0.00855011 2.26919556 -0.01727295 C3.85083631 -0.02667245 5.43249621 -0.0332367 7.01416016 -0.03710938 C9.37309514 -0.0467083 11.73111653 -0.07773414 14.08984375 -0.109375 C36.43143908 -0.26672048 59.21325258 4.17752725 76.1640625 19.765625 C102.13346075 47.43793461 103.24051462 89.88978198 103.13671875 125.6015625 C103.13524431 127.31485969 103.1342267 129.02815734 103.13366699 130.74145508 C103.12847225 137.02035202 103.11451126 143.29923926 103.1015625 149.578125 C103.0809375 163.644375 103.0603125 177.710625 103.0390625 192.203125 C63.1090625 192.203125 23.1790625 192.203125 -17.9609375 192.203125 C-20.89196308 233.91859631 -20.89196308 233.91859631 -8.5859375 277.765625 C-2.8684542 283.07471663 3.18976984 284.54820733 10.859375 284.41796875 C17.71122809 283.74260689 23.26404444 281.20023692 28.0390625 276.203125 C34.5818247 266.63377893 35.48565781 254.23590644 36.1640625 243.015625 C36.30862152 240.79271313 36.45684566 238.57003545 36.609375 236.34765625 C36.66883301 235.38190674 36.72829102 234.41615723 36.78955078 233.42114258 C37.0390625 231.203125 37.0390625 231.203125 38.0390625 230.203125 C51.30533638 229.40577651 64.74768174 230.82766276 77.9765625 231.703125 C80.22067484 231.84809475 82.46481534 231.99262928 84.70898438 232.13671875 C90.1526783 232.48717478 95.59600109 232.8429852 101.0390625 233.203125 C101.82298393 241.78844341 102.17912936 250.05480657 101.3515625 258.640625 C101.21065186 260.12574585 101.21065186 260.12574585 101.06689453 261.64086914 C98.80963806 283.27496451 91.0352729 301.37251736 74.3125 315.5078125 C65.55466863 322.19606989 56.17017934 326.76516849 45.6640625 329.953125 C45.01743652 330.15188232 44.37081055 330.35063965 43.70458984 330.55541992 C32.10289256 333.85704956 20.22935734 334.56838454 8.2265625 334.515625 C6.91574707 334.51143555 5.60493164 334.50724609 4.25439453 334.50292969 C-18.98383442 334.23261741 -41.61494959 328.59189284 -58.9609375 312.203125 C-89.16705662 280.83523206 -90.1096424 230.09521516 -90.12890625 189.15625 C-90.13213998 187.48647029 -90.13550539 185.81669082 -90.13899231 184.14691162 C-90.14491685 180.67133939 -90.14683941 177.19579175 -90.14624023 173.72021484 C-90.14615943 170.23025275 -90.15304078 166.7404232 -90.16674805 163.25048828 C-90.57829294 56.69942581 -90.57829294 56.69942581 -59.9609375 23.203125 C-44.05788119 7.51891809 -22.0896076 0.13449645 0 0 Z M-8.9609375 56.203125 C-19.2773025 69.05094632 -18.12515621 89.4997432 -18.05859375 105.0625 C-18.0571788 106.33289124 -18.05576385 107.60328247 -18.05430603 108.91217041 C-18.04969755 112.24604301 -18.04075576 115.57984347 -18.02960205 118.91369629 C-18.01926632 122.33308283 -18.01472739 125.75247713 -18.00976562 129.171875 C-17.99966102 135.84899811 -17.98007576 142.5259974 -17.9609375 149.203125 C-0.8009375 149.203125 16.3590625 149.203125 34.0390625 149.203125 C34.52803249 117.78580306 34.52803249 117.78580306 33.2265625 86.390625 C33.15646973 85.47804932 33.08637695 84.56547363 33.01416016 83.62524414 C32.05142023 73.5241615 30.02049337 62.39583308 22.1015625 55.390625 C13.45674587 49.21575598 -1.15215563 47.98743391 -8.9609375 56.203125 Z " fill="#272727" transform="translate(2550.9609375,890.796875)"/>
<path d="M0 0 C71.28 0 142.56 0 216 0 C216 19.8 216 39.6 216 60 C192.24 60 168.48 60 144 60 C144 186.39 144 312.78 144 443 C120.57 443 97.14 443 73 443 C73 316.61 73 190.22 73 60 C48.91 60 24.82 60 0 60 C0 40.2 0 20.4 0 0 Z " fill="#272727" transform="translate(1791,778)"/>
<path d="M0 0 C4.38578387 1.09644597 7.85662369 2.98356479 11.75 5.1875 C12.53439453 5.62747314 13.31878906 6.06744629 14.12695312 6.52075195 C22.69751062 11.35126333 31.18239353 16.32972117 39.671875 21.30078125 C55.68233392 30.67160868 71.7836447 39.88544824 87.8991394 49.07406616 C97.05873141 54.29816146 106.17526673 59.59269024 115.27392578 64.92211914 C121.98182451 68.84334211 128.72770951 72.69119967 135.5 76.5 C144.46640552 81.54317073 153.37484403 86.67836941 162.24804688 91.88378906 C167.05979853 94.70628053 171.87986565 97.50937733 176.734375 100.2578125 C177.62479492 100.76425293 178.51521484 101.27069336 179.43261719 101.79248047 C181.10687469 102.74296709 182.7844747 103.68759707 184.46582031 104.62548828 C186.34336074 105.69465471 188.17752294 106.83946036 190 108 C190 108.66 190 109.32 190 110 C188.40885417 110.91796875 186.81770833 111.8359375 185.2265625 112.75390625 C183.66832764 113.65290649 183.66832764 113.65290649 182.07861328 114.57006836 C179.74109133 115.91861329 177.40353227 117.26709368 175.06591797 118.61547852 C169.19915714 121.99967101 163.33297885 125.38485838 157.46875 128.7734375 C145.69773783 135.57317938 133.90954044 142.3412952 122.10031128 149.07434082 C112.9409069 154.29835134 103.82455631 159.5927939 94.72607422 164.92211914 C88.01817504 168.84334238 81.27227506 172.69117194 74.5 176.5 C65.6915082 181.45477664 56.94340352 186.50467349 48.22216797 191.61132812 C39.4729849 196.73294009 30.69353653 201.80073926 21.90307617 206.85107422 C20.88576416 207.43646973 19.86845215 208.02186523 18.8203125 208.625 C17.84481445 209.18574219 16.86931641 209.74648437 15.86425781 210.32421875 C12.2174211 212.45786069 8.62927225 214.68199585 5.05419922 216.93359375 C3 218 3 218 0 218 C0 146.06 0 74.12 0 0 Z " fill="#FFFEFE" transform="translate(641,891)"/>
</svg>
